<mxfile host="app.diagrams.net" modified="2023-07-04T04:53:32.686Z" agent="Mozilla/5.0 (Windows NT 10.0; Win64; x64) AppleWebKit/537.36 (KHTML, like Gecko) Chrome/114.0.0.0 Safari/537.36" etag="A6QMUPnmvFoa_U15ZlJX" version="21.5.2" type="device">
  <diagram name="페이지-1" id="LRV9yE4w53HvQbfg9ijL">
    <mxGraphModel dx="637" dy="337" grid="1" gridSize="10" guides="1" tooltips="1" connect="1" arrows="1" fold="1" page="1" pageScale="1" pageWidth="827" pageHeight="1169" math="0" shadow="0">
      <root>
        <mxCell id="0" />
        <mxCell id="1" parent="0" />
        <mxCell id="JSBXhnSBdoEHyfM7yJ-U-1" value="" style="rounded=0;whiteSpace=wrap;html=1;" parent="1" vertex="1">
          <mxGeometry x="20" y="80" width="770" height="500" as="geometry" />
        </mxCell>
        <mxCell id="JSBXhnSBdoEHyfM7yJ-U-2" value="JS Runtime" style="rounded=1;whiteSpace=wrap;html=1;" parent="1" vertex="1">
          <mxGeometry x="20" y="20" width="120" height="60" as="geometry" />
        </mxCell>
        <mxCell id="JSBXhnSBdoEHyfM7yJ-U-3" value="" style="rounded=0;whiteSpace=wrap;html=1;" parent="1" vertex="1">
          <mxGeometry x="250" y="120" width="210" height="310" as="geometry" />
        </mxCell>
        <mxCell id="JSBXhnSBdoEHyfM7yJ-U-4" value="Memory Heap" style="rounded=1;whiteSpace=wrap;html=1;" parent="1" vertex="1">
          <mxGeometry x="250" y="120" width="210" height="40" as="geometry" />
        </mxCell>
        <mxCell id="JSBXhnSBdoEHyfM7yJ-U-7" value="" style="rounded=0;whiteSpace=wrap;html=1;" parent="1" vertex="1">
          <mxGeometry x="40" y="120" width="200" height="310" as="geometry" />
        </mxCell>
        <mxCell id="JSBXhnSBdoEHyfM7yJ-U-6" value="Call Stack" style="rounded=1;whiteSpace=wrap;html=1;" parent="1" vertex="1">
          <mxGeometry x="40" y="120" width="200" height="40" as="geometry" />
        </mxCell>
        <mxCell id="JSBXhnSBdoEHyfM7yJ-U-9" value="Event Loop" style="ellipse;shape=umlControl;whiteSpace=wrap;html=1;" parent="1" vertex="1">
          <mxGeometry x="30" y="490" width="70" height="80" as="geometry" />
        </mxCell>
        <mxCell id="JSBXhnSBdoEHyfM7yJ-U-11" value="Web API" style="rounded=1;whiteSpace=wrap;html=1;" parent="1" vertex="1">
          <mxGeometry x="660" y="90" width="120" height="40" as="geometry" />
        </mxCell>
        <mxCell id="I4Zyjwfel7fduKmOHLP3-35" style="edgeStyle=orthogonalEdgeStyle;rounded=0;orthogonalLoop=1;jettySize=auto;html=1;exitX=0;exitY=0.5;exitDx=0;exitDy=0;" edge="1" parent="1" source="JSBXhnSBdoEHyfM7yJ-U-13" target="JSBXhnSBdoEHyfM7yJ-U-9">
          <mxGeometry relative="1" as="geometry" />
        </mxCell>
        <mxCell id="JSBXhnSBdoEHyfM7yJ-U-13" value="" style="rounded=0;whiteSpace=wrap;html=1;" parent="1" vertex="1">
          <mxGeometry x="510" y="450" width="190" height="90" as="geometry" />
        </mxCell>
        <mxCell id="JSBXhnSBdoEHyfM7yJ-U-19" value="Callback Queue" style="rounded=1;whiteSpace=wrap;html=1;" parent="1" vertex="1">
          <mxGeometry x="510" y="410" width="190" height="40" as="geometry" />
        </mxCell>
        <mxCell id="JSBXhnSBdoEHyfM7yJ-U-25" value="Javascript Engine" style="swimlane;whiteSpace=wrap;html=1;" parent="1" vertex="1">
          <mxGeometry x="30" y="90" width="440" height="350" as="geometry" />
        </mxCell>
        <mxCell id="xzAWG37LkjonEWlrzQVd-4" value="anonymous&lt;br&gt;실행 컨텍스트&lt;br&gt;Execution Context&lt;br&gt;&lt;br&gt;" style="rounded=0;whiteSpace=wrap;html=1;" parent="1" vertex="1">
          <mxGeometry x="40" y="360" width="200" height="70" as="geometry" />
        </mxCell>
        <mxCell id="I4Zyjwfel7fduKmOHLP3-4" style="edgeStyle=orthogonalEdgeStyle;rounded=0;orthogonalLoop=1;jettySize=auto;html=1;exitX=1;exitY=0.5;exitDx=0;exitDy=0;entryX=0;entryY=0.5;entryDx=0;entryDy=0;" edge="1" parent="1" source="I4Zyjwfel7fduKmOHLP3-2" target="I4Zyjwfel7fduKmOHLP3-7">
          <mxGeometry relative="1" as="geometry">
            <Array as="points">
              <mxPoint x="430" y="420" />
              <mxPoint x="430" y="280" />
            </Array>
          </mxGeometry>
        </mxCell>
        <mxCell id="I4Zyjwfel7fduKmOHLP3-2" value="studentList" style="rounded=0;whiteSpace=wrap;html=1;" vertex="1" parent="1">
          <mxGeometry x="40" y="410" width="110" height="20" as="geometry" />
        </mxCell>
        <mxCell id="I4Zyjwfel7fduKmOHLP3-5" value="window" style="rounded=0;whiteSpace=wrap;html=1;" vertex="1" parent="1">
          <mxGeometry x="660" y="130" width="120" height="60" as="geometry" />
        </mxCell>
        <mxCell id="I4Zyjwfel7fduKmOHLP3-6" value="document" style="rounded=0;whiteSpace=wrap;html=1;" vertex="1" parent="1">
          <mxGeometry x="660" y="190" width="120" height="60" as="geometry" />
        </mxCell>
        <mxCell id="I4Zyjwfel7fduKmOHLP3-7" value="ul id=&quot;students&quot;" style="rounded=0;whiteSpace=wrap;html=1;" vertex="1" parent="1">
          <mxGeometry x="540" y="250" width="80" height="60" as="geometry" />
        </mxCell>
        <mxCell id="I4Zyjwfel7fduKmOHLP3-8" value="" style="shape=image;verticalLabelPosition=bottom;labelBackgroundColor=default;verticalAlign=top;aspect=fixed;imageAspect=0;image=data:image/png,iVBORw0KGgoAAAANSUhEUgAAAy4AAAGCCAYAAAAG8pcXAAAgAElEQVR4nOydeVxUVf/431+EwYEBZZPRgGQRZczAEBwfKYOvqKW4oqU+aWGFZqn9UsvUskwttSeXzMy0tEfbcCmyBH1wCb/igkolKIILkoEoGKsMxPP7Y2ZYhhnWAUY679fLl5e595x7zr3n3ns+57P9D/BfBAKBQCAQCAQCgcCEMWvrBggEAoFAIBAIBAJBfQjBRSAQCAQCgUAgEJg8QnARCAQCgUAgEAgEJo8QXAQCgUAgEAgEAoHJIwQXgUAgEAgEAoFAYPIIwUUgEAgEAoFAIBCYPEJwEQgEAoFAIBAIBCaPEFwEAoFAIBAIBAKBySMEF4FAIBAIBAKBQGDymDen8NmXHY3VDoHA5LCafqzG38UfD2yjlggEAoFAIBAIhMZFIBAIBAKBQCAQmDzN0rho6fvBLWNUIxCYFBen1/xbjHOBQCAQCASCtkNoXAQmxdmXHYUJokBggohnUyAQCARtjRBcBAKBQCAQCAQCgcljFFMxgcBYCHMsgcA0Ec+mQCAQCNoaoXERCAQCgUAgEAgEJo8QXAQmhbCjFwhME/FsCgQCgaCtEYKLQCAQCIyPNWz7AraNaOuG/M0Q110gELRjWtDHxRrz3nPwCvZD7miN1ELzc4WKkrtFXPlyMtcut9zZ2w8+2A6ZQ68AeyrSDvHrtx9RWtHWbWo5Wt2OfvAU9rzqjwxI2z2bGRsbX0XI0qUsUNoCV4gKXcMmY7fxnmEIGw8MxwsoTPiQMYsvtXWDBEakUc+mNWzbDEo7YDosOwMLb7RY05pNv48vMMZT/77Lu3uxpQnvhbZi2UpQOgIzYZsKpsa2dYsAa5jzPIzvD46dNL9dhp4z27RVAoHgHqSFBBcfHJ5aQb9ektoqHTMJUisJMgegHQsuHVyn0NV/IN18ZWR/Oplrvzexogefpf8gV/WNenAEfW4f4/TBJCO2VHAvEThuFKNCeqPwKmb/0L+zkNR8xLVsOZat1AgtwNnPTVtoaW8sXA993wNPCShnwrIMWHihDRtkDds+1ghTAoFA0ExaRHCxHDyvUmipKM4iNW4fWRfSKAMsnAKQdXWlw+2WOLPpIPENo0+ANVBEdjPq6WAjqyH8WXSQNbNlpo3Whr79RTAyp+/o4UwK80XRxRZJR4uqXXeLKbyTS1b6cVYsiSejjlr6hoYQ6AlwpYXb2/5p+rWs0izVS34iK8ZtJ67RrTM9GvpsRiyBcA/1dvoeeDKqpVvWfE5P78Xp6j/M2MeysQZUMKbOBXh+A+x5GWwlEP4GpD8HW4vapjnhs6uElvxLsHU9bBTKWIFA0ERaQHAJRu4nV0+2Vdc5sy6SnIKqveV5SZSkGv+s7ZW/ju/mV8Wz9OluTcXtFFL+71hbN0nQWBx9efP9JwnqZqV/f0crZHIrvKw88KJuwUUgMGVchsCM/urt0kvw9idt256/K5mxMLc7rB8DlnYw41WIfQMy26AtYQ9oNm7Be7PgHpBjBQKBCdMCgosnMo2JQHnqoRpCi6AJVMRwY3MMfxdLi/anaenBmxsiCLJX/6W6lUx8/HnOJlzVaOKkeD7kTQ/P7nh1LkbVhi0VNIGMOOZ/lGh4f2k+7WVxuSHP5huTwBZABdHvQ0KLt0pgiCOfQGxfCOsOtgGwLASmtoHqz0kzH7j1mxBaBAJB8zF/4oknSE1N5ezZs8ap8T5X9YcLKCxojpGUQHDvI5sxvFJoKTy1iadeT6ZQ55izie1lavs3pKyEs4ltsY5teiifh0HO6u3MOFh4rW3bI4C5n8OAJeAIKMeBMq7thMk/89roxAKBoF1hPn36dHJzc1m1ahUJCW31Sgvm/rnzUNgBabv56bNP9R4lHfEtjw6wBtI5ufAlarjJBKznsdGeVfvMfLEd/AK9BrjiIFEfUvpnFpmHt5B6siHmVnZIH5rD/f9Q0M3ZGkuNo0l5SRF5l+JJPbid/NtVb+KqtulijeKFH1HoO4WBvjo88yOBBgzoM/Y+zvlTDWg+gHQoTkPH4v6AK3ZSTezrChX52de5dng7mb8ZqOi+txjwQgCdKSL5o/Fc+90O6YBF9B7kg4ONup7ykjyyTu4mJXYX5Q1sTkPQtaO3D/Rnclg//Ly7I5dZIdHcSyrKUN3J5NzBfby/+RK59dRrHxLCK+OUKLo7I6teR3FZg9sW8twUxj/SA7cutki0jkeqYgorLAyWGenjotm6zcldtYWW+oj8eC3hek3t3Qk/sJZwPXtqR/TqwbJdLxJoC6TvI3S6/jBDDY2OJvPzJfLJIQT2dsa+0lenDFV+Q6+llJDnxjN58IO42Vcrn1vf/azqh7aP9iHDWfJMED5yjRleRRm5GYl8+68viUqpWdo419IINCiSXT33bMYcDox1p/JeyZyZ9PJERindsdeMb1V+NulxO3l9w9X6x53MmZHThzMqQFHtnoDq7m2yzsXz7eajrBjXGTCseYl4WLNRBFFr6zthBGG75qO0Bcjkp+cGE3/V8NEe7yYxzd8SKOX0Ol/2RNfcbx44G/+wQfh5e+Iks0Ra+YyXUnInk6SDO/lp8w6jvquqUxmVLD+BDeOe1q8hr/SbKSDhvQCiDxqozG82j04dj9LbERttP1QF3Eg9zk/bVnL5XCME5RPw/QWI6AV4QER/SDjRiI4JBAKBiWFuYWFBdnY2WVlZTShuTXmH+zG3+7Pqp85VkcTMLJ0xt/PVU66Q8rz0JpyvYZjZvUDvF0bgpuNSYNlJjueohTjYreJ4zCHDFdhNwXvak3ja1d5lLrXG6cGhOLnac3j1m5QYt+lGw/zB9+k/3gdb3bBuZhJsu3rSZ+JbeP9+iOMfr6KkrvDKlmHcP2cGCied+qV2uAyahpOzHUe++JS/jN0BAIawbJkBJ2gzCyT27gROeJEv/Pcxb3osyXrrcCD83ZlE+jvor0NmWOjQZcEE/9o/SqyoK1yCTQdt/RbI7vmoOuYEvfwyCx53QVJrnwUS2wZcS5mCBRsjCJHrHlt1P78OSWT9S9v5vk7LJCtGLn2Dl5Q699XMAvvuSiJXO+Mwcw2b6pgMtxckfkPYuHQ4Xh11frd1xmf0y2xx+pAnlhgWvuzDJrL2eSXyjrX3STo64KYcxStO5nDxjOFGhEBfzfi+dQbqjx68lYRzESgfcQRc8J8URvzyaAPHzkfZx1K9WZhCUq3D3mHqsnA89BU1s0Rq74lywmJ8/X1YO30Rpmy9bDN1NzP/qcBGd4fEhm4PDGHaqkFc3LuI7RsMXavavPcfmNwLLAHlKEAILgKB4B7G/JdffmHlypVcvdqUL/yDnLadQehc/XttH5pC6EP69ujRmBgNV/rM9MRSChV/pnP+xx/I+r0QqwefpM9gT2zNoHPQk8iPHiJLn9Rh8yy9Z47FTar+syLvOheOxXLzQhplyLBy/wdOgX546AhFJf95gwPHqqZzViGLGPiQOqpY6s53uKZvCa5cvxv27agFHKjuffTgC4QOcW3wFejQdz2PhHtiCVBRROaJGK4cO8VdZFj1GoFniC9yK7C8L5gBU/M4+tmnBlYiLfCcNANLKVCSxYX/qKPDdXB/kh6P+yKXgmWvobh5fMoVI4W2rr2aW0ZhVjZpKcmkXUzl5NUSQIrnwIcZFeqLvCNIPIez4PVknlquuxJpzrClc4j01xgv5l/h5JGf+elYNkVI8XzIl/5B/vgZcprXQ+HVROL2Hyf+aglYOxMY5EtQgC9yA9LLyd9vE+7tANgSGBFBeMbWWpqAuvj2X6s4WW0WE/LCPIa5AWSy/7Uv9UarKs1pyiJE/ShmvFgltNy9TcrxOH6MUfvqOPv48/AAX/y8HfQINVociFytFVqKSYv+ivd3JpF2C+y9fZk8O5yR3rbg6E/kiizSnjMkjILkoad4SWIBlJGVeIjvfkwiXebNpImP4ye3AIk7w6b7sum1qtDhpnQtjYcLw5a5qzWRhVeI23WI/SnFeAYPZ/JQd2SA/cDRvNR9Fev1vOJlQ6ewcZY/GmtGtQ/WvgT2p9wGHPAJ9uVhXx+8qNvHJeIRKk2E0xqouM/54gwZjwzBDejSZwRORJOj78CpSrw1g+rmmSiDUfQLstK5mJLC9YtnSb+aD9jiNDCM0FA/unUEqWc4Ea+fY+1yE/W0GPo5kRqhpSQrgT2bPuZ8fALIlDiNns6EJ5R062hJz9FvEJZ2luiYBmpefoCz/wRlJ7D0gAhga0v2QyAQCFoQ8zfffJOcHL2fi3sUCZZSKL0aw7EtayuTNeYfOcZpyx2EDLIDM1ccekFWLbceVxzCR1QKLXfObOHUrpqmUPl5x8g/A+kSHXVMSQrl1QShstKq7fI7SZQ3xr63IKmmIFHcCJdts3F0H6oRWkrSOb3hNXLyquJg5h8/xtkTQ7l/zmwUDmDpNRRXg4KH+lpW3E7i+OYF5GuXKvOSOFv+PqFP+GCONfIeA7lyuSWinf3Mwomx5OqZL51NvETUgSFsWT0cNwnIfZT0JYoat1Q5nmfUtiio0vexaG4sZwt16rhiVWm2Ux9pe5czb0N2NbObTM4eTeRSpYmVnnaui+KkbySB9oC9L5FrlvK/B/by2eeJnGxAHILc1MwaZlOBldZYZRQmZmIkz7T6kQUxfYS7WijJTWT9TB2NSGIm+/9dUmeYYLdZEYR7qoWWcx8vZt6uqlGem5rE+pnnubT8TV4JsEXSPZhnwmKZZ2BhWSKxAPI5t3kN877RLoFkcvaoinVfj8dHAjJ3BUEkEV95DhO5lkbFAokEVBlxrJj9HfGawXk2cQ0Z0jdY9ogD4IIiFNisW7YHC57XCi1lZPz4IbM/uFpzfCcmsROwd5TW2Yq+2nWVEjjbUAfwqzs5nzEENzfAsTd+SjhQS+hxwddfgYWmPYlf6BM6drJt4iLK9TxPeYk7SD2wmmmrR+AhgS4+odgRhem5W8xgzHQldgA3Ylk7dVaVZqgwgZx/J7AhUdsPG5QT5nAwZm6DNf5nr4LSF+gEfe8HWsv/yFqt6REIBAJjYdY8oeU4yrwp/LTw8ap/H53ijmbvneOrau6r/NdS2hY1FbdPcbya0KKl9HxaZdts7wuuXdBxCp5e6qW9iuxDnNlVh/+GyvQ+fQD4P4qXZlX5jyMf1RBaKqmI4dreJM0ExRqv/k8arq8kndPVhRYtv6RU2nF37ubT7GZrOfuyY6WfC5ToFVoqSYnl5HXNtpUVupZ94eEPaiZl2cStrSm0NIX1NYSWBlKYzMIlX3JO2w8zW7yGTmHZl6v5eksEr4x2bpDQ1Na4PfcIPhKAYs7t2lmPGZc+XJgcoPH3yYhn/S59T1Y5+z85jVrHYYVikB7TvErKSNtdXWjRUBjPee2YsHemd2Ob2VgspPT1dzH4z6s1zANzE1lfTWjRcvJ4lRAid+tRq5hs6hD8NPK2KmWvjtCic4pbJTrPZk20kaPIbkzkqATijyajlh8d8R0eUfsQ2XT6aV8vGedI1GsYkKxXaKkkZS5Jle8JS+oWwdqIf4biKwMo5XTULP3mbClzOZSiWRFz88O/e8OrT/ijatvlH01vZqMZAlor45y0VjyvQCBot7RIAsq2pYjUb9/U77fx+3XyCaCzgZLmfp6oLeZVXDv8EaUGjjNlOnu5anyMrvP7sTpski4fJvNPX3p1AvP7fJCC3tW7zNjXuK33K5pOYR7UkhZMBgV93TUmYFmpxDXCPMsQhsyW6iUlgXkTk9QO6cP8cbMFsMDezZdhM30ZNjWTk99sZ8WXTRCMWgVzRik04aJUmZz9pgkuzt39UcjVm1npSYZz1Vy9REZ+CHJbkMj0+CVVHhfLvI36lz8u5eSDp34NmNFxC2HluyEGdxt2vjcW+Zzcup39+gbOwSyyXsWgBmykv0aDxm1O7oxv1tiz1UgDpX82MlfItgRSJyjoLQG7B4bgwdYapmDSCGWl78r5o2tM1qewuXj4eaq1Sqp0UutwX7l8JQd8XYBO2HkBDbTwTrhZtW1Zy4GmBbCGIQ/DnMkajUs2RLeHLKwCgaDNaYeCC1TU5WxeB526amZW5HLnUhulGW4Wvlg5aYzB87IorPM6xJCfMxs6AZ3ssUK/4FLx39a9DrXt6NURqMY/0gM3e9uqqGL14oK9djU5L8sEzIBKiNu8nbjNO3Eb+giR4UH4uTmoo5PJXAiMeJ0vBnzLwlnxTReQWgx35FoniNxsmiQD9uxUqVmSB8/jgB6FZy2c5ISA/qzzf2GiQl4b0KTIGD3o4awJkHA3k/MN8Esx6OPycNWqeundxrZjJQm/Tqa3vyXIfPAdB5d3afcp8ffXaOlUySRtq0skUtDtufkMfqQ3bvY2VVHF7glccOqkMaiSKJh04EIDytjQpQdgKDKZLtmg9vqBTi252BQCp+ZV+TsB5F+FrYtFDheBQGAc2qXg0mQqr0YRZffk0p49Fk35YOtGHjMVZAre3BxJUDPNbVR/mlI+oXIyYuJYGBMHji5Mmj2FyUpnJIDMZzxvLsmuMwJUm1OU3zQh0MO+8SZxhX9i8tYldYSXNnUk2vedqrzecOJ10vDAfHq5vDeBm/6D6IIlvoPms2fXSvUO/2fw76beLPj1AOcNVSCL4LHN85v9nmg7htDFvv6jalJK7s36jzIJOoDtfUB7yy0sEAjaBCG4CEClaqFwxo2nKo+Lisj3IionI4Wpcez48hD74/NrrLQbzs1RjQ7NnFm1FLcy2bl4Od8PncKWuWonafuAIUziEjvbum2G6AAymqDtuJmPCpAAGXtfYdqGlsqoIWgpdHMsVRIHOZpVdks9IZXrJeEAybcG0cURLDyV+MogqRCcHu9NFwBukbjXkL2dEt/3Zle+JwpSY9n95U5S42uqkCrzrJgkyeQVor6A+QlsGve0YVPKptKpykm+RRNBxkFAHGAN4SPh5SfB0RUiFkN+eEPCZAsEAkHdmOpau35auLXFt7VmUa50NmQYbtIcolBr9m8nR1bn9RqKrda+Iy/L9MxuugcT5K0ROG7EsXDmd0TpCC11UzUxltm7GDxKZi+tI3xvQzDHXto8+b8wZmdV8j2JnB6PNKu6JiPpYHifSns57eUEGjrIR2pYq5JTUnnv7O/zbkrz/ma0tLB9hSytmsXWhb6NcPTWR6km8KFlJzD8tBkiivjjGjMwiYLe41yACJR+2sQw5zlnyJSt+ySU3pop+Y1YNsycVUtoMRnMDMXXSqBA+3DYutC1BaJ1uMirBJf81ggiWgRRX8ITWrM/axgysRXOKxAI2j0mIrioQOuPYeesP3yi61v4BejLTG88Sv7I0jRDQjffcc2qq6KsKoSxWSte5T+va/NOuHLfgDpyv3g9iksn9eady6dbLKN0Y+n7wS31iq5XlU9EYUayweSSMoMhgq5XTczuc9GbFR2fIayaqmiW4KKY8SLP+DY8D0z95JNbR56/KtWYBZJGTHAqBQ87B4L07JcNncIzAYYc2i+RpV1kNzTJlSlYtiQEuZ5dABy9TrbmkZD5KAk3hVBqTbyWzUZVhvbtYO9cO9qXOv/QRAJbNL5AOeez8jXbzviNqSMQgobKZ1MPOdpVfGf0P2v1ULI1odIpv/eA6TD4EXpq+p9x/DP9+V0AvGwrkzXmZZwzkFxyUB3vCeNQph1Ltk446TvA5x2mPW5YpMv4XXtdXfB7bpCRWwfh91dt59T1fjEymbuqgjW0SlAAgUDQ7jERweUYhdovk4MCJ11bZefZ+E0NoHNLtzbxGNc0vi2yh56id6Cv4WN187joUPp7lkYYsEbed6ixWlgv5cdO84dGCOwaPB8HfR8LSRjuI33VgkFFFleOHGq19jUFSSc9IYMdfXlz21yGdTNU6hJnrxSrNzsqeGymzsTMR8mqJcPxaoTU8pJO1GfFhAjeHOveTI0NyIZOIkgrDNzK5EQdaqWTv2tVas74Ta1/sqmmmuBh34P/VeqcP2gUa6slIdTHTxe10w9ngp5X1Lwfsu68sjZCnavGIPEc/FVzP2S+TF4ehKKuwx2ldbbHGDTtWhqBo9mVPiX2PfvpaLDMCXr5ZV4ykBfImMTtS0K7zCF/fA7LwgzP7uvL45Kg1RhKoa/hIGuGKfyY09qoD64KHg3y0gQsTCdxa8M0KLJO99X+0XEGodvWEWrwPWEcbuRoRSZPek/VEVB85jNmSTgedbwo8nYmVJqHuQ1eRujQuvRWLpg7Nk6vVbnYkA2xrZXDBaCIezI6p0AgMF1MxsflzuXrVPRyxQw7ekesp2LvV9zMkdFp4Fh69XfF1gxKS1RYtmS4mIqvSIsZSLfRnlgiwW3UCuwDU7hyOJas37MAGVbu/8Ap0A8PqzTi//Wm4fCcyUlcV/ngLoHO/WczsNODnD8aS2F+tWPKMygv0DE4NnPFvJPOlM2qqs8WVr6YV5eZdOso2cbFEwNxHmCHmdSTwPnfcuXnXWSeSuEuMqweHIt3kA9OGiXBnfgvyNK/TNkmVNnRp3L9ZX98JCDxGc3GdyXs+DaVbOfuDAt9hECFcz2mcPD93kTG+z+MHAvcRs9lozSKHYfykQeHMD5Ygb0EVOlXyPV0N6wpqMbI5XOQ/HsfcTm2hIwZTsgDDkgoIy09Fy9PZz0lerDsy0i8ii+RlpJJVlYm8SlVIXxrZ5sv5lzUt5ys6/rEXSI32AF7TZ++cI1XZ42vFvytNCeL5IyaOrSfLmYS7u0COBD06hxe+fc+4q5aETh6CMOULsgAlapMk9ixNhlbj5MyVJPYMSCCje/+yI5vU+GhEMY/7o+bDMi9Qoa5uybcc22+33aIx/qohUWZz3jW7urHyeOn+fnQVbIBnLsTpPBA4euDlzybqNA1bKrjWjSXpl7L5nOa5IxReLkBjkoWbChmx9eJpMu8CR8TSmB3K6AMlcqiEVH0mkDCXnYk+PKK0hawJXDWUr4e+Qvx+48Tf7UEcMAn2JeHfX3wKjqE40X1Ur0+rcvW0zCnv9ocqe9gDISCq4tMko6cI8zHD6lEwaMB6l/LUhI4XZd96MFkMl5WYicBC59wZr5rSfS3Jyhw9qNf6FD8FY7Y1LfgJVNi09Op5sfQukrvb24dhl31lEIF6eSl1tQB5ySmUzDQDxug94SvGCPZweEz+TgFj+OxYAVdJICqlDKJpX4jwKtr+ClhEJFKG5A48ujcfSiGJXAs/ijpV9XxwJwe6sv9nn4o+rhgcWYlqxdvradjGvqDl0a7fisV6oi2LBAIBCaPyQgufx37igv956FwALNOnvhOXVhjf8mFH4i/6EPoqJb1sCw/9RrHOv6LAUNckZqBrKsPfSb60Ef3wPocHCu2k/ZjAPKRnkjNwLZXMAN66cSATdvNT599WvO3rs8S8ILhXDNdh6yg65C66iii5Id3OGHzNv0fsMbMzBr3QVNw17U+qFCRdWQjZw+aqrYlgY9/ULJqrDsSLJD7j+IV3XyEt5LYmSxn0iP6hAYgIYoVu100dVjhNXQKb1ZTfqky4lgxN5NRX7ojb4hTscydYdNfZFjlD+ps4/MyQvja01m/5kVigb2jgkA3tX5hpKG6K/JJ2bmmRjZ5/X36ls+O9eCVgQ6AFXL/IUT6D6lxSGHCh4xZXDMyWca6vcQPfJEge339AFXqPhYlK1g52l3/eQvjeX2dhyaIgJ77kZvEpiVR3P/aUoOCCymxzFtny8YXH1Zfb1t3Aoe6E9h6CsmaNPFaNp981n+ZQNCrSuwBmXcIkYurqymKSdu7huQ+rzOyRV935exfvAbZuzOJ9HcALLDv7s/I6f61x2l6PVX9AAlPwCBHsOwNb1jD242NpL7rCOf/6Uc/GZroiKUkHVhaT6GV/PTDILzHeiLFkm7+4UT66xir3TrHN8mOTHjEgJZCOZ3IV5UGU1K5DV3F3OpjND2KhdMX1Twoeg0/DdvEBG9LkDjSb8Js+k2o3oYEtuyEsbMMnSeTjMVz+eaD1Ux4wAawpMsDgxjzgH6zsby/Gq7HmDEKtEYM5//T4GICgUBgkpiIqRjAIa6tWcbpX7LIr3IPoTTnOr/uXMDhLz6i/L+t0Y4iSn+O5PC/NpJ06jq3i1VUT4dSWpzHH6di+HnLynqToZWfeonDH+0mOS2PElU9BxuVFO58+TQHP/6B1Ot5lJRV7alQFZFz4RjH1zzD2YMxrdmoBlHdjj554xrmrYsjJau46oCKMlS5Vzj5zYc8MXErn90qNlATmjo+ZNHWBDJyqy6CKj+blOgPeWrad8QX5qNq4L3J1R5XUUZhVjLfr1jMtA+uUvhnOfqryObn+CTSrmZTeLcYlW5eHVUxhVmpnIzezsLJi5m1TX9CxZqUs3/JcuZviCMlK792nQa5xFvTPuD737IprNZYVe4V4rcu54mZsZytp67CmO3MWBFb837cvU3G0S+ZP20rUSn5FNbzUBTGRPHUxOWsj0kiI1fnmlS/HhNbVtuipqnX0ggc/JJpb+2red6KMnKvJvDZvMXM2JBtYEwZm9tEvfY2T6z4jpOp2RTerfayoAxVfjZpCd+xYlFsnT4uAJUWXRIY+mJT2rKR+DPV6i9MIakB6oGCjcNZuy6WpKwCKltfUUpJbjoJ3yzlzYlPknSrpQ2WEkiaOYttR9O5WS2XTVnhLZKil/LmxKe5XG+I/SMkvRzAmyuiSEi9RYFOTpySuwVkJB5h5+qnWb1kR8Oa1QvC+2q2L8DbJxrYHYFAIDBR/gdosjhgMDymQNAOuHjxYo2/e/bs2UYtEQjuDbZ9BcpOgAqiX4W5DcmlKGgxXv0AInqpt48sgefbQHD58SfwBNL3wOOftP75BQJB+8KENC4CgVoY1grEAoHAdGjIs7nwa40ztgSGvATGj48laCjKaTBZI7Tk/1/bCC3VcTJg0SsQCASNQQguAoFAIDAKmXtgjWaCbOkBq5c0Ja+LoNn0gjdGanK35MHG+lyFWpCcP9X/23o3LVS2QCAQVEcILgKToj47eoFA0DY09NncugSiNElZbPvDJ8+3cMMENekFX1l1Bi4AACAASURBVL0BnhJABVFvQwPjj7UICdoEPY7w6jqYoS91kUAgEDQQIbgIBAKBwKgsnA8JmsiLniNhWQvnURFUsWw29LUD/oKEDbCwjf2MNi6rGgu2PWDOOrj4E1zc0LbtEggE9yZCcBGYFMLHRSAwTRr1bBbB1FmQcAsS1sHCGy3bNkEVCxdXXfepsW3dGtRj4TnYGAu3/mzrxggEgnsdk8njIhAIBIJ2xC2Y+lRbN+JviCle9yJY8wGsaet2CASCex4huAhMCuHfIhCYJuLZFAgEAkFbI0zFBAKBQCAQCAQCgcljFI2L8EkQ/B0Q41wgEAgEAoGg7RAaF4FAIBAIBAKBQGDy/A/w36YWvnjxIgCPP/446enpxmqTQCAQCAQCgUAgENRAaFwEAoFAIBAIBAKBySMEF4FAIBAIBAKBQGDyCMFFIBAIBAKBQCAQmDxCcBEIBAKBQCAQCAQmjxBcBAKBQCAQCAQCgckjBBeBQCAQCAQCgUBg8gjBRSAQCAQCgUAgEJg8QnARCAQCgUAgEPxNsWZYnx181TcM+7Zuyj2ErPNbfDXiLcI6tO55zVv3dAKBoCn0+/gCYzz177u8uxdbNrZuewR1023pKWYqbYB09oQO53RbN0ggELQyQ9h4YDheevddISp0DZtauUUCfVgzzPcT/p+fHTCDlbmnePZalsGjn570PKPc1dtFp7/hnzF3AHfeXxiKBwB3SPzsG965oa909eN0ucJ3yw7weWNb7+TF4lEP4WGeR+J/jvLepdIGlOrMohcn4N9J/dflHz/hlbNAt778+5kArBvSHvNnWTk8AHtzeOnxtyjb9yb7KxrZ+CYiNC7tGelQHIaswG/OXgJHBLdRI8Lxnvs5U744xZIN77RRGwQCgaB+7MatI2xDPK/F7KNfWzdGQOC4USzb8Dp7YuYQ2daNEZgExh4Tivvf5UU/OwByk7fwrzqEFl3KyrQz9VLKVEZoTKOR8uK4EHo6d8bCwR3l6P6EN6Wacs3/RSoKG1zmUz6MT0cFYB/Ai488i6Ip524CQuPSnrH/B96DfOkM3Elrq0b48fBQpXqFoait2tC2VK2+148h7cnp6b1qrtrP2MeysQZUMAKBoEl4hg5B6QnwZ1s3RQD0DQ0h0BPgSqufO2TpUhYobRt0bNru2cyo9d6OZUZobI1fIj9eS7h4bTcLY44JWee3eGOQJxJAdW03b5/aRXI9ZTJzC8Bd/T3PzcvX/FpMYQkgAcgnL9dQ6Su8suyTGr9U1+A0HmusLav9aWGOrEHl7nDzDtBJvZ13W/Pzn8VV07SSAvLqqSX52mt8eE6trZLcP5Y3fK/zbFJMw4WfJiI0LgKBQCAQCASCvw9mQ3nt4QDs/wcoTef7+E/rFVoAVP/9q54j/qLorhHa1yBuseNgMnfKgf+WkHnsDN82sKSqPrMuVWm9ggsUsT/pHaKuqdVN9n7P8lpn6wa2oOkIjYtA0GpkcuC1tSTVcUT5tVZrjEAgEAjqJZP9r31JXB1HFIj39j1HYM8nCLQHUJF2bCWflNdXQpdSyioFlALyCtFoMFqXi+fjeeZ8fDNqKKWoUs1STFEJIG1M+RQ++b9YAruOwE1iTeDDcwiJXlbn89JchOAiELQapRQmRjdgFUMgEAgEpkEZhYmZnG3rZgiMh/mzPO0nV2//fogPr19vcNGjN/N4mc5ACYWVFqV/UaT1cSm4Q6YRm9pSXL59B9w7A8XkVfajFJUKteByp4DEhlam+ohPzvXjnUA52AcQfr8rcdcafk0bS/sVXLo+y/2D/4GLhxxbifqnijIVhbfSuRL7FTdSTxkuKwmg86NT8PJzxaGTRG1PVwElt69z/cRurp6I4S99arb73mLACwF0pojkj8Zz7Xc7pAMW0XuQDw42aru88pI8sk7uJiV2F3UL+NZ0cJ1K9+EDcXW2Qyqp2lNeoqKsMJvU7yO5cVnf+WvTecA8HhswT8+edE4ufInbevY0jXeYdiBcf9QMz3CWHdDnOlZAwnsBRB80UKUsDI/pz/DYAE+62WoMOitKKbiZTsKuzzi8N7p2Ga0PSHoUC6cfwPeD1Yx5wAYL4OaxlaxdshV85hM2dzJKN0uoKCBp51y+2XakRjWV0bzSo1g4fRH4zebRqeNRejtio7knBVnJHPpsESfiGqJobmOaci0Hf87cV5XY5SewYdwizF//nEmDXLAxg4LUKDbMXESBbDL935vDY942WFSUknFkLZuWb23dvrU6Cro9N5/Bj/TGo4sNFlrDW1UpBRWWdZZU44J06ByGTRhEbxcbpJXlC7hx9QyHt63l/MmGjSnzkHd4bNyj9O5eNS4r7+vencTvitJ530QQtms+SluqxrYeDEZHM/qYUF/Lxwb3xdXeEgvNryW56SQd3MlPm3cYeF9W9SMvYSWrF2/FPGQ1Y58ZhEKuft6pKOVmRgI//SuS1JSapQ1H6/NkzIELjNGzR3ueFkXmzMjpwxkVoMDN3qLyZ9Xd22Sdi+fbzUfZn1H7ilT6UKTvI3R6rKae0Ywf2AO5zAIoQ5V7hf2btrI+rqSOBkgJeW48kwc/WO38ZahyMzl3cB/vb76EQTN+pASOC2FUkAIvL3tkEisklWO7mNwbKcR9+S2b9JzfsA+IO+EH1up1PC5M+JAxiy/pb4q2/wN6ILfV9KOijMKbl4jftZdNe7Nb3B7fKDSlHzPmcGCsu2YsJPLMB3OY9IAtUEbusa1MW5JMoY+SZXNHEehmBRX5pOxcw6xthmYDTRwTg6ew51V/ZORz8r3FLDwoJWTWFJ4J1o5J4O5tMk7G8v7ShFrmWkYfE0Bgz2C8JABFnDuztkEmYg2mopwW9dOvEflLhz9P8cGHZzlqjPNU/NUot+STF2NJ9p2CwlKCV58pBF5bxskGlx7EG7tWM/kBWyjO5MiGqTz/qWHxr/0JLma+OIxfRL8HrWs58JhZSLDt6oPv1PlYfDSea7/rKe86j75Tg5HrqsrMQOrkiveI2Xg9PIQTG1/hTkEd7bAM4/45M1A41fzZXGqHy6BpODnbceSLT9FvLelD54lv0/+B2n1Q1yHBXOqKnQM1BZf2iM9iJi2fTG9djzMzS2zkCkJnriIodBAbXp2rVtXWoiNuS1cz4YEq5/guA2cQNhjKn4tAqQ3abmaD7z8Xc+PIEeKv6m+KzdTdzPynAl03exu5gpELttHFYgzRMSa81tLsawmyGZuYEOxSqUm28Q5nwowDnH5gPiO9LSvrcwuezZhft7JHjxzULvCZz5g3IujnqGefxLLWGKnNIHzXrWaCj54jJTZ08x7EpGVKbhxay4a6BEBZGL5L36gxvivR3tfpr2LzZ5ThhYFm0uwxIYsgdONsHpXXFvak9p4oJyxGGRLKlpee5vKtulpiicfSeKYpdW6KmSVdug9i6up9fDNzOEkGnm9TwT5sImufVyLvWHufpKMDbspRvOJkzv7psbUPqI5PEOuWj8enxvNugcTem5EL3kDhuYIZm/Nrl5MpWLAxghC5hc4OCyT27gROeJGvQxJZ/9J2vtd3P2ZEsmysAW9jiRX23f0JX/Agfj1XMGOj8ZbMaqG3/4CZBTK5gmEzFYSE7mPRq7GcNWXpxQj9GLZUK7QAWGA/cCILBm9H9dxEjbkUYGaLzz8jeOnIKtbrPiPNHRNapL4s+zKCQN33ZkcH3B6ZyKoNVsyYGUdGHVU0n2BG9lBHEeP2OaIMS+D6OXuAMXrUb5/v/KTRoYzbkqMx33A0RvfXO7zz4Sf6Dq+fiq/4T9o4FL2twcGPcHs42cBrq3z/DbXQAmDlwqCZq5nx6ZMYyvLQzgQXHxymvkWgl1bFUkTmiUNcSzxG8V2wcArAQRGAq5+BuAv3LWTA8wPpbAZUqMj57RCpRw9TfBc63jcEl2HBuNuBWScf+j/3FkfXvEmJXgcnCzwnzcBSCpRkceE/+8i6kEYH9yfp8bgvcilY9hqKm8enXNEjeHQYOKdSaCnNSSH16P9x+0oaZQC2Pth1c8XWy4ty3XDdf3zKqdW7q/7u9iT9J/liC+Sf2c6JOJ3lRgAK69H8NJadfPPaiWoDK5QJ7w7BDSAjltUfHdBTppS7F/X8LIsgbIlmoq26RcKXazi4N4qSQhekQc8w+LlwlN0skXqPYNrryax+Xc8Er5OSMZ42kJvAtg2Z9Hs5nN4yG9yemkQ3e8hL2sHO472ZNN0PO1zoOdyF+A16hA/XMGZ7WiIFSm4lEx+1i6SrtniOn8wwf0ek2KCctY7Lx8Zy3hQ/gsa4lnjx2AhHpKp0vn/vB+yfm02QHJyUi3msmyUlGbFs36Yi9NUReEgs6TkgAqLbodZFFkHYkgj6aT74eVcT+Hn/AVKv5oO1B55BA+gf4Ec3g+FdlPhuWMcE7aQ+P52E/T8QfyYTrD3wfjyMUH8XpFjSLXg20/LS2bLxiJ56BtFv9TuM8dRqzgq4fPIIPx84Qk4RSLv3p3eAEt++LWl43dwxMYh+q7VCSwEXo7eyZ+dGCm6BufcM/GdHMNLbBhyVTFmxmvefm4uh9SLZQ9OZJrEESrmReIADPx4hR9afRyeG0U9uCRJPHps+g6TXqj6H5/41j/RqMp/vC6sIdYO6/NHKc1rOaEg2dAobZ/lXJsFT3Uomfl8C+1NuAw74BPvysK+Pgdwg1ZAq2LjaXb2qfDebc9/vY+eZYjyHjuaZYBckWOH1eDgjN2/l+xoFHYhcrZ2gFpMW/RXv70wi7RbYe/syeXY4I71twdGfyBVZpD0Xq3+1uqKYrIxLJJ+7yqVfU0kvAqydCXp8KMP8nZFggdfYmSw4+zYrEqqKffuvVZysdj9CXpjHMM39MORnUpqjJ3ytTMGyJZrJviqbk1/uZNPeq2QUmuMWpCTyueEEdrNC4j2cN17P5KnXk01T82KMfnRSMtnTFnIT2bQhk0deHoWPzBa3p8Yjt4fcpG9Zf9ybV6b7IsMFv+HmsKH6rMBIYwIpftMjkEjUfTkXE8N3x7KRPTSEyaN9kUtA4h3KS2FxzKu2uGG0MVF5PR5FoXklFl7/v0ZoBUyErF9Y+uEFqoxw7Bg/dQR9Gha4tEWJvpTMM70DkGGNl2sw5B5qUDmFk070PitbXOo4vl0JLh0CXuAhjdBScTuJ45sXkF/tK1eel0Rm6qdkfm+np7QP8jCt0JLHhc9e5MrlKm+EwrwkLvz2AznPrCDQS4KZQwA9B7hy7pg+Oz4JllI9bchL4mz5+4Q+4YM51sh7DOTK5WM6ZV1x6uOq1rQUJ3F63QLyqwtHeUnkXIOc43pOW3Gd8rxq7bEai7ZoRWk25Xl1uYUbi2QKEqu/tvpXCUZl+eQlNnwJ3mPRbI1GJJOf5g4mvlLuyqQkfinR8Ue5uXkTI7uDXcAkgrpvra0tcXSkC5n8tORpUlPAdlI4vWXQrZsL5Cewc+5SbhDBxUl+KG3BTj4E0DPZlqiFlpsJa9mweGNln04nRnNz+R4iA2xAoiAoQsn5dQm1ywNgicw/DH2jT00+BYlHjCxIqjHKtbR1pAulnP44khNHM+kWGkGQ3Aabbi6gSmfP0llkXHXht6dG4NEdbOz1p9lqMtau9PK2pyFGWFoKryeRXucqfeNxelmrqSvl8t5FbNlQc0yfPrqWG3WFwB43h8c0QktJ+g9smFtTw3Xi6FpODP2cuXOV2GGJx5AZeGw8gu4ah3TGfEZohZbcc2xb8mQNU6i8xGhu7IIDMkXLveibOSaksxZrBK9STn88hj27qhYNylM3cmJmNH9oni+L7qEMDsOgFs9CohZ+Tm+ey55vtIJeNHuOliL9ejK9JWDj3h8nNpJTeY6aPmeFZas0W23hj9aDBc9rhZYyMn78kNkfXK02Ec3kbGISOwF7x3q8Z7u54wWoMuJYMfs74jWVnE38AOyXEulrBTJ3+j4C31ezK3GbFUG4p3qCeu7jxczbVfU2yk1NYv3M81xa/iavBNgi6R7MM2GxNSaZAHy7iSc2lugxG8rk7NFE/jNzHqtGuyDBAUWICyRU3fPc1Mwa5QLLtFuN8zMZuegpjSYhm/1zl/N+5XNRTkZ8PAvjU3hp8wJGdrdAFjCcZ7on19YyVGKBzN+FvgbPVsK1xNt1mM41HaP0w9EBOdnsX7KdqBRwmDQKHxnIuzlDfiKb5sYTTy6PTfIl0Bbs5e5AlZmVUcYEABZqoSU3iU1LthKl7UviVuJVM/n6n95IsMLNvwdEX6p2DuOMicr+dHHVhAxWkXajYRNrk6LiLy7+Wd3M0pJRrZT4sV7+/IW04gD8rEDm9CBuHGqQ9mxrXDIz+ivRii+ll85S10yxHQkuAXQd6KnuUEUWv26vKbTUoELP5+i+J3F3VW8WnttdQ2ipIoXbX8Xyx+sj6GoGXf2f5Ldjq/RPNEvSOb1ZTxt+SeHGEz64AZ27+QC6gosbllaG+vh3Yj7KPupJWUHirmoT7eoc4cT+c4RO90OKC73HKIn/oLbQYKj8+e8XoTe5rQHyElaytpZteyYZnxwnI0CtVXLrOQIwJLi4EPruKkINniGdPaFHWiDLuvGuJRkH2L+rtkbqZsJnnL4KkMlf9UWLbCr9p/HW/+un37bXAJf3jmDWp8ZsxGyCtHYON47wzYbG2sK50C/UT2NKlsnhtQbM8mKeZndwEtP8LUHmh/KfcPnf1Q8IJ+gRT40vyC0Of/BkLf+NSgqTW0QYrqTJYyKMoACXOuuo+XxZ0nvQbPZErzXQkFIu764utGgoXErq9cn09gTsnbgfKgUXU0I2dQh+mi+3KmWvjtBSk9xbdfmnaA9KZH01oUVNOVEXs4n0dQdskfeGKoN4FyZX3o941u/SN2rK2f/JaSYHhCDHCsUgf4jWceG9pU9oqSJ5QxIZo13wAmTSRoUvaiBBDO6j/ogWJu6rNtmvzm3W709m2HRfJLgQOMYWPtBjNgeAC8Penccwg+e7QlToGjY1u926GK8f+suXkfL9To3GoqxWGTVGGhNaVFeIqi60aNu37RIZ//TGi9qCk7EJ6KzVZ2aT0YKWin9PTvJH3jT8rAAnNwZCw8z+Pp/K1L+W8erovlj+EcuOVWsMzqKgPeVxsXsUucafpDzlMDcaucpq7uOqcWovIvPkLsMHlmzjd+2KhrObweh3mbGvcVuv4JROYZ3LeMe4fVnjEmXlS7/pK3Bwda2z7e2ScQ/hodGFZvxmyNIRiMnkD82mjb2+vK2ZxH+sp/ytIxzY1gh/lPwEvjHkkHv1HDe03wpHF5z0H9V2GO1alnL6x7nUmjKpkjn8QVTz23kvMLQvPTW+BzcvHjBotmSYSXhrH+er5wwIkWouHzpbWX+3nhE1d/qHotDIT2UpMRyo6y3fojRjTHQPxUMT2Odm+pHadWip9nxJZXU8XVcPGDCpgxs5jb9Trc1If3eN+cdtTu6Mb57pkiqT75dsZ7++Sq7k6q+7uz8Kzf3ISk8yPOG4eokMzf2QyBya08qWYZw3nhKAMq7/VoeVQUwmWoMimb1zKzSskRitH9nEf6yn/K1E/r2tniUNI4+JjB8/ZJPed94Vcg3JjUbGwVrzMSzO5Q9T0VS0G66TVawJTSCRNMDXs4rkLxYyddzjPPniGqLrCS/efjQu3d3QPi451xuv/pM5aaXwLPLrjOJWRGF2EXhYA/bInOF2du2jKv7b9DTxhd9/SrLHbBQOYHmfL4HTN1GhyiM76RxXE7/iTiNC992zyB0rnX17T73Asqn1F7Fz0meaVMpdfSYAf+Y0etXV8Ct+K3/kzAdbwBx03Rer0InM1FoY7VqqKNeXUPxuPjmtYSAet4QnWjI4fEPwcKp8GedkNCHygL8nTprvZl5WPbFsYjLJmQs2gJ2u2d1DLnTRbP5xRZ/fWGvRjDHR07bSbLJL8CqWBa+q83AAnFzoBvo1pX+1Wta3FqAHPZy1EZYyOd9cQfRuNucNCcUHtzPm4Pbav/fsVJl1Wx48jwPBDTiPk5wQqO1n4NiDyNlDCFK4YC+rFlWsFZDJHTQCoAU+U9dyoAHvO5lTXav8LaVRqRvj9aOYQr3fwNv1+3cYc0wAqooW1f02gIHItS/wMpVITdACZBeVARLAGnspGF6RajrtR3Axr1Ifld1t/MS+Q0dJ/QfVQtIyV7Aihmtrssh7/AV8+7siMwMziR1dA4LpGhBMRUEWV+K2kHpS18ys/dBN3niH4pJCUzQAaXvEtWwJCiiow//TIHaWdQi2ddBB5+9q753yu22mbmke1YTABlOY324nGxLtPVWVt4i/RL142GMwnoQhCv8kTecn2dCJbPl/SuzbyJ4jUG5b/0E6qApNz2bIJPphpDFhOkiQ6L5LBfcc7UdwaRMKKCtuoaorksj/IZKff3RFqniSbkF+3H+fHZZmYGYjx3PUQhy6rOX4D7Xi2bUL8nL/RL3WXEDC6gCiTbqbSjq2hKm2kbi3ruU9RCt+AMtUrWRH0ZrcLECbpPny3sFs0RfNT9B63MxHhXqtNGPvK0zb0ITV8e4hrJqlFVqKSYuJYsc3ScTXyDkzhI0HhtcfGa2JpOWWoFZ/53Ny9WIW3qPvO5PohzHGhElxiIw78wjsBFhI6giUI2gqdhLt0lwRuS2gbYH2JLhk5ZKPJ7aAk9s4OFWHn4oeinOKwMsakGPrCrcNKm2skTlr3INVeRS39PJfxXVKfltF+m+QbuaK1G8Ofcb44GAGnQc8QbdjMdxoh0uQJYXaWM82dPFyAVPOj0J/Ki0Nc281yuG/Nbi3rmUdhCzh67Z2zq/8btvQxWDQNBdkUgMa3IOZ5L0KdoCdXJ8fUTWGVvlL5WXp2P1czqEAT2yArp6zAUMO683DvCWFs5y73EUtuDjdZyCa39+GK2Tlop6n2rrQtzvEtXa+mZwSCgF7wP4+b2hCWj63MUq02QiyflzNjA9aX5ORUahdTbRF7mUOMffmZNsk+mGEMWFqFKg0opiVPV3NAOHnYkSs6SrT+hAVGjGxeU3aj3P+79e5oxmA0h79kDWyZyVXMzRzEmtc/MMMH2jzLPd1V29WZKRwpwlNbTIV1yk58wqJsVobFTl2dS1blVflbzUza4opnHGojFfSQU9GNUOcyeSmZtMjcH7jTUpak7ABVQ7bV/Q7B7cp99K1NHUu5lSaKqkFhtrYzNjEBF9DQZtPkKF9fLv7EdTd0Ilc8Ajtq7lXBVw+qeNPcyyz0kdL6jkAj0bbc5RSrp0H2RkIKDH0cyYEtOBoOZrMDc0rysZnSBP6YHzKKqOfWdKhGe1RPLWaPUdO8cupY+xZObnOnARqyjmfpdWqOeM3pg2c3o9eJ1tzP2Q+SsKb0H8ve63qOZ+MXw1MW3ykDTc/qrwfFkgaWuhMlbO6W+Bw6lkeMF1MoR9GGBNGpyljohopeVpDTGfcTDC2xL3NMNy0yUXzsjjViJKDXljPVz/8yFcfziHs/rqPbT+CS8WX/J6s/Qr6Ejj1BcwN9c7MrnbPfztMmibwjMz/Se531bOua+aLU3iwWkqniLSfvzRO2xvJ/1S2XcVfdanistPJ01wSW+9/IG2Tu32CP7Rv325+9PdpYLHEz0jUhjDpNogpr0fUeTiObfR5kkUQ9k9NeFtVOsd2mmCq+HvlWtbHiS28uXghCxvxb+1eI7fh6AnSNU7nUp+wWuPZZsJXRI71xLDlYDTxp7QaLxcefe0dvYKkedg7jNUKPzeOc1g3633hxySkaDRpMj8mrV6NnaGPuEyBea19O6oiL9p74afU2R20jshZyhY2pVhJwq9VfZiwfHHdQrVjC+aj0ZDxu/aiuPDA1EFNq2TgMlYvCEMht8XS1hHFqFdZv6B+0SVuX1LlRFX++ByWhRkeRfXmcWkS8Rz8VbPKL/Nl8vKguifLjtLKRJm1kWJzX+27ZR82kS9WhiBvYItO/q4Vfpzxm9rAWWZiLCcr33cPs+B1RZ2CksyxEYJUa2IS/TDmmDAOTRoT1Th347omqp4Er24NiTYgaDCdHsRLk84j6/fDDQuFDDDuE5bPHkLfHp70DZ3Bsg3L0P0kVaf9mIpRxJ0ffiDDcyxuUrD0GsH/zu/HlTOx3DiVwl3AwikAB0UArn4ybmyezLXfq5eP5vp/huA+2hNLMzsUz+/APjGW9BPHKL4LHd3H4h4SgIvmS156IYaraU2PHGaYZ+m1KJiOl9K4mZFN8Y1jFGoW4iycAnDoG4zXA5pGFKSQ+VtddUWTdelJ3HtLwC6AR/7fes7v/4Gs36t7FRdSnpfeAv2oasO51Fd5VO4IEhdGrjxItwPRnDh2uVqwiVLuXoylpEYUogTiv0lAqUnC1y14Pov6jOBE3BHOn1GXlXbvj2tPL/x8fXAzP8uGcU+3nJlWRy/6z5rNif0HuJGaDCiweTyCMdNG0NNW3YfLP6zU5K0wRH0JKKH8WjQFuqG8ZUpsejrVfFitq1b0za3DsPOvtq8gnbzU6ip9E7uWTaXoOhfOtnVEvY3En5pMv2DNeF6+D+m/d5KU44jvmPEEPeCIlFIupxfg4emot4aSrTtJGDgfpT1IPcN5bVdfDu/5gdMpmWDtUa0egALiv5ilJ+xyJuc3RnN5dTgeEpB6jmDuF0qSTsWQEHOOAtT3tHeAEt++nbi4KoBoHeEn9WImeLsAjjz66j7K/r2TpKu2eI4ex2ClCzZAiaoUqaQxKT8bx+Vt0Vzuo+6Djc9kXtulJOF4AkmH1H3A2Q9vhSc9fXvjIb/JDy0clS8v7jw3gwfRBfAYvY6Zrgc48OMRcqq96stzzlKQUYe55bC+eNYwsbPExacBpnAJe9mR4MsrSlvAlsBZS/l65C/E7z9O/NUSwAGfYF8e9vXBq+gQodNjm9pNg3y/7RCP9RmOlwRkPuNZu6sfJ4+f5udDV8kGcO5OkMIDha8PXvLsWtG24pIzeUWpQIIFPhPms0qyj51nbuPso+Txof74yBuXpOxs3CVygx2wxwK30XP5wjWe735MIr3a/M2CQwAAIABJREFU/SjNySK5hg9NPp99k0jQXH/ssUAeHMnXfZKJjzvNz2eyKQKsu3vTt2d3/HwVuJn/wopx2/VGwVJTXwJKKLiWSZrOe1vm5kwPp5qhOGSVf9aus3Ydxu5H02jumDA2TRsT1fjzNGmFAfjJQOY1hLCkQ3UmOzQm1h0t8bCsuYJsXflh74B1Jyl9qu0rKinhsqrG4XSWSXGt8X6pFrXPzJIuNeqoIK+glMxWMocLdPHSCM95pF1rRMJzfxeqfy0teyiZPBASDMSfakeCC1DwKec3W2P27FBcrDRO7IOm4Flr4axI76Ss/NRrHO+0ngHBcizNJMgDRiAPGFHruPxfvuLE19tpqTx7HaR2dH0wgK4PAtQ+P0BF8XWSPnunnlj/RdyJ/oEM97G4WYGZnSd9Js6u8WBAOicXvtRitogAOR9sJV4xnyBHoKML/cJm0K+GNV4BCe/F1ppYEfM0m+S7iZykwM4MpI4KHp2g4NEJek6SaziFllGQOGraPUPPzlIu/7jSYA6JKupLQAmXd0ezRTfVinI6ka8aXv12G7qKuUOr/ZAexcLpi2oeZErX8h4nZ/lC9ritU2d8l3kSOn1xtXtaSsaPK9mSEcYiT0f9mpfCrUQvuQ+b5ZPpLQNsPXl06mwe1T3ubiaHP3yaA7rPhZaURWxZYcu0V4fg0RGQOeIbPBnf4Mk6B+rPYVKybifxA+cTZI+efkBJ6g9sSPZh7mhPwxejuaQsYss6J2a+OIhuHQFbT5RDPVEO1e0DwM2WH5cJS9lzrDeRAx0BS7r5j2Cqf813cF7CSlYbyukEcDqTWxM8a3yI83Ma4htQzv7Fa5C9O5NIfwfAAvvu/oyc7s9I3UNbaq0pJZZ562zZ+OLDyDsCtu4EDnUncGi9JdV8GcX3gxaoM61LnPGbEIGfzjsmN/E7kruOIqhbA+pL+JbPjvXglYEOgBVy/yFE+g+pcUhhwoeMWVwzBHBhzHbekktZNkmBzAwkjgpCJigI0fu+K0Ol5+cq6ktACWm7ZzND570d+NyLLFAaigxWu059dRi3H02kuWPC2DRxTFQRTdSFJ/HrZwcyH/73Pmuif2+JReja+A8axcv9OhvY68bgF59icLVfLv/4Ca+crXnU6JFPMcrdQBU2DzL5xQer/XCHxM++4Z1WWYUMI7yXZpZyO5n9jQlcte8s6SM88axcI7PFtge187NraD+mYlqy1/LrigX8HJvEHzkqSqtJmhUqFbevJ5G05R0dbYuWIkoORhD3r+38eiGL/GpvgYoyddnTH0dy7OvtLZiJOomsU+n8kaOipETHb6xCRUnOdZJ3reXgikiyshvwsBV8yvlVqzh5/Dq3i1Vt44dWuJWfnpvHlphkbuSXNmryUbBtLKsnL2VPQnqtsmV3S7mZcY7D21byzrSnWzwbdpnOxSu7W0BGYixb5g1nywc7WvjszceUruW9zRFOz13EzqPp3NS+IypKKchK5vsVE9n0wQ74U+14bpCUpex86mk2RZ8jI1fnXuTf4uLRHax+ZjAH6gukED+LLRPnsSVGU0/1MapS39MDG96uvSgAwFZ+mraU73+7RUG1d11ZbjqHt87jnZlzyWuNF0ZMJBvq6ENBVjoJ0RtZPXE4jVjDayKZZCx5ktUbYknKKqCkKf3/7m0++i6dfM3KVv5vO3j7lYaGrL5N1Gtv88SK7ziZmk3h3RojA1V+NmkJ37FikfG1LVoKY6J4auJy1sckkZFbjKrG/SimMCuVk9HbWThR38r6bTZNX8H6mGSyCstqlMu9mkjUitd44rU4shocbaic/UuWM39DHClZ+TXb8v/Zu/e4qOr88eOvAGccGaBBUCQuyigJqGCgYpmEiZpKm5fc1DbLLmZWurvqtqnbxewmu9vNzN20y27ar7z0jTJRUyms8cIKXsDbkCASKkJxERnRfn/MDNeZ4TbAiO/n4+HjMc6cc+YzZw5nPu/P+3NpQMZHq5gw/R3W646TX1znV+fSRQpz0tnx0SoefngdKY0/bJtzhM/RsmvC3pp/TZjtPbabnN8AFIQOeILB9i7idSi0zwQi1AAGMg680fAaQTXtXsRj6zKoaHhLAG4AfmtqAc2OHTsGwNixY9HrW7O7kRDtI+q9o0zQAsU6x+w+JYQQQogmGRH+Oc9EuAIGcr77K4/8ZG3FVtEgp/t4Y8oDhCqBcztZ/M3ypgUuACxj87HJGPP7etaPGsuibCtv14KiCiGEEEIIcU3ZcehT0koBFAQMeYLH2m/i1WucP4/dep8xaPmtiJQfmhO0gN9cbfXsi5k6VloJWkACFyGEEEIIcT25uoEXv91H4W+AUsvk0S8wRmrETRYauJC7tcaor/DA+7z4a9P29xsymXnvbGbTrIEoASr0rH/rRWx1kpavSQghhBBCXFdKf3mOF5P1xkkNPAfx5PBHrt11f9pBaLdX+FuMFgVgyN7Ii4d2NmHvmXy07xjffryM2XFa3J2Bily2vvIYixqYGk8CFyGEEEIIcd3JyH6Gd9KMyworAifyZGBjVxm6zrk8wp9GheN5A3BhN+989z6NmTuxnisVVBTp0X32GjPi7+SpdQ1MSENHmw5ZCCGEEEKIRiljS/qTdHJ6h+mVH7MwO7/hXQRUvs/Czf68G23gwy3L2NLk2d3WMGNQA2tbWSGzigkhhBBCCCEcnnQVE0IIIYQQQjg8CVyEEEIIIYQQDk8CFyGEEEIIIYTDk8BFCCGEEEII4fAkcBFCCCGEEEI4PAlchBBCCCGEEA5PAhchhBBCCCGEw5PARQghhBBCCOHwJHARQgghhBBCODwJXIQQQgghhBAOTwIXIYQQQgghhMOTwEUIIYQQQgjh8CRwEUIIIYQQQjg8l/YugHBMvkv3MSfazeJrRbrXSViypo1L5CBCFhL3p3sZ4lnB8R0r+WzFJ+1dIiGubyM/ZP5fotFYeq1Yx4pJD5LX1mUSQgjRKjpkxkUz6S3iV6TwTNLXRLV3YUQH4kf47Jnc0dMNlbsX4ffMJi6yvcskhBBCCHF96JAZF23cKKK1AL+2d1Hah60WyLr061n0+OJ6T+ctGcSi5h6zw/LDzbXm/5W4uFrbVtQy+2uWTdQCJeheG0TiduubRr13lAla6rSWzyR+w0Ki3Zv6xno2xY1jPwAv8fC2yQSZXjnyUV/W/tfCLvGf8szTERjzjZbLW1XGWscX7WL7gyTU+n6ae60IIYRwdB0y4yJE69CR8lkyOaXG/xUd/pKU79q3RKIJIr1R1/hv8OAlFjcLui2E6k6Sbmh6tXK5hBBCCNEoHTLjIqrlJC3gs502NijRt1lZOoSkWaxKau9CXI+2sv2586Qo6zwdPJ1ZM43ZEcvXejEl5ocaJZ0ADHBZAZ20AwlXQ3ppze0XEt2/9pt0krukEEII4RDkJ7mDqyxLpCi1vUshREvlUn44l/K6T2smUWl62Ohr/ZKe05e0BLmHEvUHP9JX5la/NiOaYAWQl0uOrx8Bdim7EEIIIeyhQwQu1f3N69IyYdtRJlh4xfbMWKH4PrqQu0YOxN/T1EoLlBfqSd++lm/+/UlVZamKeQxIsY4Vkxbj8uyHTIvxw80JSo6vZ8WcxZSopzPktXncFexGp6sV5CS/yaqX65ShaiyAqe+8Op6gxx/irqFafN2NLcGXSwvI2LmSjW9ZKIfDaca5rOqjbhpf4LyKWY/HEKAGSvVsenYc+zP98J6zihl3a9E4QUlOMmvnzqrqxmU/tcdF1NaI8Q1VY4PMYyVC8X36JSbEhuJr6rd0+VIJp/d+zmdLX6/ODtRk4ZoI++PjjIzW0k1hOkZxARmNmeXMwvXE1QpKzunRbfiAXV8kWt21aqa5qrEn1d9tkKfp2izOJXX9mySus36cduNsvuGd59gJP4IilQRFzUPFfFNA5EfU0FA6ATlpyZzznE5AZ3DpHA3o2q/cjqjqmoSS1Dd59ZmV1rftmcCsf483BoE5X/HSw/NrB6ABMwm7fxTRIVp63OiGqnP1S+XFBRz/8XO2vfcmRXb/2zZp1Pir6vuA3X87rIhZvImEaaG4U0Fu8hvMmL2G3IZ3E0KIDk3GuNSlnkncf9YxZ0o0QTV+eABUnlqipyzhhXUfEuRl4xCzV/FArDFoAXALnsyU2TGEv7aQu4PdjMd0UhIQO5cJ8TbKErKEaf9ZzsOjQ6srmUAntRfh8UuYt3RmCz5oG7DDucTzJR5+2hS0AKi1TJj7Em6PrmLWPcagBcAtIIZpi2e30gexE9Vs4tdtZE58ddAC0KmzG0HDZzJ3xUuoGjiEc0QCD6xbzrTh1UELQCd3L8LvWcL8521cE1auJ5yUuPmEEjdnOYtXJKBRWz9ElTrfbXU5/IieuZy5Sxzw2gzyrhq7krUv01h5DoggsqfpyZ7ziNQC5HJk0xkqDcan3TxD27qkju8/Oo6Yz0//OMJsbKqZFl2VucpJX18nazaT+H8uZFpsBEE+tYMWwDh73+jZzF/9YfU9wFHZ435ndlsCf/tDKO7OgLMSvxHzSHiilcothBDXkA6RcUn7xwL0NZYcCX9iOXEBALlse+ZN0i3sU3n+gIVnY4hKmMsdPkqghGOJa9i0diUlBeASPJvIuTO5O9gNvKJ54JUE/v7ofAst5L25a7wXKoOeL1/7Cs9H5zLMB7yjl3CXr5LynK18/JGBuL+MJ0ih5OahMyHRUuudljEJWlQK4FIB6cmfk7IzC5dbphN/TwS+CtBEz2Xa/VtZ+19HbIezx7mEoPh4uikqyEp8nW0es5k13Au8o5k21g+VIZdtKz6gcsIS7uoJbn2GEMBKcuz6Odby2TN7av2hVF9fTeFG+ONzjd+noYD9SZ+zZ3ft71MVHM+Y+MVsspqs8CNumemaKNWza8NX7M8sxjt2GhNHa3EDNLdNY1jPNaScqrOreibxz08nTG18f926N9j+xXrKS/1QDXuIkY9OJtpXiSp4PA8/m0HCs7bW6fHjrtULCfIErpZwbNt/2b4zC5dbHmLKlFA0QLfhVsrhKDYkc+T+CKLUfoRNiCbln7rqCnZOGqmnYGR7l9GRlS5FlzmZsHAlKEIJn+HHkY8s3YcmE9XfVFM3ZKBbYzlzdbkwl4zjGWQfy+R4pvE4biHjuWNCDDe7A57RPPDyQl56+vXW+TwtZp/7XZU+3tSeFE2Ju19rll8IIa4NHSJwqTyeSFGN/5deXm56VEFpau3XbFE9vYQJWiVQwf73JrBpQ/UPceXxleyZk8jPL29i1iA3OvWMY2Q89SuZ7l50o4L9781iz3e5+MbNZJiPG26+fmDQs2np0+Sc8uPwH8YT1BPcPC13QgKMFdQCHaufepCsAtOTqYmsyPmQ+fOj0aAkLHYeqv/Or9/338TFNR6NjbVGKrMTKSmw/npz2eVc4kY3HyhJX8nqtz6BkXEUDfdC424ce5C1cTG7Nuug10Pc1dMP3L3pBnYOXDIoSc2o9Uz19dU0KgVQmMZHz9/H8UzTk6mJrDBs5Pn7Q+mEEm3kdEi01t1LiUoB5TlbWTX3ac6bZzdL/YTVqhTmDfcC/AiKg5R/194zaPFcoj0Bcvlm/khSzO9PLuUpS0lM+Y5z/17F3T1BM6iBoMPdz9h1zsJnWeWRwjOjrZcDwMXb9jWp7mT9NftZSfqxx4mKVBIQMQ0V3kSFGCvYWfvfoJxRbVGIZtP0CW9aBsJQyMkjpymzYxmykjMpCTdOjBAc+RB8tLT+RtFxhJrilvLM5DoTIQBs5ZtZW0ksqB/0FKUm8vEXM4n/yDi1sUobTRhwxI6fwV7sc7+r4cNkMh6PJto8/3yFngNft+YnEEKIa0OHCFzsI55hg0xNWjnb2LLBUuthLjn/+pGcQaMIQElYzFw2Jb5ZfzMr+5/TfcD+U8bjXLnSiCIV6lj16IP1x20kvYduWjR3+QIBIQSDxawSQMDo5cwfbf0tsjYmstpG9/TmseO5JJeUdyw8X5DMlytNrbdXK+xV8NZl0LOpZkXf7KMMTt8fShCg8QmxfYxCHR/XCFrMzv940hjUAd0CZgI1MybVM2WVpG6oEbTUlMyeLWnEPR6BiuosRFM/S8nekxSNtlYOADeiZi5vl4Vhvbt3q/X/rC90nIuMoZvvLQyLVxLqAxgy2P+f2terxtt640J7mfjUMiY0pVjF+0mY9jy77FmIxPWkTovgDi/oFBJNlBr217kufcfdgvGsV3Ak2fLfd6WthpPSNaRmzCY62g0Uyga7UrYPe97vzNYw45EKli2czECXXLaufY03drdG2YUQ4toiY1zMesYR5GN8eE6fbDWDwak08oqND1VqbwsbVLB/s4UMiCGDXf9c34QClaBbYyFoAUBHVo65o0E3fIc34bBtwW7nEsrTEy22/B/ZspTzLS5o28raPIv9FoOGLM4VN+YINq6J7bnWM4uTbiHINB4m57CNKDUpl59ND22P6yhB95aVz/KdjXK0s07OdZ7QbSOjAMCLyJnRdAMu63WmrEBG6w0G7zDWs/+QOerQEjkzus7rsxnSz9SHt0BHigPO12AXdrzf1XL4ExY9MIGx057ija8csTuwEEK0Pcm4mN3sXrUqfLfY5SyLbUR3IG8/fMG0sreZgcpfLWx7qbheK3mDbGRl8vLOgWmosYvC+nZZG/u2QkalAXY7l3Cp3FJP8BJKzlyDP+RX7VDmxmTq6vLxqmqpDptxlGUzGt7FdpbhHD8nWfssi1kdt9jGvrZmbjKyPkugnVTCZcBY8Z7HHbFeuKmN3XzSt5nHUOi4ZLUG2v5WPz2e1e1dCKBorY6cWOOMYQGR01Chq664T4oxjqkCzh36ykZDgx+aexZyR/xQwrrVH6Dv8Ox4vxNCCGGbZFzMasw41GilxQ7butyu5Fw6FF8fjybvU156reWzGtZZZYrwi3KrKtFFa3XVY6JKM0m3lBVw9a6qmIo6Tr2Bzpx5872FYTXGLoXFRJgC5lxS11pLt8QQteJr5s8ZRVTANRi0gNzvhBCiDUnGxexcCeWACsj6YiSrVzh2i76qc90lxB3INXYuO7qiwl8xZudK0CUMIjGpvUvUPjzVFv5mTq3nSM54AgLg3P/Wk2Vpxy7GsRVS0bQkl/TUDCaEhNIJL0LHTmZb6npQLyHclDW7nJlsdaIH3+cTmBBs/F7K89PYsm4laZuTa611UrV+kKOS+50QQrQZCVzMzl/iEsYfH++bRlF/ULFj6XGTuY/0r5xztLXxrrFz2dGVl5onL3CjW28/sNrN63qkI+XhvqS0dzGa6OG3vmr/wflmH20j/Z5QotTQLTQOb9Zz/g/RhJkSXMdTP7Cy41yGRJoCktI01s6+jyxHHVektpEKkvudEEK0mQ7ZVexy1TgAJc6NnTL0uwzyzAuqhYwiyKEXO5tNuNbUepyv57ij/dg76rnsN52EDbvZd2AfuzckMD2wvQvURv6XyznTw6DBC5vereU6VVh6jcxW1+5WsuewaSya1y1Ej/QjypxuKU1DZ3F9FwBvPM3xwNmTVoIWP9QqG4P47KEqveOGppelDWKISojDapzYWve7EbN5e+1mNq99m3njZREXIYSADppxyTlTAMHGtST6zYhhz4rkRuz1OrpD0wmLVII6gikvL2HF00utLxLmFYpLQUatLg1tw4+ApTOJMv04Zv3wgQN2YXHEcxnNsuV/I95c++gXz1/ePE/yPa/R4fMPqR+QmhPDXQGAbwwPPDuTFS/baBX2CoWCDOuvX5Nm0qMREznVdKncACjB3dvhBlJvfHsR+5u6jkurlQbyvv4f56Jj6IYbQcMW4uZvfL7o8FbL3e/q8vDGG2oP4FfHE770b0zp18rdYo+dpwgtGiCo/xKg5no0MQQnJJjWaLGmNe53k/nX0nnEeAFomd1Pi3fRWBbJlMhCiOtchwxcinYc4VxsDN2AoHveYo7/NrZtTuZ8jdXXKs8foCSndpU166NEsvpPJkgBbiHTeWZDNLofdaTvTDP+CHWPIDhUy83hYQT5nOOruHHsb7VP4UbQmASCDYlkfWfs811rBWagXL+ez1ba7ifW0AKUlOgpOl63khqKW6S29sXh3bnq/y6dvNBExle/VnGeosO1y+FY5xIgnoF1mkyVN4XSYMeOgFFovGtXWqoXSFSijoyvNXC7tRb0bBkdKZ/piDYtWuobu5DF/cezZ0cyR/6XZeyf33MI/jf3JiI8hACXA6yY9KBDVdTtyb4TD9S/BuqydK9pqaIT6Y7VYKH7gNS8GO7yhW6DRqFRABSQ/rWtv6496PMnG6cS9orh4RVvsfH/beM8QQTHjeL2wVo0jegT4BIcj1utNKJXjXtXZzSR8TWmKK7g0rGtlNfM7ny3B32pcR2aTiGTmfOqksTP91DZM45hk2MI9zLOOFduMC4Aa4n973cD8fOq8V+llugp0bDb0foFCyFE2+qQgQu6pWzaHcas27wAJb6R45kROb7WJkW610lYUudHNXMxq9/yZs6TMfh2Bty1RI/WEj16uoU3OWeaUrX1dAsfz4zw8RZfKz+1lVXzF1tv1TNpaAFK9OtZ9Hjd6WunMeXVyVa7RrhFzmR+zWCoWMeKSbraFV0HO5egI7dgMtqalYGi8zSUV/B9dJmNgcF+xL26nLgaz7TOgp52kPQgq3w2MmtaKBonUHmFcseUUO6YYmHbQtrg+2g/lqfYbq7610BdFu81HY6O1NRc7vL1AwV0AsjRkWKznp3Irv9OImp+NBrALXgUM5aMqr3JpVy+2VbMHfGhVhefjPjTcuvTZ7tHMO3ViBpPlKB7bWud6bhXsmXzeMKmaFGhxDdyMrMiJ1e/fLUA3TufwINzibbWa83u97tEDpyIR9unutHEXRMKSOAihLi+dcgxLpBLzvP3kbBiK+n5JZRfbcKuSbNYMXUBq5PSyCms4HLNfQ0VlOTr0SWuJGHqOKur1dvLZUOdJwwVnMtJY9uKBbz0aP3V0x2OA51LSOTFdxLRm5upizL45NX511U1oOSjiSRMX8omnZ684opalafLl4zX1q6PXuelhx+85hb3bJgXbs2eatfDdtZSAFC+JpkjNe5ZOenrrS/GaJb0IAkvfILuVEmt+0N5cQHpSStJmDqSlIxiLrVGgWso//c43vx3MlmFNf4urpaQd/grVkwfRmJiI8Y72fV+p2PRnE/IkGFWQghRyw3Ab83d+dixYwCMHTsWvV5vrzJd32Z/zbKJWhqzUJ8QQoiOa9k3x5hsSn3rN9zJ2Gc7/Ig8IYSwqYNmXIQQQohrWOA8tD6mx1cy0K2SoEUIITrmGBchhBDiWhQYzeRJ05k5dRTaLgAV6L94gxez27tgQgjR/iRwEUIIIRzAzI/38Zch7jWeqSB3y2s89mxjpvQXQoiOTwIXIYQQwoFUXCwm99BW1q9YyZo90kVMCCHMJHARQgghHMCaBwbZXldKCCGucxK4OJqV41jkiOuACCGEEEII0Y5kVjEhhBBCCCGEw5PARQghhBBCCOHwJHARQgghhBBCODwJXIQQQgghhBAOTwIXIYQQQgghhMOTwEUIIYQQQgjh8CRwEUIIIYQQQjg8CVyEEEIIIYQQDk8CFyGEEEIIIYTDk8BFCCGEEEII4fAkcBFCCCGEEEI4PAlchBBCCCGEEA5PAhchhBBCNCg08G0+HfYEEQ3WHEJ47I7PebdXOOq2KJgQ4rrh0t4FEI7Jd+k+5kS7WXytSPc6CUvWtHGJRIuMfIBNf4m0XIkoTuWVSR+zo0kHdGHYnIeZNaInisKDfP6PdazPtEtJbRqxdCl/jXYHfmJ93Busav23vLZo7sNv/CgCA31Qq6pbpiouGihNX83erxLbtXjXhhDcR82j7yBPrp7cyaHP36XianuXqf2FBr7N63doUaDlb2V6Jh5IsrrtmP6LmRzoCoEv8PrVv/JEdhvcHBrkSoTXIzw4aBi9PV1RuADoWf/RU/yrvYsmhGi0Dplx0Ux6i/gVKTyT9DVR7V0YITqi6Ht56p5QfNy74NkzmodmD2vvEl33XAa9zR1/eoD+fX1wV9W+uSu7KOjq3b3dytYmVKPpOuoVIuZ9weDxsc0/zoBHGBLjT9curngPGE//EeH2K+M1Sn3jC/wtRosCMJxO4h/p1oMWgC1HPmZvIYCC3jGLeelG17Yopg2ujOn/L14fN5rQbuagRQhxLeqQf77auFFEawF+be+itI+RHzL/L9FoGrOtfj2LHl9c7+m8JYNY1NxjCsez/WMmbP+4xhN9WLbhSQa7N/N43ioUNf6rcFZY3VS0Aa8FRNytReUEXDWQn7oV/Z7dXLwEdO6NR08/1E5n27uUrcvzVoJjwrkR+OVk8w/j7KauFfR1cr7OOzspHuH1MYPwvAEo3Mc7u94kpaEM1NUkFif58+7EifRWahg85lUe2/gU/zK0RYEt6DKPB28x/XqV6Ply1xusLdRT2E7FEUI0X4fMuAghWlni//Hl4WLj49Jcdnz5XfuW5zqnih6MtxOAgdzEv3Lgi3cp/jmdyqJ0Kn/ewIUf3yR7t3QTa4wrP27k0KkyrgKVFzLJ/GF3exepHYXw2K3j6a0Efisi5bvn2NLYbnOG91m4ZR+FvwFKLXff9gShrVhSW4ZpQ/EEoIiULU/xjgQtQlyzOmTGRVTLSVrAZzttbFCib7OyiI7kAh/8cQkftHcxBABdvE1dcQx6Tu91hPEE17CrSeT9O4m89i6HA1D7PsLdgcZsauGB93mxiZ0YSn95nQ8PfcifBriiCBjFk/6JPHH6dCuU1LbQrqZsy7k0vrzY5m8vhLAjl9///vccP36cAwcOtHdZRCuoLEukKLW9SyGEaD2xqLuaHpaVUtGuZREdRyzPDA4xdgktTefzI7ZawKwpY0v6Bsbc/AChSgW9Ix9hxOnnmjgRiB2VF5HWXu8thLALl8cff5zCwkKWL1+OTqdr7/I0S9R7R5mgtfSKlgnbjjLBwiu2Z8YKxffRhdw1ciD+nkq+q9T5AAAgAElEQVQ6mZ4tL9STvn0t3/z7Eyrr7mIeA1KsY8Wkxbg8+yHTYvxwc4KS4+tZMWcxJerpDHltHncFu9HpagU5yW+y6uU6ZZj9NcsmagE9m+LGsV8dT9DjD3HXUC2+7koALpcWkLFzJRvfslAOh9OMc8lM4jcsJNq9BN1rg0h0XsWsx2MIUAOlejY9O479mX54z1nFjLu1aJygJCeZtXNnkVPaSh/Dy49ps3/HXRG98HE3f4rLGArPkrH7a95ek2H5vatm8ypm72tLWLRdxYinH+Ch2D74qE3HuXSBnL1b+ftSHRmNKIrniBH8eVI0oT27ozYPLbl6mdJzJ0j54ms+2JDbKt0gqmf0qq9U9w4TlpxowtFUjHj0Xu4d3oeAbu4ozJ1WLxWTf3I//7duK+v3lje9kOpQlq2exWBjvxAK961h9rPp0i2knlgC5y8gVAOc3Mg3H7xvcSvV+M+5Y6groGfvoqe4UPPFm15g6BODuJEyMt69l+wzGlRDFxMWE0JXN2M/5MryIvL3biRz64ZG3Ks0qG6ZR+Ctofh2d0VpuiYqy8soOpHC8e0fU3yhyML713fj0AXcNXSBhVcsfA6g60ObGdzbcqlyvhjLkX0NFt5IMYgb73iA3hH+dPVQGPtiX4XyC6c5vWcjp/YkccVSVyu7n8uWU980nggP4+OctHfZ0NyZ1a5+ytr0Ubw02Ac8wrn7Jld2nCmzWzmFENcXl06dOnH27Fny8/PbuyyOQT2TuJVzucNHWe8llaeW6ClLiB4Rx+qnHiSrwMohZq9iSqwfKtP/3YInM2X2Nvb3W8jdwabjOikJiJ3LhENr2GSt63nIEqa9PJ2wOmNDO6m9CI9fQoC30rGnJbbDucTzJR6eEUOAuYKu1jJh7kscSx3IrHu01ec4IIZpi2fz6jMr7f8xRk9m5dO341Nv/HknFJ5+RMTPYnXscdY+u4IPbPXSUYWzbN1MBnvVeb5zVwKGT2X5ii7MnrODHKsF6c5DS59kWj8LwYNTJ9Q+oYx53A/PX5ewaHtjP13bU0eM4OUlvyPEUgzU2R2ffiOY9RcPCps6RbM6lL+unNnxgxZVCC6da16M3XExB35OCjppwrlsYbffytK50lqDo5XxBM6bTah37addVBr8Yh7Gu7uG5P+8zxVr+2seIPjh+9BamP3DReWK94DRePt7sivhOZoRzrYN/wUMnBGLj6rO806g8vYnePxcet8+ij0r/8wvJTaO09JzaReuTOtjyrYYMkn5qWXdu/ae2E/OoPEE3KAg9OYZBJx51/p9TgghbHA5ePAgr7/+OqdOnWrvsjRb2j8WoK+x5Ej4E8uJCwDIZdszb5JuYZ/K85a6xsUQlWCuaJdwLHENm9aupKQAXIJnEzl3JncHu4FXNA+8ksDfH51P/d+f3tw13guVQc+Xr32F56NzGeYD3tFLuMtXSXnOVj7+yEDcX8YTpFBy89CZkGgp+NAyJkGLSgFcKiA9+XNSdmbhcst04u+JwFcBmui5TLt/K2v/m9uc09bK7HEuISg+nm6KCrISX2ebx2xmDfcC72imjfVDZchl24oPqJywhLt6glufIQSw0r4/iCOnsnp+tGlg50UKD+v4fFMq+jLoHhLN7ybcTm93QB3MtOcf4OeHP2aLxayPiojHZ6JQAIazpCUl8X+7z6K+ZRTT7wnHRwGK4Dieit/BAouBbFdmJSxgstaUpblaTM5eHd9sS0dfBq49g7l9UCQRA5s7TVjD9v77HRZ+0an6ieBR/G1mExeYCxnF8mXj6G2udxf/xN7k7/lm91nKUKG9JZwh0eFENHUiJ3VP/vzmTEb4GMvXYYMWQHXni6YsiAUe4dw23/L0vU3KHDRJJ7TTZqNUAeX5HP32a/KPnsS51330GRuOjwqUfUcTEPQ+P2VZ2N3tEcLmTCTAVOG/WnSao7u3cu7oSS6jpkuvW/EeHEFQlzr7/fw++xI2Vv/f9z6GTAvHHSj+38fs2WGpFaHUYrbiwvq/sq3miM8BTxA3yr/xp+CmRQx97DZuNM3qdv7wTo5/t4uLl6DzTaPwGxNLLw04eYQw5NEX+O6N5yi3mMFo4bm0F6epRASYHv+cyfqWrmNT+RF7c8YTEAj4hTDGCf4la+MIIZrB5bnnnuP8+fPtXY4WqTyeSI0OBJReXm56VEFpau3XbFE9vYQJWiVQwf73JrBpQ3VAUHl8JXvmJPLzy5uYNciNTj3jGBlP/WyJuxfdqGD/e7PY810uvnEzGebjhpuvHxj0bFr6NDmn/Dj8h/EE9QQ3zyDr5VEABbraGYnURFbkfMj8+dFoUBIWOw/Vf+dbbYV0cY1HE2n9M1dmJ1JiLdvRAnY5l7jRzQdK0ley+q1PYGQcRcO90Lj7EQBkbVzMrs066PUQd/X0A3dvuoEdA5eu/PkP5qClmL1vvcyixBpnOnU9W/67k1nv/dUYUHhGcu/ML9jyVrGFY3UyBi2F6ax6fk31Yo2pa0gxzOH/3R+Mgi4ERPaBxPpdrgJm/4G7zUFL3WMApOaSsmEHqFWm8tpfac5ZDtQ8uZqmdlhxZ9bcUVVBS2H6Ol6YX7t73IHUE6z/93rUXnWbrW3pyqyEJxkT0Kn6uK0WtGjQDgxoUrBWcf4kR3M7ctcYBUoVXL2Qzo///ivF5haIonQOVP6duN+H4IIrPn1u46esujN0+dN18viqoOWX/61m34baXaGKi3ZT/D/QK+qkY66eprKoRiagy0TMdeGrFWepLLLUZGVFSXrtgOZiU1JTIfjEm4OWIo5+8CQ/ZVX/6pQWpXP08Fecf+gVBvdW4NR1EDcP9Sdtt6UsRkvOpR111RJwg/Fh/pkkWt4Dt4wtZ/KZHOgDN/jTuyvQZtUOVxQ3tNV7CSFam8u1HrTYTzzDBvkZH+ZsY8sGS1mMXHL+9SM5g0YRgJKwmLlsSnyz/mZW9j+n+4D9p4zHudKYPH+hjlWPPlh/7ETSe+imRXOXLxAQQjBYzCoBBIxezvzR1t8ia2Miq+3eu8qO55JcUt6x8HxBMl+uNI3JutpKw5FHjmOYr/FhafoXvJJoKTy8wKpXdzL436MIAAIGjWIg67E41YXhJ9bXDTiA0o9OkHN/ML0BT59eQN3AxY+HhvcyrZtygR3/rH+M6oOVO26WIXocI8zBV/73/H2+9TE9pQWN7RDUtTpwxHIwZF8Tmbt0AtabG+or25vA71/cZbcSlH91L998VfOZGuNViva1T3eqcj37a1a0zQ5mkvf7EAKAG31DgDqVba8H0Joi2atnd/K/DTbGbxga2wTVxm66j16m5Exp2sZaQUu1TC58upWfnx1PDyfoEXkfh3cvt/xZm3su7Sjgxu6m+00ZOeftMwtYzi9nMeCDAgU+XuFwvgmBZYuMIcDUPbe0SGbRFOJaJ+u4mPWMI8jH+PCcPtn6D/+pNPJMDeoqtbeFDSrYv9lCBsSQwa5/rm9CgUrQrbEQtACgIyvH/KvWDd/hTThsW7DbuYTy9ERSLPRiPLJlaas32A0c3NPUsl5MxrZU662Op5JIM5fRx4/BVjbL2fwOqywGHD9RaClJYxYZTW/TD68hcwdvX5tzaDBwRB9TNugymdu/YG+Lj9iVh96a34ZBi7Amd+szXLA4bkNPqY14wyVCi3FCNAPZu969JmdEcwnxN00QUEbu3g3WNyz/iDPm+0T3ADysbNbcc2lPvbuY+16XcMFeE56UFlY1qqgVrZUXrsmVgM6jeXLYfUR0AX7LZ++J5syMJoRwJLKOi9nN7lWrwneLXc6y2OU2NwfA2w9fqDPfv4FKS3PdXyrmfFN/AGxkZfLyzgHGHxcXG4uWZ23s2woZlQbY7VzCpXJLv+AllJxp/XE9IT7m8SIXyEmytWUlR/KLubunO9AVn+GAhfUYDVebORfQLX6Y4kAKfzpoh24b7WPwTeY5ewvJTm7pvEhd6J0wj4gQ48CHtgtaVvP0+NWt/i7Xmqu/Na8rnEePqiubX05cm93p1N7mSng+xTaTE2WUni2DIFfAE3V3uHC2/lbNPZf21NvNPIaqjDJ7TWFWXlR171K4drfTQS2J5aV7FjC4ZmT4y2m++f4Z/ilruAhxzZOMi1mQN24Nb1VbaXGjx89cVzrIuXRTdGp4IwsUNgLJZqnRvFB6yVZqxsE5mx9cpLTFc4FcxlAjladWt96kBKIVVV3bZVx22OnCbHPu3Jw/eIVjNxs6ctmawwW6Kps2Nk0I4Zg62u2p+c6VUA6ogKwvRrJ6hSPO1FVN1bn+FMMO4xo7l/Z1uc26c1zfLpOz5A1yTONbFNpxPLc0l4eXZFyzGSlxPSnhsgO3/p8sKoNAV8AVVxewy8IxLq5VgYOhzEKqyW52sviLnYArAep4HrvtPgb7+DN41GL+lngvCx12EKAQojEkcDE7f4lLGCvb3jeNAhx4fRSgx03mMSG/cs7RxjxcY+fSmhPni0Fr7P4VMBqw2l3MhTBztzLDBbJT7VyQrEJK6YUaCNBGAvZ+g7aRXWg+n93pPQmwMRygcS6wav4aAkwLTnpGz2L186t4+PnWDF4e5q2v2ndwfptq5Zz8xQtl0NsV8OfG3nDhZOu+X2u4eN78GXxw94cLVruLuaLubuqCZSjiogM3cBQaSgBXwI2uauAXOxxU7VkVuJRebIsvuoyc0k9ZvE3BG7+/j1CFK6F974MfPm2D9xZCtJYO2VXsctXYECXOjc0Nf5dBnmkGTLeQUQQ5dE55NuFaU8YlX89xR2tidtRz2W86CRt2s+/APnZvSGB6oO3NdxzLx/gx3AmNtbw2BgAh4xjc0/T49Am+tE9pq+3Ox7w8rEIbzmRHOZ9NlHLavF55F3oPjbRPt43SDBY9/zUnTdeb520zWT67q+19BGCgau5gTXcs5m/9XyBikJX1Yuyk/Od8UzEU+IZPatnBKqunMHZysnd/TevKT+WYEhKu+EXGW9/Q7RFuMt0nruZk2iUWaC1pvxaZ7n2uBHg3YT0bGwK8/U1/8wbyf7HPTGWNcnUDJ003UIXiGr15CiGqdMiMS86ZAgj2AvzoNyOGPSuSG7HX6+gOTScsUgnqCKa8vIQVTy+1uCgiAF6huBRk2CWD3jR+BCydSZTp/pv1wwcONzbEMc9lNMuW/414c1N5v3j+8uZ5ku95Dasd2f6bQsakYCLUoI6czLLRR1iUVKeU6u48Nfd20+D5i6Rt22H/1v7SHXyfOYreIZ1AHc5DCaPQz9/KAUtvpFbhSTmFjhbMAqX/2U/m+F6EKEAdPpXlc3JZsOKsxfOl9lJBQXnjzmXmVha81ZXVf4rG06kTvSfOY/mFN1jw2YWG922yjby5ZH+T13FxPLspPQ90BbqG4u0FuTXXc+o+l4gZg4xrk7Sm1N1kj9bSSwXqW/5A2OmTHNlrZZpchcb2lMhn9RQZbuNGBbgH34rKKcnKIo92dngXJ0tC6OsG6sj7CEzdQfbpOgPsncLxnhxLDyeAMk5+v64NCtYC+Znk/BZC7xvA56bRqE+838L7mitjbjJNxGDQc6BNV2Eow/BbW76fEKI1dcjApWjHEc7FxtANCLrnLeb4b2Pb5mTO1/gtqTx/gJKc2lXWrI8Syeo/mSAFuIVM55kN0eh+1JG+M81Y6e4eQXColpvDwwjyOcdXcePY32qfwo2gMQkEGxLJ+i6ZSuqsOA+U69fz2Urb/cQaWoCSEj1Fx+vOxRSKW6S29sXh3bnq/y6dvNDUbFmsOE/R4drlcKxzCRDPwDr9e5Q3hWK7I1s6H2z9ieUTe6HAncHzl/Kf2BT+b7Nxtfrut4zg3jGRBJh7iR3fxtsbWiP8qmTtyq3cnmBccV6hHcfr/4kic993bE46xVnAtWcwtw+KJGKgOyeXL2HR9tpH8Az2I7DWjAldqW6TdsEn0o+BVf+/zIVjZ+tMxa2id2TX2pMueNe4Qjp1ZWBkjdHVFcWcOFxcu7JTmsJ7X0WZzmcnet/zLP+JzmBvko4tmRcAFdpbwhkSHU6E+gSv/P5jdjTyDJUmreNhOrF6fiSeuBPx6DyW/fpC/UCzxYrQH3C8poLm+CXrNFf7+uOEhrCZb3P1i085d16Nx20T6TvEH3cnqCg3oFS1Yvbi6qecTLoN33u0KFEQ8LtX8BycyU+7tpJ/Jh9Q06XXrXgPjiCoy0lS/mFrjZpE8k/cR68wBWgGMfxPb3Nky1em45iVUll3LQ8nf1w86kzP26X6M3fqEo5LzbUvK3OoLKl5DSRy+ttR9LpHi9JJQ+hjn+CZuhX9nt1cvASde02k14hB+JmOUXE0iVMn23/mMJuuJpGRO5He/kDAIB50eZ93WvKn5DSJ0B7Gh4acdOqtNSyEEI3UIQMXdEvZtDuMWbd5AUp8I8czI3J8rU2KdK+TsKROlTVzMavf8mbOkzH4dgbctUSP1hI9erqFNznH5dYqv0m38PHMCB9v8bXyU1tZNX+x9SyGSUMLUKJfz6LHF9d5chpTXp1stR+/W+RM5tcMhop1rJikqz2VsYOdS9CRWzAZrVeNp4rONzh9bsbKd3hbs5CnYrujoAs+kaOYFTmq3nalhz9n0R9TyLFwDLvI3MqCV1S8+ZcRBHQG1N0Jib2XkNi6G1qedezePy1gstbKsd3DeejVml3hitn7Wt3g53b+/Oo4els5hDpyKq/XuiZSeWVS/cAjY+U7vNL5j/x1rB8KQO0TyogZoYxo3MewqTTpY14I8qwONJ9+klk5b1hZO0dc2f0pR4csILQrOHloCZ+xqNbr5Ue/IuVYCHG/s3bh2EflvmfY3fkfDB3lj8oJ1D1C6D81hP51N2wwXizjl8SvyOk1kYAu4KTR0n/q3DrH0bN30VPUysX1eIRBTwwyrcVSX49Rr9Cj5p/8yY1888H79T7Djx5vMzTWB6WTAp9B4/EZVP/eXXzwU/b8v49tzXTvIE7z4bFMxviHoLjBn2E3D+KdI/uafbSAXrcRqgAwcPLUBplAQwjRbB1yjAvkkvP8fSSs2Ep6fknTugskzWLF1AWsTkojp7CCyzX3NVRQkq9Hl7iShKnjrK5Wby+XDXWeMFRwLieNbSsW8NKjTzd9XZi25kDnEhJ58Z1E9ObKT1EGn7w6n4bnNahky8sv84dFn5Ny/CylNb+Tq5cpzEnny4Ql/OGPKa2+hkhpyv/x8NSXeTspnZzCixhqnc+LFOaks2XFO7yy3eohHEAlKf9czu8XrGFLai6Fl2qHrIZLF8hJ3cHbS9c2OttSU8bKd3hbZ4p6FL2YnDCPWSEtL3XHtJPsN5ax/2A+xTWu64rzpzm09q/s+s+7VLZJF5syKr6fxa5/rCR932kuXDRQ89KuuFjEz/uS+H716zayLSYl73Nk+XL2/lj/OK2rjPLtM9nxj485dLT2+bx62cCF0+nsf28Wu//fx+3Qvbh5Ss/sIsP0G+PZ/z6mNre24DSJJyNM42Qu7GPtGQfPNgkhHNoNQLN/mo4dOwbA2LFj0ev1DWwtGmX21yybqAVK0L02iESHroQKIYToqAIC3+bdO7QogNKDb/LAgaQmZ0sGh6zhpcE+gIGMbdOZl9f2gctjd2xmciCQvZFRu95vcHshhOPqoBkXIYQQQrRETva7fHvG+Fjd/wGeubGJs8x5LOJPg4yD8g36r/hHOwQttbh1Z1j7lkAI0UISuAghhBDCgkz++d1GTlYAN2gYPOZVHmvsXA1Oo3lp+G143gBU6PlS937rjQFsQM6vpoDJM5QRXdqpEEIIu5DARQghhBCWGd5n4ZZ9FP4GKLVMHv0CYxqqOTjdxh/vmM1gT+C3IvZueYZ/tePgni3ZJ01d3DQMG/M2T3pq8WxgHyGEY5LARQghhBBWlf7yHC8m642LUnoO4sEwW1NVwpjwedzlr4DfDJxMfonFv7RzF7HCl/hXmmlmFjctd8e/zaczNrN1xts81r4lE0I0kQQuQgghhLApI/sZFn+np1C/kRcPJdncdkv6S3ypL+Jk8l95ItsR5iMvY0v6Yyz8OomMc2UYrpWp3YQQ9cisYkIIIYQQQgiHJxkXIYQQQgghhMOTwEUIIYQQQgjh8CRwEUIIIYQQQjg8CVyEEEIIIYQQDk8CFyGEEEIIIYTDk8BFCCGEEEII4fAkcBFCCCGEEEI4PAlchBBCCCGEEA5PAhchhBBCCCGEw5PARQghhBBCCOHwJHARQgghhBBCODwJXIQQQgghhBAOTwIXIYToaLz8GPm3ofTp0d4Fuc6EhXHvogF4qdq7IEII0TG5tHcBrjsuvsQuiyHEBc7rvuDzz8ubfgz/vtw7byDeGMjctIGdKfYvZlvQTB3L1CgP4DRb/pxCVjOOETR3KmMCgJKDrHv+CEV2LuM1IziMqbMGoAH0m9eR9G17F0i0Gy8/Rv/pdrRKCJ5VRsHzBx3478KP0X+/Ha3F15p/X2gXrn6MfGAA3i4wZcEV1r18hKLK9i6UEEJ0LJJxaWPOo/oQ4gKQR9rWZgQtgFdsH7wByrI4dI0GLdceFT53hzHyL/E89qRfexfmGifnstW4uBP5hDFooSKPnR84ctDSwZTl8v3W01QAeAxg4hw/lO1dJiGE6GAk49KmVPQf6AtAhf4EJ35txiFcfOkfpgbg/KGjFNixdB2XM+6xfRk8OJCbPNS4Kp1Nz1+h4pKB4sKz5Gce4fvNxTaO0ZXwmAHGluGc1i9xx9aCc1kjs9SgnO95983cJpfu2qUgaE4cQzwACtnzSTKZ2e1dpobkkvTndbWeqcqiXoMqvk1hY7fRTI3yRBlwO3dP/ZrP19m6rwghhGgKybi0pfC+9PMEKCVzd16zDmGPjM11pYcvtz8/ifvHDyC4m0eNoAXAGWVnFd6+Penfx73diiiEPSjvHExsgAKA8/t+JPVIOxfoOlW0bidbcgwAeEcNY3BYOxdICCE6EMm4tKHA24JwByg8QVp6c45gh4zN9cTDl5FPxRCsBLhCUc4R0g6e5cyxMoxdzzujGaDBx8+XwMqr7VpU0XTFh3awcauN1uxLhrYrTHtz6c6td/obuyb9epDtn0orf/sxkPXJfvQLbkXr4kHUpDBOHLmOx98JIYQdSeDSVjwC6ac1toZmHzjBxeYcww4Zm+uJZmyEKWgxoN+SSNK2uhXZci7mFXGGLFLboXyiZa5UlHMxT7KOAJp7IwlRApSSliiV5HZXkM33umC0w7zAoy+D7zxK0rdX2rtUQghxzZPApY10GdWXQIBKPYe3Nu8HrOUZm6ZwpkuUHyERPQnqpcFdoUJp6lhYWVFO0dkTpH59lKyTDX2W6vElgV4etY5x8Tdn27uauajwGtuXIf0DuclTVXXRVlb8ahwIa5GKm3p5mDY8zeF6QUtDbMx2FHA7T/zd0gu/smfVZlKP13iqUbN9uRP5/DiGuNHguAzn3n5EjAoh2E+Dxtzt7aqBsvIrjftjdlHhNTaU4bf0xMtNYdznqoGiglOkbckgM91KIFD1Ocyf0Rn3MRGMvFWLj6uxHJUVhWQfSGXX5wV1vhc7nUt7uHMYT4z1b+D41eUt2v816+qMUagag2H+rnp0J2JKBJF+nsbr23Q+93+ayonGjDHpoSEkbgD9+nbHu+Z3+stZDv9wkLTvi7lia3YqF18iIkzXet5B9hxo4P1c/Bj9mun7KDvKZ387YGOsnDN9/jyFOF+APLa9mFwn02uv+0RzNe5vp7EzGDr39iNiXBj9fD1xNf1BVVYUkn3oCD9+kUtxE+Lki4kHyRw0ghClAm10H7p8e7QJDVYKAh8ZyegQD7iUxw9rkzksXf+EEEICl7ahIaK/JwDFR06Q3ZwpMu2RsWmKO4fy4Fh/iy+5KFV4BwxgzOy+6DcnkvStlaDAy4tbZ40gwrN+gOKiVNGoUSWBQYx+bAjazpbK4WHjAnZCaX7RRUEXF+CanppUgc8Dsdwd7ln/MzspcHVtxCG8fIl9OoaQuts6KdB0Cyb2gWAG//QDn7+XzUVb50qpIXJRHEPqfK8uSk+00XH4dU/mw3fy6Pjty850iRvKvWN6UuuUms5n3NNeuK9KshF8OeN1bwzjortT7+tzUuDq6c+Q8f54OTUwvXVMkGncm4HMPdkNn/fKXI7qDWi1CnANov+tB9j5g5VtfYPo72t6nHeKrLrdU+1xn3AQmgkjmDise72ZwFyUnmijbkd7SyF7Pt5O6qFGXtmVZzl0tJSQcDV49iEi/Cg/NLLByXnsUMaFmILRzr4M//1A8m0GmEIIcX2QwKUtDOtjqiwWcnhn8zpx2CNj02SVpeT/nEvW0bPknyyi+CLQxZWbbh3AreHdcUWBdmwM/Y5v4/DpOvu6uBP5RBzGhmDj+JL9u09xJu8qdHHFO9yf8PC++NmqcHv5MXrWEOPUrpSTn3mUPXuyKboAdHUnsF8Q/fr3xNvinKNl5J81gIcC8Gf43CDOvplFcaODl5/Z9fcv+L7q/z2I/fMQ43dweg8ffvazhX2uUHGuscdvGs3UWCaGG4PfypLTpOqOcuJgGZU44X6zP0FRfYjwUVs/gIs7kU+YgpaKs+z5ag9pe8u4UgnOgd2JmDKUIT4qXHvdyu/uK2Ldf62NkVARMXUMSqXxOGnfHeTwwTIUN/fl1ri++ClB2SuSIeF5NSppjnUu7aZ7FFMDFCiB4p8OsDM5m6JyVwLHDCW2lxrwZEh8IGl/txxMaKaOZEqUp+l/lq/vkH6Wg4Kagqq2OUu2rnFFz/4xizJtX1xREBThy84fLHc97XJbED6AzaCoJfcJB6G8c1hV0FL80w9sWZtLQeEVUCnwiokg7k4tGidPhtw/lOLlKZxoZARRoMuiKHwAGtQEhrrzQ3rjxh65e9S5Mbq64g4SuAghrnsSuLQ6Z/oM0Rpb8fKOcqhZP9x2yNg01Q8/surbKxYqKuWcOLmDnLhh3D/GHyVeBEepOHy6dh+KLhOGmqZlNaDfspmkbeW1jpF9soBiRQ9T9w3LAqeYg5ZC9n+4ndHSxCEAACAASURBVL01Wzrzysk8dJaKbj2tTp16ZsMe9KaF+JS+Q7j/hZ6kbd/Pnoa63gBwhYpa4ycM1Qmb3wxtO7bCvy8jTRXcipwfWLeidkbkYt5R8s84E2hjmmCvaTGm7yOPnf9IJrNGDehK9llSl2+meF48cf4KNAMH0iexbpcgM4UxaPn1KBvfPUC++Th5B/jycicenqBFiZqbQlwhvcz8Do5zLu1JqUCJgexdW/g60fxZy8l8ZzvKRfdwqyfg64sf2dTrMRYcxhhz0FKRx85VdaYuNl3fmezF2eYq7F74dDM9zM9r/L3hwClOTOhLhCsoA/0IdLG0r4rgYFMZL2WRaWnNqBbeJxyCRyAjxxonNig+tI3/fljjj6PcQMGWvaw7fYmpM8PQuPgzZKyGEx83sgHq+FmyL4GmM2j8vHCmuFGZyKLUbM5HDTCu1wVU/JRV/xoSQojrkEyH3Nr8+xDhC43uxmGJHTI2TVZuqTJSrWLbKcy9yZWdO9V51YuICFOFJ/8Au7Y1o7LiEVTVNa4sI7V20NJYBbkkrdqD/pLp/527EzF+HLNeuYeJT4QR1LuRY2zamc+dfU0VmLP88EkD3bgs6l619k9x+sFaQUs1AyeSszBWv30JHm7j3FScZkvNoMUsJa/qmvDu3qiVVlrEWamii6+1fwqc26BZ5vz+bTWCFrNysqv6VGnwCq6/X+DIvqYg00DmV7bWW7nCFVt/Ph7uaEzdKIt/LmjC/aWItEOFxocuWvrGWNgkOIgQ059x8bFT5Fs6TIvuE46hy4hgY/aPPPZsspLTOHKENNMJcL+5pykL1RhFFP1ieujl1fj9jh9h48rv2ZN5irTkLax773roeimEEA2TjEsra/kq9/bI2LSxMF+CTJWp/JM/2xhAb8NgX1NlwkCO5Zp242RnkfTcz8YB6UOC8ekMOKnw0Q5gzOwBVP6qZ+faVE602uDhlnInoKepyf3CabKbcyoG+hJgGgNx5qSNwPdQIfmAFnBXuwKWu7Xod6aQZbEcxRSUgNatGWVsBvf+I3iwv7VXW2lwf00lR9huZXHBonPFgLVsYneCAo1BOYVH2GNtfEljdK8eK1b0a90AyraLu7PIj/bEB9BGBOL8be2GFa/oIFNw1YYNJm3OmcDeXsaHF/I4Y3WK+Svk/1wKPmro7EqXRh//CsXFBvBRgIui3vgZm3uezCX15PW0gKoQQjRMApfWZI9V7u2RsWkulStB9wwg4ubuaFyrZwtqkI+7qTJloOhs87qGaLzM1bFizp9q1iGqVZZT8GUqG79Mo0tUIJF3hhHSTY0L4OKhJW62PyEp2/hykyOufeGOxhQIVFwobt6kDF6upsHfCkImTSVkUsO7aLq5Yy1wQZa8MWnmX2NvL7xMd96yMwUtm2ijh3tV98DKi00sT14Wh/Ki8PEFfHsS7JFNZlXF3Yvgm01jpi5kcdxWg0lz7xMOwRU383CSrlE8+PeoRuzjjiYYaGRQfLG4HFAAKrr4AjKTvRBCNJsELq2oS3xYi1e5v2lsWAszNs0UFsa9Dw7Au0WVkHKKWzyatJyLdvuhv8LF/Vl8vz+L793d6XP/MGK1HrigwG9YHCMLv2B7sqNmXswVoKarDgIbr+zXSw1v1M4sTVV8TXCqvvEaKlo405ZLS7o7XuHEHj3DJ2hR4kvICBWZm0zX2K1BhJiyptlpWdaDK7vcJ9pTdcNA45Vx8WxrlEUIIURDJHBpNRoiBhq7IDR7lXuPQCKCjV1Kmp2xaQ4PX0ZON1dGSjme/CN7dxVQXKuOaGNtjirOONuhW7tza0xlXFzMiXc3k3PnMO4f648SBcG3BfFDchtMNd1Mzs2soxaXlmHstlTK/jWJ7JX1IDqO00UU4Y8GcOniTJOzQLpcsuK1hLiAT2ggXTYZ1xoJjDAOVrc5i6Hd7hPt6RIll4DOwOkfePcN+w+BVypN3QLt2ggjhBDXp2u2nczhVQ2ob/4q91VTILcgY9MczsP7mFach+xdSWz/sm5lpAGV5oqOGo2N0ajKLgqrr135zXwMd9yDrG2lQGn9EI1S8e1BDpWY/tPVq2oWn7ZmPSa5WlUVde9qI3NyY2esnYorxeZWfTUaXysbiWotymI0QlYppmHxppmmWqDUUDWGTFN3Ct3GqMzj0JFS42PPQIL9ARc/+pomxqjIzrU6U1mL7xNtyWrUX06F+QTe6GF1Vr6WcLvRNEbtUpnDNooIIcS1QgKXVlFjQH2zV7mvngK52RmbZjIOzAb4lfxj1haXtDHQ9Ewx500Pffy9LG6ivHMY40Ktz/Na/LO5BuSBz82WKx2aqbHENn56n4aVlFkb1UHNAIIbmlDVvFqdLHL3tlyx1EwdSpTV7iq/UmT+7rt5W56VyMuP0fcE11/E0OxEQdWMUNqIoCYNEG4dzTyX9lAVVHug6WFpAwVBc6JaN0NQWUSBOVj28SfY8p9I4+QVU2S6wNx7NC8IKtBlYRx670nIMHeI6Wn6/LYbXVp8n7CLK9Vjrjw8LC9qGxbGyIHW1jgyrfcE4BZIyEB7l88Lb3NryC+/Vt0XG0PZP4hbnxjKrXdrjAvoCiGEkMClVVQNqG/BKvd2yNi0nAr3bvWfde7fl7v/OAQ/a7udzOOMaYIj15C+9KlTMVMOHsjdpnUTrErLq1q3IDAyDE2dH273+BgmVi3e13zKOwfQ3zz4/VwB1udOKiL/gulhD/96n8mqk0VVx/TW+tebjajhz1FG9ilTi3jnIMLj6uRVvLy49YnbTevdWJGXxSHzJeQzkNETGhjzomrtYKKZ59IeagTVgWF1008KfB6MZUxAC9N4DSomM93c8dOX2CcG4GU1hnduYB2Xs2RXfbe+BDangns8i0xTCkgT5E+/m7sb/1OSRWajGl2aeZ+wizIKzOkrDz+C6q7XGRjEuOkDbGZSz+iyTA0WaiImDCbQ5vXY0PdRR3B3AmvMsNjojnz+fbn7wSFEaHsSETOGqY/7tiwzJ4QQHYS047SC6imQj7Jnc3MGe9ecAvkge5qVsWm+Iv1ZKqI8UKIgZOwIKjodIO3YJbr0DCTk9r6EdFM1cOEUkXaggIhhXuDiT9zTQ3H58iDZv6gIvCOSW0M8UWJAn1OENqC75UP8mk3a8SgCgxXgFsbEPzuzc/NR8ulKyJ0DGeKvBgrRn1ag9bfUmurHyNcG4v5zLllHCykqKOB8nrlp1rTa/C1B9PP1MH2WPH74zFaAWE7WiUKGd/U0fqY/jsD7e+Oq8dU9aa5Qcc5QZ3FLY8Uy2BfwHMjEJw1s3/Izxaqan8NARYVpYUcLCnYeJT88Ch8UaMeMZqTqR/buL6dLVF9ujw7GWwkVOac5H+BvpZJ4hRNbDhIxcwDeKPAbNo4ZIcdJ/zGbrGPG8rv4auge2J3gvkHc1Okonz9/xEYQ11LNPZd2cDKPM2UD8HYFpXYodz+whx+2X8Dg24Pw0QPp76kADFRUKlC24t3xYuIe9vQfZ1wU1COMKc/7oU87Qvq+c8aV57u6E9gviJB+/pTt+Iykb60fK/tEHgT4Av6EjHImq8n3nHIOHczj1jt8wbMvQ9xN4+r+f3v3HhdVnf9x/FUqiAIuhMoSojGKifYDw8tUbKgrmhfcvOSu2qbhlrpuWr8lbb1tm5f1tr9NyzVtJW3TflveNtS8/TRd2sYLKbuJiQ4Zsq6JQQGGg5d+f8yAA8xwc5AR3s/Ho0dn5ty+58zheD7n+/1+vicyKrwGbv0+Afh60My79CO5513FU43wDPIqFexfzy3EUqbVbFbGebgvCPDn4WcewvLBP/nyvAeBMZ15uFsbfAGLpciur0kZqSf4R2aoNWBtbmDQ9ADMn37OZ5/9h9yvAZri919+BIYa6NQ2gOzd71b4e9hrFhFcklI642g1mvuGlW626nlfB8JanLfL+iYi0jApcHG1Oz0FMsDhf7H/oXbWf8g9WxM5+DEiB9svcJ3s1GROt47hYSdNtb7bcoCdIXG2h4F29B7Vzm6udbTxXVlhjH2ytdMmTv9es4dDM6wPd56t7uexcffbzc3h+F/3c6j1Q04CF2jU2JvANvcTWPYtbFlXvuLghgNOBma0P6ZPOBT2GD39G1kHs4yNJTLWfglHY4dc53TSP4mcYH3r63tfT4ZNsp9fSPrOXXwZ/jixIU52fO4023e0tiUR8CYsJpYwuwEDLecP8f6KPLr8rg3BTZ1s48QJPtjSlGE/CcPvbmh+TxgPDw7j4cEOlv22xol+q6xm59IVcjn0f2fpNKQdnngQHPEjRkbYzb6Rw6G3D8Pwx+hZm+PRXMsj5U978JzQh0j/RtC4BYZuD2NwkI3XXMmmru8+zcmYIDo1hrZdO9Bsx+fVruW9fvAsX/YKoi3FAVsV+tW54D7hN6gvo7o5G+8miN6/frzUN+Yd5YOG6zuOcahbkDUILHevgctf/IP3T7Vh3GPObgRFZKzYw8EX+vBooBfc3QJDt54OfwuAC1UOpm829yXny4pTSpd1NIP0H7cp6UMEzWnWGlDgIiINnAIXF2vUr8Mtp0C+9UErb1URGcuSeG/IAzzazUBgc+sb0WuWQnK/Ok3K9s/JOHOd0KmVbGPFDv42NIqHuwbR0rMR3Cgi99JZjm46bh3wMayIInDeN+NaHilLPiBvzMP07BCAb2PgWiHZ5z/nH+99zr//A/zY2SP213x2NJ3rQQHc6+9FY4/S40tcsxSS+/WXnP7EzL8O51Xtzf61PFIWJfHlwHAefbANAT5VeKMMkH6C95cX8KOfdSYsoIW1HDeKyM46UXIcoeEVb8Lyf8m8e/l+fvTjzrT196Ax17Hk55Ju+gf/2HmZ6/hiuYo1O5KzbSSn8G7K5yVjbtiXv9z5qMpx3YqanksXuH7gE94pzKVX7P209bft91oBF07/k73rvySv0JeoKox1c8suXeIf8zfxWe/76dGjLff6t6B5yQ9SSG7OV6Qf/ifH91eyHVsH+04R3uDfmZ4Pf87+6g5q+e2XfGbuRltbp3zOnyWj0odkV9wnXCGPlAUfkDfuYbqF+uHnac2uZsk5T8r/pXDcVAg/ruTtxbU8PluylYyIUCL7dqDDPS1o7mmrCbpRxOXLefz7VDqfJWdxoYoBiGfcfxHZHKCIkweqGUx+e56928y0HW5wgz5pIiLu4y7g+5qufOrUKQAGDhyI2VzZe8GGwIvImY/zsD9YzAdY86ca9E1pHETv+TF0agzZpq28//7tyyYmIneoFsH0n/EjDI2B/BO8O++fJZ32pQ40bk3vV/rQyRP4+ihrF9Skr6N9Kulz7JyeTIZ+UxFp4NQ535Ui7qeLP9xKh3pX1NiISAPzbRYfJdvuOT6d6ftE9QcdFVdpRNuJ0daghRwObaxhgpauLUv6uVjMGQpaRERQ4OJSbR8JtabjrHEKZC8e6GrNdHS7UyCLyJ3NkvQJOzOtqX1bdoul/49rOzuaOOL544foe58twcGRT6rfT8u3OYFDejBq9P3Wf08s59hfYeIQEZGGQ03FRETqi8a+RNkSWkAOhxJ3kXKirgvVcHj26MqQn95PS8CS+XfeWZZVMkBo5XyJenlQ6aQQV86xf3UyJ790upKISIOiGhcRkfriWh4pf/o7ZguAPz2Hd66V0eDFgebB9HrCGrRcy/knm1dUJ2ixc6OIyznnOLRtO6t+q6BFRMSealxEROqbH7al7zNBZPzpEzJqlJNdaqLRA//FT+Kus3/xCSVHEBGpBQpcRERERETE7ampmIiIiIiIuD0FLiIiIiIi4vYUuIiIiIiIiNtT4CIiIiIiIm5PgYuIiIiIiLg9BS4iIiIiIuL2FLiIiIiIiIjbU+AiIiIiIiJuT4GLiIiIiIi4PQUuIiIiIiLi9hS4iIiIiIiI21PgIiIiIiIibk+Bi4iIiIiIuL3GdV0AEaf6riVhuhE/R/PyTKwYPo7zt7tMIuJ+usayZeB91ulvj/DH149xEBg3+ll+Yvv68tH3eHLXN0428ANm/WokUS2snzJ2rObXx4CgrrzzdHeaA/AFf5u/h7W1eRwiIlIhBS61xKv/bKJ7xxD+QFMy/hhN0t66LpGIa+jaFrd2A4pskwUWC+BZ/W1cs/3/chEFYAtcRESkrilwqSV+0UPoFeUD5JNR14WpE/MYv2cEoVVZ1Fntyd5xLC31UBxP3KZpGH1dVUapiTv32r55TeaaFrN0dqLzRSdtZ/4wA5CPaVH3kuCs2xufM9RQ3f3ab6P0NXxx/4ssW5BUfpV2S5nw5mBCbB8zNt/PmpXOyuhkfkNy8RsuYwswvvkGU/HXBYUUBy4FefkVbOAbLn4DtLBO535t+/rb77hcvEhhPrkuLraIiFSP+riIiNw2Afg0vfmp1QODaelgKa8hkSVBC4Bf6zG1XbA72/fXKl3k8pXrFc4vulHJBoosClxEROqYalyk1uWnJLLq/ZPOF7Bk64FA7gjH/+dFzD5lv41l5MJ+hODsWrdw5VTxtC9eHtapq0XQJKAzkUbYY7JfPo7o7sGlN9GoBs2dGqirFkvJdEZeHvCDam7BwuWSapbvuFwIeLmmbCIicmsUuEitu3b1ErkpDprDiNxhrqUnOQiye5Z0iaj6tZ7FuXPBhBoCiBgUzx6TXbM142DCA4ErWWQWBROippGVO/8NXwGhQFHBdyVfZ5XUsuSTe7HiTWR8/Q3c9wPgO3K/Lf7WQlER1sDlm3xSXFxsERGpHgUuLhI09wiTjeVexQI+GKd/jnG6g1nmjcycOMvpNhv3mceAUf2JCPHBy9ao7+qVfM4d38WHy2Zx/lLZNYrbz9va1DdaxYSJMYR4AwVmtswYxNGTwbScvIqxQwz43Q35mQfYMHUCmQV2mynJ5lXcNj+coGemMaBvV9r4e9IEoCifDNP7bP7jYnILypbD/VT/XN7sz5Cx+X7WfDSbkS+PIcIfuHGJ5P/5GR/uysJn5FpGjzIS4g1Xc9LY8vIwUiuoXLo14fg9OZW4/g8S2sqHJnbH8Z8TB/jwT6+SmZnlYD27fhUVXHM3r2EzW2IHcbTc92XV9Np2cD0BhTlmUvdu4MM31+O04U+5a/PmbxsVYjsnRflkfvo+7y1yw2vTu7idmIVTaVmEGoLx69KPUBJL+gsFDXqQVkDhqQOcaDmGEF9o6uXo/EvVXYfvb3ETN67f7O9SieBfrGbd5BiCm0HeZ+tJGP4KB25x9yIiosDFTQUTMuN/eap3QLkWCk2a+hBqHMHkHr0wvf4sSUlpjjfhP4/xY2MIsTVLwdvA0KnzOJXSlQmPG0q26xMSw+hZk1j4kpOevY3iif3LVHoFlmmq4uFD6KPxTL7Xl2UTZ1FRt9e65YJzeXc8ccVBC8DdAUQ/O4/U6zD6mZvpmpv4hzMyYSnp4xModPVheMcTu9LB72A7jpCowUxYE8OJdxLYsM6NH5EqOA4vfwPGkbMx9ollzXPjyHAQTJbm5Lf18CHEGE/CmwZWjJrgXimzjQEl18uVD9LIjAsmxLsTEXGQkQQwiZ5dfAALJz6Zy5VYa98WL29HPWHkpi/49fzV5b8+toehx6q2hYO73uPgrrLffsO81x1st0KTWGoLWgB8u4xhzh928+NfmypeTUREKqXAxUXOvzmTpVtvPowFPTGH0bbMS0cTX+GjdAcr5Zsdbstn0qqSh7H89G1sWJZIZnoaBMQQMnoaIwcZ8Ls7AOPE5Vw805dDDt7wh8bF0crDQkbSYva0mMSERwOgpZHRA4PxKspiz4q3uDZ0NgPagU+HnoSwkszyJSFiylS8PDzhRj4Zh3exZ+shrrWLpe+T/ejoDV6GEcTPOM6yBRtrduJqmSvOpbcxnlB/yD2ykg1fxPDUyHB8fNsT9/MA/Mjn6LpXOdHlecZG+UBIJP/lDYdc+qY/ngFrphFtC5wKL6WRvHETqWfzoHUk3QYNoVeYD+BD5yeXEndhKEm7HNW81Izrru0Yui0tDlryOZWUyJYNK8m/BI3DJhE1NZ4hYT4QYOSp3y/lD88kVBgQtxqxhQkGa01EbvpuPvjrHrK9ezJg7Ag6+wMBMcRNMbJquZs+MJ7dwInMfoSEeNI5ZipbkpbBk7FEeAMFJ0ndBP6xdV1Iqb5gfJuV/sa3ZTjgptehiMgdRIGLq2TuJtfuyd/r8Tkl09eyk8itauPodksZPcxaI5KfupKFCctuzrt0gMzlB1h6ai0JCUb8PILpPXYSh8rVlvjQKtC6/prl66FvLLmPBuDnG0wIkLF5Fh/tMMF9TzOgXTD4tqQVOAhcsAYtV8x8MHsCh47bHoZTkng7bSnjlw4m1ANadR9BKBudpsZt3CQAv6g4p4d8LfsY+Q6bON0il5xLaBUYAOd3s2rGMvJpSfbIcHwIICQIck0r2fLOeugfS36UER9a0MoIuHBsE58XRpcELblHlvHqjJV2TamS2LNjLqZJ25k6zIAXPhhHPs/eXS6s9XHRte01ZTZDDZ6AhaNvDGXLppu/+bX0lRyanMR/FmxhQncfmrSLpW8cbHHaXcSHUANAPkffTGDLe8W1TEls+MKXycv7EQSEdByMowfGyq5Jmt+OzvAmUlKzGBASjFfHhwhlGV49wmkC5H62mwzAv7JN1KHmwffTvmV1zlMBmcfMDSARRxLHTsdh6FB8bvJI21dB6m0REakyBS5uxm+00ZYGNYvk15c5XmjXG5hGGxkQBD6dYwhlpYOgwcn6lw7wwUrbg9wNS/n5ZRWZ2TJtEEfL1kScTGD/yVhCIzzB20DHRyHjoONN+ETFkxDlfBeVjqlRQ647lxaObpxS/u1/URp7FtnKfR3n/TJuSTy9om0ZpgqOs3nBSof7yV85l4+6rWVACBBiJDoK9rhVT2K7TFmZe9i5yVGgmkXm6k/I7N6PEOxqIZyykLHZPmixOXmIjJx+BPkDgcEEQbnmYpVdk7XmvpYlTcUAChMPcKL/GDo3jcT45DQwAFwidXuZv4eWjo+jLnWP/x0JPaozNGMGWwZPYU2tlchdmJg5eSbZL46h3w8tHNu6iJl/qesyiYjUDxrHxa0Y6dwxwDp5wcyJs86WM5H5b9tjdFMfh29lC1OTSHaw/omdc8muRokydkwoH7QUzzMXP3z60LJjNTZ6W7juXHL+ADsdvPm/aNpAam13/o7qSagtq1T+yd1kON2fieRPi3+PAEJ61HK5qqtdLKGB1smL5gPOa4POHud8nnWysn4duUeWsWalo/4868l219f6ZV8VFbzFCVururDhYwjzAC6c4Kjt3UJOQRVeLoj7+TKJV3/1MwYOH8vMvzjpOyciItWmGhe3Eo6ft20yMIaEPZ9XYZ1W/LAv5ZomXSl01Dsgn/x/V7NJ1o0Klj+dTS4G/IAmFVxJtVWjUjHXnUsK8xw+aBdcug39ejrdfEOffa6Sc3gqi1yC8aN4wML1tVy4aujoW3IcrXovYX7vJZWvU0ktQ24F5+PoxPtLsqI5XLeya9JuVPrachWALFIPpzG0UzhNvK1NizKPvFXSnOpKYRHFI7+7m49e+Skf1XUhRESkQVGNi1sJpVW1x2z4ltwztVGWO109OZc+N9MFV4u7DVgY2pJqJ/QtyKt3/SG8mtp+l7zsmzWf7+yxq7nL4sQHDjpxN/Ut1cRMRESkIVKNi1vJJucKhDYFzm5j5jMJdV2girVoStPKl6ojd9i5dLGrhdVpEHgbXMyneADyjK19WbOiFpIx3AH8/Fs4+HYlqacm0i3Kk6snDzhs4omHpwZvFxGRBk+Bi1u5xJXvgKaAfwAhOM705S68QorHz8jnorOUYnXmzjqXTtk1x2vZJh6ooHlTx+CbzcoyqzJ6e2mNG9WkgFWUfYUrWAOXlvf2o8LjaIAyXopgZl0Xopp6zfmrOueLiMhtpaZiteTqdbsPVX4gXE/mV7ZJ365EDQ92baFcykhUF1v5is6RUW7gtrrmpueybRzT39zBkWP/5MiHq5nep5Ll96Zxvsg66dOpH6FOF4whukfxMZpJ32o/z8K14lRkfsE47PLefy0ju1etMVeNru2DZY7Du+LFxSo359u6LoLURNsxzHl7Czs2rWP+z8PrujQiIvWGalxqSfaZc1x9JJwm+NAxJp6kXVV7w3xiz3HyO0XigyfdnlxORtowUp1k9YJwGgekca3SEcZdz2fSbHpZcw2T++k2Ttz+IlTKHc9l/Nw5xPe0db4JjSF+7mrM+57FeTf/xZj+NYbOUZ7gHcmwufEOOpUH4zd5Gr2CrJ/yU3dztFT2sfWcvzTbOiiIf3sijbDHvhtF9HImTDFWuQ9Fza7t0scxcsFsVkyZ63yAyYBwGl9Kq6UU03UnqGX1evoUXinOKuYkcUQdOpL4W2YmVXMcl1orjTsJZs6yOYzpZP1k6LKO4EbdGbu2bkslIlIfKHCpLVuPkT4qnM4e4Nd9GgkrevLh9m2c/8pumXwzuellUmUmrWTvoOXWgfq8wxn56hG6Hf4E0yd7bOsGE2TsRGj4g3RuH0D21vtZU37MRJdpGbGKzgM3kXFwN4UFQMgIOj8zkaHGYGszsRwT7y2q+MG10sH+LNnkfuZgkMCwOHxKPecF2F2wTfGLirPL9mXhyilbGYu52bmEMcSElckYEBBMV6ggcIGMdUlkPDCCUA/wM05j1rp+7PkgifSzedC6J9FD+2NsZztRRWY+dDBmTfqpLAgLBgLoNX07V9/ZQOpZXwyPD6evMRgfoLDIYh1wtDI1vLbtj8On0xhe2mTE9ImJ1P3HrQFM60jCwg10jOhMaOBFtsUOqjAz2B3NxYkHGjePw6+icWmc/I3distZn5PaMLsqVaIfhnvtP/vSdcDzsPbVuiqQiEi9ocClthTMJWmbkVDbyO1+YTGMDospvYx5IzMnziqz4gGOJizDb8VUegV5wt0+hBr7EWrs53A352v5lbSPIYbRL8TACw5mXjrOulfGkVnJWCaVDvaXZ2LFcFO5tLeR/72Eoc4y0vpGMnphHmz9xQAAIABJREFUpN0X+ZgW7Sap1Btp9zqXsJ60C3Mw2ldtfJdHpc9+J2exZnlLJk+JIcgDvIIiGTIxsvxyeWm8N2sYqQ46dxcu30DyI9OI9ge8DcROnE2s/fz0baxI60TC41VIAVzTa7v4OH4VQ1BTwNeAsb8BY/8xDnZy0ZYuuJ5ykmK7pkL6LyGhfwULOPkbk9qQyIF/TcL4yM2XFJ6+FY9JJCIiVaM+LrUof+UgFv5+I6az+RQWVWPFgkT2jB3E0hW7OZpZZt0bFgrzLnHKtI11M4fx9puuLnUZRWUGwLthIf+CGdN7c/ntqJ+R7rTplZtwp3MJLFqeiOnftnP6XRYHViRQpUqeXRNYMXYWGw6aOZ9X+jcpzMniaNJi5o2tqClcIh+On8sHn10i3+4cXM0x81Hii8ybnEDujaofR42v7V0TWDHqRdbsOk5mjoWr9vsssl1bSStZOmoQqdXY7J0hDr/q9GUvxQefQFeWRWpTYvwiDtRBE14RkfruLuD7mq586tQpAAYOHIjZbHZVmaSu9V1LwnRrn4eMzbXdfEpEpP6Jf/sI02392fIOLaL7U8qkJyJyq1TjIiIi4lIxdA0ubip2iWN/U9AiIuIK6uMiIiLiEuHETBjDpJ/G0dXWQT/v0Bpe2VS3pRIRqS8UuIiIiNyqBTs4Nbx0cotLKYnMeCqx8gQcIiJSJQpcREREXMWSx6XTJt7fsJJXN6VVvryIiFSZAhcREZFbNWMgHWfUdSFEROo3BS5S3t5xLHWjEbpFRERERJRVTERERERE3J4CFxERERERcXsKXERERERExO0pcBEREREREbenwEVERERERNyeAhcREREREXF7ClxERERERMTtKXARERERERG3p8BFRERERETcngIXERERERFxewpcRERERETE7SlwERERERERt6fARURERERE3F7jui6AS7V9jd29DNbpwstcyEzm/dQ/k1R4uW7LJSIiIiIit6T+1rh4NSewY3+eG76aOT9oXtelERERERGRW1C/Apcvn6PfuoH0e+c5/ucf5yj6HmjkR/RDv6RHXZdNRERERERqrH4FLsWum9l5egKvpORaP7fqRB+vui2SiIiIiIjUXP0MXGwOZ52hAIBAQlrVcWFERERERKTG6nXgwrfnuFDXZRARERERkVtWvwOXWxT8i9X837FTnDp1iiOb5hBT1wUSEREREWmgFLg4NYmlk2MIbmb95NtlDHP+YKzbIomIiIiINFAKXJwKxrdZ6W98W4bXTVFERERERBq4BhO4eNxd3bFckjh22mL3OY+0fYmuLJKIiIiIiFRRPQ9ccin4zjoVGDQc72qta2Lm5Jms3HMM82cmNs4by9i1tVBEERERERGp1F3A9zVd+dSpUwAMHDgQs9nsqjK5VJ8H1vPSg35AEReO/y+rT+4iuSi3roslIiIiIiLVUO8DF+jE8IjnGdOlDd6Nb35bcHwJw1L3112xRERERESkyup5UzEREREREakPGle+yJ2tzwOzmBDpB99f5kzyn3n9y2TSrl2u62KJiIiIiEg11PPAZTiP3e8HQNHJ/+WX5l11XB4REREREamJet5UzA9v21gsmRc3VX/1tmOY8/YWdmxax/yfawwXEREREZG6Us9rXG5FMHOWzWFMJ+snQ5d1BDfqrpTIIiIiIiJ1oJ7XuNyKfhjutf/sS9cBz9dVYUREREREGjQFLk4lcuBfeaW+8fRtWUdlERERERFp2BS4VCAxfhEHLtV1KURERERERIFLhTZiMt+sdcnLdtdBNkVERERE6rf6Hbh4+eF9SxuIoWuwr236Esf+lnjrZRIRERERkWqr11nFwoM7EQjAZXK+qdaaxEwYw6SfxtHV1kE/79AaXqlBRmUREREREbl19TNwaWTgsXbP8+xD1rCFgjMc+raK6y7YwanhhlJfXUpJZMZTiWS5tpQiIiIiIlJF9Stwafsau3uVDjr4PpfD/zePpOpuy5LHpdMm3t+wklc3pbmqhCIiIiIiUgP1K3CxZ7nMhazjfJjyKu8WXq76ejMG0nFG7RVLRERERESqr34FLl8+R791dV0IERERERFxtfqdVUxEREREROoFBS4iIiIiIuL2FLiIiIiIiIjbU+AiIiIiIiJuT4GLiIiIiIi4PQUuIiIiIiLi9hS4iIiIiIiI21PgIiIiIiIibk+Bi4iIiIiIuD0FLiIiIiIi4vYUuIiIiIiIiNtT4CIiIiIiIm5PgYuIiDu5uz9zBq5nnr9fXZdE7kR392feYF0/IlI/Na7rAkgN9F1LwnQjfkDG5vtZs7KuC3SniCFs9jQG9GjFtTMHeG92AtkFdV0mqY/6zJ3Lb4y+wBdsjH2VVVVd8e7+zBs0lR7+wMCFPPu/E1h9rfbKKVbd3vicoQbH8+6se2wgz0ZPpcc9wODXmffBs8z65nJdF0pExGVU4+LQCMIS1vLUX47w8op5dV2YO5wbncuxUxn9qIFWTX0I6jKY0VPibuvuvfrPJnbhXqZuTyau723dtdwROvHso5OsQcv3uRzf/WqVgha/4cuJW5HMS7u2063Wyyju7QKrTZs5YwHu8qPHYwt51qOuyyQi4jqqcXEokh/1NxIKoJdVt+hWzmU8cZumYfQF8kysGD6O87dQEq8WvjSx+9zEw/cWtlZ9ftFD6BXlA+STcVv3LO6vOY9FzGJEWw+giDMH5jHt4skqrWmI7YfRAPBtbRbQfdnVQFfKvJGZE2eV+/roxPs5av/FpO3MH+akCsbdFf2ZaTvb8Och3fH3NDCi/+/I3P5bdt6o64KJiNw61bhIg1GYuIGPMi0AXM1JY89f19dxiUSsvH8wjXER1kfvIvM2Fn5ZtaBFxJGCb37LKwfMFAH4d+fZiP5413WhRERcQDUu0nAUJLJnfCJ76rocIqV051cPdcf/LsBi5gPTn8ms6yLdoTJ3vch7+ytYIN9828pS19K+/BM7M3/PkBAPvB94iv/O2MUrDbRSTkTqDwUuIiJ1KKTtU0S3sk5fSPmTOuPfgmuXk8hNqetSuIuTvH7oY3q06U3gXX706PoLQj5SUCwid7Z6GLgE49X/eR4bGUPnQB+87DomXr1i4dp32SS/05ePkuzXmcf4PSOs/TDKMoxg/p4RDmbkY1rUnaS9dl9VKduXXb8NJ+2tizXuM48Bw3vRuV0APsXHccNC4XdV/OG84wid+DQDHjIQ5OtZsn7+RTOmTW/x0dYkx+uVHEfxMYYTNGUeQ3uHE2Rrb3D1Sj7nDr/Pe3MXk19qZRedSxdxWbYgbyMh8c8z4JFO/PAHnjSxa2RZeMVC/sUDJI2fUqrvStDcI0w2+jjYmA/G6Z9jnO5gViXXxK3w7xHFmLhuRIa1I9C7GR4l19RVir7J4vje7fzhzdPkOFq571NsmR6FN3kcXjSbmXu96PPME4zp+1+E+Nt6DhV9TaZpN6//0cQxB9naJryxjBEGwLyd2Im78Y6MYMLYQUSHtcbbA+AqBRdOs++tt3ltX2HFB+PdmiETH+eJhzoQ6Nuk5DgKLp4medNWVm39CocJ4yY9z55h91GS7cu7NaNfGMVPjPfhbzsfRXlfYd63gRkrzjreRgnrOXji0Q6EtPLFo/iaKPqOghtNKlzzpu6Me8CAB0BBKu+frryJmPNr2sDQPZ8z1MGcXNNils5OdLzBmtwniu8ReSZWDJ9F4xlrGR0TjM/dkJ++kRWTZ5HvPYaei55nQJgPTW5YyDywjFULSpeh5FiKr/vIqfQa+wTGsJv3vPwLaex/axaH9qVVem7qXjhBz0xjQN+utPH3LOlTV5hjJnXvBj58cz3l4lIXnUuHvvsTH555hKc7eODRtjfjmv2ZV76r+tHEzNrC0tHh+GIh68CrjJ2USFbVVxcRcbl6FrjEELF8KSM7OXpYhCZNPWnSNBhDMHx0m0tWPTGELZzP2KiA8rPu9sSrKo2VO81m9IIxdC677N2e+ASGEzt5CdGxMayYnkBuRU9nXpOIe3cqxjJFadLUh9BH45m6wpc/TJ5FJY+ZdzZn59LGq6knXiEG/MGNO933Y/78QbR3NOvuJnj430ePkb/iL1HbeXHibip8RGwUzm/+Ek+fwDIP5x73EPLoKObd61vpNsLHTmb+k2Fl2t03wTswnCG/mUFgk98xc5eTqodO0Sxf8ASdyl3b1vUfmxxOn9jtzJq+22EAVVLcyH6snDuI9k3LfO/bmk6Pv8Calq/z05dPOymDkSVzRhHp4E8Uj2ZV70/QYjCR91gncz7fjJNXCbXHBfcJ70mrGNk7GC/bZ5+wEYyctIejXaYxJMyzZHshvacy9F+JbHFykD5jNzP5yXDK3r19AsMZ8pt1tGoylKRdbvzY7B1P7Mqp9Ar0LDfLy9+AceRsjH1iWfPcODIuOdmEi87lTZd59/OTPNEhAm/8iAyPg6NVvMoeWcqcn4djTWHiSXCf51n6y0R+9qeqrS4iUhvqVeDiNWV2SdBSeCmNQ/sOcOLTDOtDdetIwu4LJijcwLWismtu4L2XDtmdjFhGLuxHCEDmbpb+yVGvCAtXTtXGUQQTMncpY6Ns/3znmTEd2E3KxxkU4kvLBx+lc/SDdAtyHJwB4B1P3Mu2h5GiS5jefZW9WzdSWBCMV/TT9H1mBMYgT7zCBjN+RhpLZzh7c+dDxMSp1lqroksc3fU+hz7OoPGDY4h7PJIgD/AKi+OxuFl2/4C607mE4//zImb7U9V7Kgn9g6uxBSPRCcUPdhYufmbi4+SDmM/mAeDTKYYfhgTT0XCFq2XWPP/mTJZuvfkQE/TEHEbbsoodTXyFj9Id7K5W2+BfpeDCV5w5mcaZU+kcPlsIeGF45Ef8JDaCwKbgYRjEb2ak8fMFzh4QfYmcEo+HRxO4kUfm4f28vzWdgnZRjHmyD+29q7CNNv1YYmiC9bJKY9/Gfew724weTwxiSFRrPPClx5QJjP54BRvKPix7hzP/ZVvQUvQVh9/dwKqtZ8ksaExItJEJzwyiR1AzPMIGMWdGFj+fkeak1iSYx+bfZ611KviCfZv2s/Pkdxh6D2JM//vwBvwfeZzn2i3htbOOyjCKSH/rx4KzKezb+QnJZwuheWt6REcQ3T2CwCpEL33ahduCnMucyTpS+QqUv6YjfrmE2BCALPa8tIxUB+tcyz5W/kuX3CfaM2BwAF5FZj5YtA3/Z6YSHQgtjbMZEORJYeZu3l5XROz0wYR6eNLxoXhIcrCdNnFMNXjihfXenbxxE6lnfTE8MYbHogLwwgfjlOVkfDyME2459lIM3ZYWBy35nEpKZMuGleRfgsZhk4iaGs+QMB8IMPLU75fyh2cSytRUg8vOZVk5u0n7NoIeLcA7uBt9jiaxryqH1KElpfMueuJbnVuniEgtqEeBi5GoKNtd9Uoa7z0zjPRS/8Alccjpumnkp9i/H+55szr/ah65KbfxPahxNkNtzYsKzdtYkVD6TWduynrSv1iLoYL0n6GzpmL0B8jiw4S+JJe0PsmiMHkuSckHufjmKoa0A7/uo4lul0hy2YczGy8PIOc4617+GenF20lJYkXRZl5+MpwmeGKIGgNJxRm63OhcAtfSk8i1/6LHxOptoN1oOodYJwtT17MsYXGp2bkpSWSC42srcze5dg3KvR6fc7Nc2be7Lf7fmTlqNzkO3vQeSznNxj39WLN0ECEeENjJSFc24uBRF8AatFz5gg9mv85rx22/bkoWyWmFN7fRvR9DSOQDhxuwBi05pkQmzU4taZp2LOUEXy74Lb/u7gseYfw43pcNy/NKrTpk1s+t45zwFTsTFvCHkmv7GpnJycxMPslzb/6GIe2a4N19EE+3SysfeADQBA8PKMrcx++n/o3kguIyvEqm1xzmP3oPEEx4LPBm6TV7vDDCVoarnNm6hBdX2DdLy+LYwRROlwxAWZE2RLRsbp387gzHqthxuuw1XXB1iW3KQkFKmeu9Ai65T/gG0AoLR9+YwKGDWQTFxhMd6INPUDAUmdkydwqZZ4P57OeDCW0HPv4OG5GChzVouWhaxorZK0vuGUdTkri4YAsTuvuARzjR8UZOLDc5PabGzePwi3J+zNe+TCLfSW3HrfCaMpuhBk/AwtE3hrJl082g/Vr6Sg5NTuI/tuNo0i6WvnGUry1x1bksZz/H/j2VHi08oEUbIhrDvqr0o1p7gLSJRozF/9BYzBzbXsVdiojUknqUDtmAT9PKl3J3oSOMWPvpXiJ5WSXNuByahvEB61v+/JRNdg8j9g5waOdxW/OuYDoPNTrfXJGZLfZBS7F1aZyzTfoFdqpuIe8cIb7lmq7cmQodBi0lTu7mcPEP2qxZxWNiFH3Bxmmv3gxa7Lbx4UlbA3rv++j6qPNN5JhWMd4uaLG6xs7VR7lg+xTSsexwitH0faAZAAUp2+2CFntf89rONGsaWILpMbSC4CEnhdfsgpZihz+52bclMKRDmZWieKKHrW3X+b/z2gonfWmqpAc/LD7Rl86xq8bbqQkX3icy97BzU/natYumtzh6FiCL69crL1GuaTHL7IIWqywyV39S0qE8pOPgCrcR0n8JCQud/zfyicrLUX1xRHe3vTRzci5KH4cnnWOmOt6Ui85lWUe+Kf5L86dtq6qulcjYX7zCxkNpmFN2s3LGs8z8uPr7FhFxpXoUuKzn1BfWMTpoGs7Ilf9Lt/4VPJC7pXg632drWnThBKk1Gcph+IOE2jq1Zn5WQc/zXVn8xzbp4x/udLGMHRM46rAcGVzMc/R9PXPwEGbbk6lXxBgmL5xHSEjDbi+RueN1Vjm5Njeav7JN+RLY0ckG8lJ4a7aTJlxn08gsvq4CWhNtP294GAZbJ/5znzlqEGWzK6sk+PH2b+2sEBxOfJudjgqx90LJ+uX071zSJ+bCqZSK+wJVyg9vaxxGUcGtBEA14LL7hIWjOxLK93ErSuOjP26sennyTLznLHnA2eOcL7kmgmlZ9a3eHu1iCQ20Tl40H3De38/uOLy8HR2Fi86lA5mXc23BvAceVc0bAfDZemY+NZSBo5/j1W1u3L9IRBqMetRUDDLmLcO0ZhpGf/AKjGRowlqGTskn81+fkrz/LU7sct7EwD2E0sr2gvhqrrnKTT5KCQwo6djZeeznzB9b+Sp+LStocnCjof9jtZItb/TEkGDED0+CokYwYc0IruZkkZp6gJR33iIz8045R3ZZsPx9b2YVq6aiGxW0MzmdQwHWPiIV3V3KdTO7uQEys6GHL9DY2qSsmHfgPbbPTeg0dhl7qnBte7e8D3DSwb4Gb64J9bf1SblK7q3+7r6tsXWToajIYS632uOy+0QR1xw1cbuSR3Y1IzHnV1Ui/8meBr5AY6joubtamQJdpaNvSQ1lq95LmN97SYWLA9AymCDgfKkvXXcuy7lcQBHgAXg3iwCHPaFERNxfPapxAQoSSRr/IhtMWeTfsH3n4UNIVAyjE9Yyf0syIyePqdMiVlXBtzVriB0U2KLa6xQWZNdoXw3GrnEsfTERU6al5Ksm/sF06z2GCWv28tJfNtMz2s1rYbzD+e27C/nNyCjaB9Y8aKlLPQIr6zNSXlHB17VQEoBC8p1Wy1TRXR7U1c+g+4QLhbasfnPSgryavZgSEWng6lWNCwAFSZyYncQJbyMhjz9NVO8HiQj2sY674R1AxOOzCQn0dD6mgZto3Khm6+XmfAtYM1eZlnYn6fY2nK+/ji8mafxikkLi6fxkP6IjOhHib23W5xMYzpDfbqHVUndN1+rLhEXxRNtS9xak72P9u/vZmZxXqnlSyTgrt6JF41t8GPfF28vxnDM5hVhfu+dxeOlsZtb1tV3Dv9ES357jAt1pD3h4+Fe6uCvdWfcJI02dXBNu4WI+1vx8kLG1L2tWuOE9wONmkFzwnWpbROTOVb9qXOwVmMh8ZwJbxnfn5eHjWPVeGhdttTB+xnhiK8g8U5eKU+pWmDHG3xdneQgKC4prBXxo1d7NawHuRJmJnFjwM1b9NIKZ4xez5bPimjEfjE/OrrhTe11p15voMFsDm/P7mDn5b2wsE7S4SkhIoO0BKY+cGg1q04HA4mf4nAsctpuTWVA8cp4vge3r6J1LSXsmX5z/iTbG36sq5SugyNZmzsO7ddXHfnGBO+s+0ZOWJdfEpTLNq9xA9hWu2CZb3tuvTovijLe3v+3vsoiCagxAKSLibupv4GKvwETmm8NYvbP4TVgAIT0qXqVkTI5G1UhVZtdw36+1oyZpwYTMnYTzLKknyS5u6n5ve8ejz3eax/ix4Th9AflpFhdtk6E9prlFRqwancs7QWYiR19I4MPiJ6nAYCqqsLhq36fiVt7WdxnD0k0fc+TYET7etJQxbStZvn2Lkofigsw0Jx3K73Fa01F1vvyki60zfNEFTtTkLX5cxM3O71+U6cD/6c1O9yE9BuE8pUQtOvVVSSa0EIPjtx/hk37F0xHNqrCxk1z4xjYZ0Ib+NSzSzevKk0ZVjX7c8D7hVNxDdLRdExe/OFC3ZXHkYBrnbfd+n079CL2dEWgV9Q8oTlKRw3+q00atzyRe27CDHRte4/nB7h7gikhD0DACF5vGdg/OheVH/7JziP8UPyEFRdKzqtl+D958GPDr+GiZ7DfBtHxhLU8ZK3pEsM+MFknvyTGlZ3eaxtCXR5RkA3Io5S1SinOHBsXw1Iz4isscUNuPfzU8l3cMz5vtLYsszjMKAdlnztmCOB86xlTyuzhlZP6SOcR1CcC3mS8BXeKYvmw6VX2k8Gjh4M1+QAS/XZfAY0E1LJJN+KR4HrONeVPw6W42VHcD3uHMfzLCWr6iL0jeUKbJTcpuDpdc2z/iNzPCK6yl8A7wcn0txsE0Mm3RlEenPjxX5noOHxnPb4fdV8XmcqkcPn/ZOtmsPV2r3+0EgMx/F9f6BdNlbEyFy5Zwu/uEE97xxD0ZaQ2sisx8vOH2jgNVNYsx/ct23/aOZOSC2RUHggHht7mNdm+63mu7Ii+eZH9VxnABYASr5z5PvygDhqh+TFqwmvmP1FYZRUSqph71cZnH6KT++Jw5wakzl8j+4gDnbZlZvdr1pHN0L3p2KW7kfxzTOxVtK4nj6dPpFRgAHsEMWbyXoD1JHPo4w+7B1MKVU7spLPVKeBsZmSPoGAIExDB+xXI2/3UP2d49iR7aH2M7H8BCYZGndWBHBzK2mrgYFUMrIPTxpTzl9Q5791/Cu/dwBvQOp5UHFJrN5BoMOH7ONJH8ngljcRas3tOY9cBgDu07wIlPreX3ateTNh3bExnRiZDGx1gxfFwtNr+o6bksqyl+UXEVBgblBpfzNuLTsWXpi7z5zZHsyw1Wl28mN71MfcQzm5nV15f09DS+vJDNf0zHbSNe+9LywUeJ7GMkwnZZ5f9rDycqOoStx0gfFU5nD/DrPo2EFT35cPu2kuvUaRlKiaNrmao4z3vD6Qc47bW1N51zL0TRyQM8Oj3OyoUerH8/na9at+Ox2EfpEd4a72q8wgiMGMHogX8n+eBXZBaAd0g7hjwzmjHG1tYH9pwUVi1ykskLoGk7BkyJomhnGsnp1t4B7Qf24dfj+9HeF+AqZ7b9hVXlBo7M4633UohOiMKfJgT2nsBfH0gjed9R/v7pV1wGmrcLo2vHdkRGhBPS+J/8fvjbVRslvMpSef/I10T2vsd6PS94Ho93trMv25c+QwfRp8s9eHCVM+Yc2hucpWK+ad+5M/wqMgJvmhPeIQ6OVv/BPHffCS72Lr5nLGdymz3s2XGA7Ms3l7mWfYz8UlnQ3Ow+0bQ9PadM5dDOPZxPTwPC8RkYz9Dxg+noC2AhY9ti21gmzlU2AKXDvy8X3Ccy1iWR8YD1pZJPpzG8tMmI6RMTqftt94vWkYSFG+gY0ZnQwItsix3E0YoPxXWaPUx7W1Cck/kRx6u8YleCA+w+ehowjjTCx+6enVNE6rN6FLiAV1MfQroYCekC4GSgsitZfPiHBCprfp/9x0SSw6dZOzQ3DaZb3CS6xdkvkY9p0W6S9tp/ZyL5XRNG26j2PmH9GDvbvs2zhVNbZ3HqgSUMcdamyDSBxM3bmTrMgBc+dOw/iY52bUgKM3ezKsFM9LuTCHLW8mrXOFYFbmbC6HD87gavgHB6jQyn10gHy+bYNeWqJTU7l2X4RjJ6YWSF+8nYnFQ6FapxIhNsv4UjIf2XkGDfPse8kZkTZ5VeqLEnXv7BRBiDiQB43HFWusKzu1kzr5I8rAVzSdpmJHSYAS/ALyyG0WFl3pA7KkMpJrIujcBg/0CRm13JeCIm3thmZMmw+/CgCYFRP+HXZR/uLqWyIS2Q0Y9W/rDtbfgRT7/wI55+wcHMS6msesXJ+CjFPO4hMu4pIuMczfyOzB2reHGl42xgBbve5neBXswfHY733eAREE6fkeH0cXhtX60g7XLNHV6wgo0hv2GEoQl438djE3/FYyVzr5K543VezOzDXw2tK695ydnM8a8jiL4HvDv0YtynSay9UdlKZZjmsuXjzkx4JADwJChqMGOjSt//ck2Lyyckcaf7hEeA7b4wycFMCxk7FrNmZeXNxMr9TZfl6O/LFfeJk7NYs7wlk38VY70v+xow9jdg7O/ofnGx1u+59uLCI21pt3NJ++JINdZM4tjpOAwdbgZxvn7hgAIXEak79aip2HFSU8xk5lgovFJm1g0LhTlmTO8tZt6oviQnVyHrS0EiHz7zImt2pXE+z1L1f2j2jmPp77aReiGfq8UPIDcsXDx7gA0vDuLtFUmVDh+Rv3ICKxIPkJFzM/3u1bxLpCbNZeH4KWQX5HOtkiey/HXDWDpmLltM5nLlv3rFwsXM43y0bjHzxo+j1pOc1vRcuoOUYxxNz+LiFQuFZR8oiyxcPGtiy9JxzHtmSpXGWshfOYiFv9+I6Ww+hTV6qk7ildeTMBe3U89NY/3ChEofJdJWvsqLy/dx8oJdz9wbVynK+YLD773OT0cl8talKvbaLSrzC9603lwHAAAFmUlEQVS4SsGF9JLtbKx04NSrFJU5l0VXviYzZR+vvTib8X88W2HigLR1qxg65nU2mtK5kFemLFe+IyczlX3rVjF+/LskV+2IqulrViUs4a2DX5BT/BveuErBhTQ++L2t/N9eq2LQdIS1J89ZJz060adj9xqUJ4vMl3/G0hW7Sb2QX/46rYA73Seulin31Sv5ZKbsZs2Lg1jzx/W1vHcX2DWBFaNeZM2u42TmWEofT5GF/AtmTEkrWTpq0O0bRcVjKk+EN7cW4cwu/qdaHfNNzJy8njRL5UuKiNwudwHf13TlU6dOATBw4EDMZrOryiQi7qbvU2yZHoU3cGbzVCbVYJC/knTLeSm10ITrTtabeY+/SI8WQNE5Ptg0gddro6rIDXV743OGGoA8Uy03WW2ImjPq4fU83cEDvr/Avo3xLKxBRrH5H55ihK15qnnTjxk4ww3TPYtIg1GPalxERO5E+1n4caq1lsmjDY89/Iu6yZgm9UpIm4WM6WBtrJhz7C81Clpo+zyGQNv09TRMqxS0iEjdUuAiIlLHCrLnsfq4tf2fR9thzInof1vHdZF6xuMXvPSIwZYs42NW/2t/9dZva2TEf7/Gjo2T6NoMwIJ566u88qXriyoiUh31qnO+iMid6TI7U+cR4vd7RrT1wD9yEou/yeSXX1baYUikNI/hLO4/jPaegMXMxl3zq9UsM/7tI0zvaT/YmIWsnYt4doYbjqEjIg2OalxERNzCSVYfXMnhHAAP2kf/kmf1akmqJZBnHx5PpD9wPZfknS+xuob9pSzf5WE+tJFFTw3kx1PXo0ZiIuIO9M+iiIi7uLGLWTs8mNf/ZxT94yVWV3mwQBGAC6z++0pCmv2Mon88yyvfXK58lTISn+rufEwoEZE6pqxiIiIiIiLi9tRUTERERERE3J4CFxERERERcXsKXERERERExO0pcBEREREREbd3S53zRUREREREbgfVuIiIiIiIiNtT4CIiIiIiIm5PgYuIiIiIiLg9BS4iIiIiIuL2FLiIiIiIiIjbU+AiIiIiIiJuT4GLiIiIiIi4PQUuIiIiIiLi9hq7akPzV8CIUOu05VswH4LE1ZB02VV7EBERERGRhqpWalw8W0B4P1j6BsQ3r409iIiIiIhIQ3IX8L0rNxjeASb9N/RrZ/186SN4ZJEr9yAiIiIiIg2Ny2tc0k7Dc5PgwCXr54BOEOfqnYiIiIiISINSa53zTWbbRGsw1tZORERERESkQai1wCXxfG1tWUREREREGhqlQxYREREREbenwEVERERERNyeAhcREREREXF7tyVw8dRYLiIiIiIicgtqL3DJBott0jC81vYiIiIiIiINQCPg5VrZ8udgHATBXtCyI3S/C3IvwJff1creRERERESkHrsL+L7Wtn4/rPtvMLYp/bVpCYzdV2t7FRERERGRekad80VERERExO3Vao3Lug1g9AMuQ9KfYePfwXS5tvYmIiIiIiL1VeNa2/JQ6OpnnTy2HhJ21tqeRERERESknqu9pmItwdM2ad5Sa3sREREREZEGQH1cRERERETE7SlwERERERERt6fARURERERE3J4CFxERERERcXsKXERERERExO3VWuAS51dbWxYRERERkYam1gKXfmG2iW/BXFs7ERERERGRBsHlA1CGd4D456BfkPWzJQMSXb0TERERERFpUFwWuMxfASNCy3yZC6/Od9UeRERERESkoXJ5jQuA5VvI+iesXAZJl2tjDyIiIiIi0pDcBXxf14UQERERERGpiNIhi4iIiIiI21PgIiIiIiIibk+Bi4iIiIiIuD0FLiIiIiIi4vYUuIiIiIiIiNtT4CIiIiIiIm5PgYuIiIiIiLg9BS4iIiIiIuL2FLiIiIiIiIjbU+AiIiIiIiJuT4GLiIiIiIi4vf8HOCymsU6t5SoAAAAASUVORK5CYII=;" vertex="1" parent="1">
          <mxGeometry x="310" y="180" width="126.53" height="60" as="geometry" />
        </mxCell>
        <mxCell id="I4Zyjwfel7fduKmOHLP3-17" style="edgeStyle=orthogonalEdgeStyle;rounded=0;orthogonalLoop=1;jettySize=auto;html=1;exitX=1;exitY=0.5;exitDx=0;exitDy=0;entryX=0.75;entryY=1;entryDx=0;entryDy=0;" edge="1" parent="1" source="I4Zyjwfel7fduKmOHLP3-10" target="I4Zyjwfel7fduKmOHLP3-8">
          <mxGeometry relative="1" as="geometry" />
        </mxCell>
        <mxCell id="I4Zyjwfel7fduKmOHLP3-28" style="edgeStyle=orthogonalEdgeStyle;rounded=0;orthogonalLoop=1;jettySize=auto;html=1;exitX=1;exitY=0.25;exitDx=0;exitDy=0;entryX=0;entryY=0.5;entryDx=0;entryDy=0;" edge="1" parent="1" source="I4Zyjwfel7fduKmOHLP3-10" target="I4Zyjwfel7fduKmOHLP3-22">
          <mxGeometry relative="1" as="geometry" />
        </mxCell>
        <mxCell id="I4Zyjwfel7fduKmOHLP3-10" value="addStudentFunc()" style="rounded=0;whiteSpace=wrap;html=1;" vertex="1" parent="1">
          <mxGeometry x="40" y="390" width="110" height="20" as="geometry" />
        </mxCell>
        <mxCell id="I4Zyjwfel7fduKmOHLP3-14" value="button" style="rounded=0;whiteSpace=wrap;html=1;" vertex="1" parent="1">
          <mxGeometry x="700" y="250" width="80" height="60" as="geometry" />
        </mxCell>
        <mxCell id="I4Zyjwfel7fduKmOHLP3-32" style="edgeStyle=orthogonalEdgeStyle;rounded=0;orthogonalLoop=1;jettySize=auto;html=1;exitX=0.75;exitY=1;exitDx=0;exitDy=0;" edge="1" parent="1" source="I4Zyjwfel7fduKmOHLP3-18" target="I4Zyjwfel7fduKmOHLP3-31">
          <mxGeometry relative="1" as="geometry" />
        </mxCell>
        <mxCell id="I4Zyjwfel7fduKmOHLP3-18" value="onclick" style="rounded=0;whiteSpace=wrap;html=1;" vertex="1" parent="1">
          <mxGeometry x="700" y="290" width="70" height="20" as="geometry" />
        </mxCell>
        <mxCell id="I4Zyjwfel7fduKmOHLP3-30" style="edgeStyle=orthogonalEdgeStyle;rounded=0;orthogonalLoop=1;jettySize=auto;html=1;exitX=1;exitY=0.5;exitDx=0;exitDy=0;entryX=0.5;entryY=1;entryDx=0;entryDy=0;" edge="1" parent="1" source="I4Zyjwfel7fduKmOHLP3-22" target="I4Zyjwfel7fduKmOHLP3-18">
          <mxGeometry relative="1" as="geometry" />
        </mxCell>
        <mxCell id="I4Zyjwfel7fduKmOHLP3-22" value="" style="shape=image;verticalLabelPosition=bottom;labelBackgroundColor=default;verticalAlign=top;aspect=fixed;imageAspect=0;image=data:image/png,iVBORw0KGgoAAAANSUhEUgAAAtAAAAC2CAYAAADwZbryAAAgAElEQVR4nOyde1hU1frHPyEMIsMUCMJBxMsoxqCBoTglSpCgqXiLLPOkhRWSeekXWeYly8xSOnnJPGZaWmoaXhI1EdM0SkQ5QAUqihckQ0FIQJEB6ffHzMAAM8NtAC/r8zw+bmavvebda9be+7vf9a533Xfq1Kl/uFVA2sYIRr1/CEOEb/yN6d6WAGTtmsDjr8cbLHsv0uapQTyvtIOyDHbPSuBCWf3r6PjKkwyVSyAvia8WnOSG6c2sE7JgX0Y91gFrY4UKf2PTvFTyq39u74z/VD/cjR188zKHNx7gj1Q9+x735ZUhHYBrHF21h8R0fRW4MOjj/siB/OO72bSpoMpe27FDGNv7fmPWA7fISTnAzvW5lOjb3cjzqJsNlWTs2UTMjzU/t/T1ZvQIN2zNaqng2m98814qBQYLWNHj7ZEMaKvz0aVfWfXxBW4ZqdYk59HYPmHvwsDX+uPWurZvv0V+5m8c3HCS7FzDpSquVVSc2L6Vg3G11Qsgocu0YAa7Sgx+d05KHKcd/XjUSX+/NF6Higs/7WV3lhsT/v0g1lxk7+txnK1ezFyG99tD6av3J8kjefNBjjo+Qthjznqu0crrplaM/R7V7XlzMH3tWhkoYOA6dvPgqbCHcNB7TDHpe2O4oBhJoCuQ+TOfLc2qUcrycV/+PaQDlnpqKLl0lO+WFtDj3UC8WjfR9eXmwdiwh7DFcP0gw3veUPraGD6PChralvWyx/B393g9kAHtDPVvuJ59nJ2fnCa/Xs824/fq2mg1xI+wx52p37WqoUYfM3BNCQQNxDzjaBQbFs1iwx9GSvWLJEQjnrmRRJQQz9WwxaunHQAFqacbJJ65vyM95Oqb14Wk0y0mngEKouNYd9wW98CH6NHdHtvWEswBuEXJzWtknzrN0dizNcUzQO4lDr63heSBD/God0fa21lVHluYz4XU3/h112VuFDeh/SdP87tjJ1wcrGkjscJS5+FYVnKN3LMn+TXmAtkXjUjH2+A8AEriEtmUeJIuIx/Cq7sj9jZaO6CspJj8qxc4fSSD3xMKjAphKOaPDb/iMKEv7ve3ouxaOjHrjItnk9HotrzJjRu3oHUr4BbXb6oq9li2rmwPaIWtay9G/58tuz86woVr+mu7se8kF5SP0hEJ7gO6cTSuLtebirNLo9kyvCcDestxslaLnLKSYvIvnyZx90nOnrlFl2m11LFiD9+P8ubRXs44WLaCchX5uec5vjWZ02dugZsKFRh+eS0rIHHxTgrGPUrfbvbIzIGyYnIuneTXLSf58y/gcUO/6lX+OJ7OLWd79W9Q49qo1p/qch8rKyDxo2guDFEw4OEOVfqnUdJT+W5ZEf2f8cDN/n61HeUqcrJSK86ji8J4FSU/xrHp+oP0f9yDjnYSzDX9KT3+V37de51byCgpBYy8eJnu+jIBDW1LE333Hx/tINP/QR55tBsdtddouYrrf18m5WAiv/9a3Dz3Cy3m9vRVOqu381I5Wh/xDJCeyu44Z573tTe5aQIBwH3APy1txB2Prw8TR8mxJI9fl8SQfLH+VZjCgy0Q3H3oes7zOLo2hkQ9XtFWHezpOcaPR53VL6HZcTvYtt3w202lZ11Fxt5oYmJVBssKBHcEjfFANxkN90C3GRWoEb8qTmzdysFfG/D1Om1icNRUIGggtQ1cCWqlFd36ytXDiJdO8nsDxLNJPNgCwd2IWxd6asJOCpKO6BXPALcu5pIcfbLi4WjZ2sJotfnfJZB8HUCC3N+HLsJJJRDcPrh5MFTjOS45d4TDDRHPgGV3e7V4BnJSDYyaCgQNRAjoxtKhG17OACpOHG3gkLhvN018aB5/HBSXuEBQwb9kFQ/A2tB9WBYUXTdeuCyXXzf/Rg6AZQcGv+KBbbONlwsEAoOYy/B+RhO7XHKe/V9fqvdztZWdLV3GB/DMY5oQkGu/sd/IiJRA0BDEI6OxXDzJd6+fbFwdcQmsiUswjT0Cwd1E8iUuDO9ER0DWy4+BxQkk/5xL7hXtI7UVls4y2g/sRX9PR/VHJRkk/1CHR25qKjv32Konot3/EKMnX+ObpVn6J5UKBIKmx9wa92mBmkmyeRzdYHgug35qTpQtyzvJzlWp9Zz8KBDUjhDQAoHg9uXaBfbvceaZIZ2wRorbowG4PWq4eFlhOjGrEvmzjg/Lkh/j2NZuEGN722Hp+ij9/bey/2CzTpUSCEyOfMhYXhmi+0ktGTxMgk7GkQZi+4wf/s4SoJj0PQcNhmzVSlkx+XkXSf4xjfTjzTz5UXDPIAS0QCC4rSn58QjrjqXSZagHXt0dsbXWnz3ij0MnG/SwzN+0ny2tAhhQdlSIZ4GgBcn/9iCxD/jT8cR+9v/YkIm9WcS8vsnkdgkE+hBZOAQCgUAgEAgEgnogJhEKBAKBQCAQCAT1QAhogUAgEAgEAoGgHggBLRAIBAKBQCAQ1AMhoAUCgUAgEAgEgnogsnA0gqTXxPJlAoFAIBC0FJ/02dLoOmZ5t6/y943/9mt0nYK7H+GBFggEAoFAIBAI6oHwQJuAXp/ktrQJAoFAIBDcc4zfqP5//cSA+h+75oDez8UzXVAXhAdaIBAIBAKBQCCoB0JACwQCgUAgEAgE9UAIaIFAIBAIBAKBoB4IAS0QCAQCgUAgENQDIaAFAoFAIBAIBIJ6IAS0QCAQCAQC/VjDuq9h3bDai7oEwS9fQ7hYIkFwDyDS2JmA3v89ySg5UBDPiief51JLGyQQaAj771JC5Pr3ndk2jfCV9azQXck7/xeEj10ZGQc28vaK8xQ12sraCGJl7FC6AkXxnzJqzukm/8Y7C1usHplB977u2LWVYKlxi5SXqii5cZHU1VPIyW9ZC+8IHF/B7Sl/nM3zOLN3CVknT7S0RS2PNaxbDUpbYBIs+B/MMvSAc4bPp4J9K5i+DEpegrXXm9NYA7SFBS9DUA+QWak/KjgGfRa2rFmCOx/hgb4LsX1yGcEr4ngrZje9G1RDCG4RXzH+62PMW/G+ia0T3LmY80J4CL6d2iKROeI+cjxTvFvapnscs0F0nL6Bx4Z58i+HSvEMYGYhwep+J9q0aTnzmgNLt2l0fG4t/ectp22Da+mDy9hhyP9ljZVDB3o+/SIPmNDGO5UFizTiGUj6yoh4BrgEH+2EEgBbmL4I/JrBRqO4wZ5lENKnUjwLBKbCvHI56hvs+OQG7xoo+OADrXjxUSt8OllgY9lK82k5JTdLyT19ky0/l7K+pBksFtSKPDAIpRzgWgNr8KL/ICVdAG4HD4KgwayaNI1Vuh+ETyd2dOcG1tYGqbWFzt8WSKwbbpugsVjzwNPhKBzUf5XnZ5C6dxfZf2YD0Lp9P6ycrSm/0YImNgPSfoNQdAXIaEQtTli01vnTXEIrg2XvDULnQUgX9XbGdngmqvZjDn0OS5zhzb5g2QUi58GoeZDVtKYaZG4oyDXCOfcYfLIeov5sIWMEdx11CuEY/6iUV/q2xrLGHjMsW1vSvqclr3moeGJvIWNP/WNyIwUCwe1AAV9u+RmvSf1xlZaS90cM3x1uaZvuYczG0l4hUW/nH+Pwf96huLxyd1F+CkV/tIxpdx7RXNzzGE6j3Xmg1XX+OrSLqy1tUgviEgThfdXbJafhvc/rfuzaeSBfoRbfsr6wIAgm7GsaO2tD6abZSIenF7ackBfcnZi/vSZPs/kP5/QUcO5mVSmeb5Zw8vdifvytnD8BmV0rAryt8HGVgJmEBx9vzWuni/mkXE9FAoHgjqcoJoqJMXVwRQmann91QKYJ2chJ3lZFPAvqT9lvr3Pkt5a24vZg7rMgA1BB9McQX8/jZy0H5UfgIgHl8xC6D9Y2gZ1G8QPN4AxpiUI8C0yP2Q8F5aj//cPJGrvv49WH26jFc3kxP64vZGxcGV9ojtl8vpSwrQV8kapSF7e0xMfAhCVTEhAQQLdu3W67ugQCgaDZcLariNMtvpbSoqYI7h6UL4Ofo3o76wDMutCASk7Cyl8127YQ8rKprGsYBVda9vsFdye1hHDcR1vpferNojJ+MxAPu+KvMl70kADmWLbWX8ZUjBkzhkcffZSCggI2b95Mampqg+saMWIE/v7+JqmrCvbj6DsrHH83e2w0I6yF2Wkc/HI2Rw+kGT/WNZS+rzyL0sOFdtq2LC+h8EoWiTFfcvCbKMqqHVKRBaQGckbFnmSUnj358YuInKP1CbzPxNgQuuitIoQFsSF6dhQS/1EfovfrfDTwKyLeVGILnN32IGv0ZngIJXjrDJQyICOKWZNmV90dvpsFo+VABtsDh3JcGozHa5MYqJTTTtOWpQW5pB1YyZYVG/R9gQkxx3XQIKaM8Ubh0haJdoKWqoDs82n8sG4HGxOK9R5Zkf0iYzeBk/Yh9VLy+uQgfFw19ZSXUnTlNAdWrWF5XPVfVA9SR4ZPGsqIPgpc7SrjkFU3r5KdHMd3qw+zN7MO9dSbygwYNTlHVOCSqjHWtSD18iTsmSB8PByxa605j/JSVH9nkbx/H6s2pZHZgLQeivDpLB7dGQmA6hw7Z33K8uSmaI87nD7LeWKkHLhO2mdPcUFvPOiLeCwYjSvw95HFHNl1sMreti/swacrcGYbP3z5Bdg+g8vIYNy62KonMZarKLicQfp3c8m5XIdJFLbBOPsNw6VHB2ytNDPby1UUX73MucPbyEqO4ZaOd73i+2sgx2fBHr1foe88aP8uj7zSR/9kwfxj/BT5Dvqv7upY06rDBDoN7UcHJ1ustN1adZ2rZ5M5s+cz/r6qPw2KydvSBIT212xch6ilDa8n6lMY9ygoJCDvDyGfgxi7EtxN1CKg/6HwBuqxHKtWdLZEM8W2KiPv1063UJHTxG96V65cobS0FDs7O55++ukGC1+teG7VqhV5eXnk5eXVflAdMB/0FdP+T0m7avlNbJwUDJ+5jnYWo4iO0T+YZDNhG5P/rcCm+g4zS2yc5Dw24X36DgpkfXhYg0TGnUYrr0jGzx9G92ovZRYyezxHzsHVwZLIeU01MNiWF5ZF8Ky7nhQGEhlObkpeWODNEwfXEv5BmtFUbr0mT+f9kRpxp8XMAqmTguHvvIPdR3N4d7+ho8EueCxLX1bipOflVNK6La7KEbzuYM7eSS0UaFgnrBg+5zXCBjhWbQcAMwskdp3xGROGnXn9U+spJkxmwV0vnm1pZevKfboftalsSYs2npjb6jnsVh5lBRebyCYJ5j7L8Q2WY6V7vzOTIPuXO71f/Zy0/44zINIBbJEGfUzv/k5Vj9fUYeXQAcWT05C2iiH1WNOcQeNx54Gx79G3h3WNlFZmEmscHuyHw4N9yD64kqT9MUbqaWxbmogA6KXJK5D7P6hvlssqXId9qaDoBdhDyDCI2mUCGwWC24RaBfSWlBv4OrXB0qINI58tp2DrTT4pqCzxRNfW/J+3enphSeYNvr7chNYCP/30E2VlZYwYMaLBIlpXPGdkZLB582b++uuvxhvXuhfjIyyxAopz04iL2krKeRnyp8Yx2NseK2xQTl3G2V9Gk1pNcVm9tJtpY+RYAZQXcjYhhtgdRylEhkO/YAIDvXBuDVZOfoyPfJ+lk2ZTqDk2+T9vkKGjuj1fWUygK0AWsW8tRd/gbllOks5fG9ny1lGdzhDImA+DcAXI3EfkZ7F6aijh5qn6NlB9cCFwgRwrCVCUwU9bd3H8RAEO/s8yepAcG8C237P4dlpL3HlTf7eMsBUzCXHTuJIKzpGw9yBR/7sK1o74DhnEYG9HJFjg5B/K4vyFhK80MOWoQxDvyy2QAEXpP/Pd7nhOFDkS8HQIg93aADJ8xw7Fdf9uMvUcLh00npVTvbHT/K3KTSNudzx7T1wF2uLu70l/T3cDHmJT8DMfv5VW5aUu4JU3GOxanzrMGTz/baYoZZq/b5D3RyLfx8Zz4jLg2ImARzzx6uFmrBK9KMaE8s6/3ZDCXSyeAZ7kwQi1V1gf/wpayL+C9Oyolye1nrQPYkBXCZZAwcmDpB7eR5GqK+0GPkPPB60xM7PlwSGvkLX6M27VONgaq2Gf0u8R2wqPc84fv3Amfh9FBYDMnXY9++Hco+bQ2tWomcTqPLnahSzEsxPARVIiP0OvD+fmmZqf/fUFxyK36XzgTseXxuN2f10boANtn1uIz4PqF5ny/IucPLCNP89lQ+uu2PYdioe3E1ZmEpz8w/G4lknqMQO5pRvVlqYjdIAm9hk4U9/AZz2s3A+hvdR1ynsDQkAL7iLM41+UculkMat/vcUPeiahJKTd4LO2rXittyU8IGX8C1aMyrrBnsRbuD9qzUOOapFRcrmAz7aXEdcMRsfFqb+lISI6ODi4QjyfPn2a9evX8/fff5vGMIlaPF+JX8qKOSsrQi2OJ0Zz5YPthPWxAYkC31Alqct07k7SaQweohHPqgx2zgrjaHKllzo/cQPpa0MJXjMDpR1YyYMZGDyb7dHq/WXp0egOEBaVLtZslVCUWHWfftIoTNQNLelbGSZSWkB+YnQ9GsFUWGIlgeLMfayaNpUczQtHfuIG1ljFMX2APeBCl0CIW23ab5Y+GcJgjXhWZexmdsQ+kipeeLJIOpzIl4PGsybCGzss6Bo0guEr17JTX2USCySUkrnnU6Z9ol10JIukw5eRbnoDX3vAtRtPgJ5QiG7MfFkrnqvXoaknMYWNgJ19UyU5LeZMYtURE5/SelYx8FnCtOJZlcXehZ/wcZWwlSyS9sQBVtjVYwUz6aDxvPOSp7p9VFnsXdh04tna5UG6OtTMQ2SYIjKTMupw7d3BWEmwRMVfexeT/PMvmg9TuPR1JmbT36WnA5i5uvMA1Mxo0X4GXlrxXHyRpNX/R7ZuiEJ+CpcufMulXbbUGLIoTKkSxlZS8YeKkvyUGiFuBim/SFm+rnfejrL6TMTs+goKjXguObOLw+s+0zk+hZwdW/kp8V0eebkPD5hJcH18PBeOzdQ/WtWYtjQhvTpoNooh6YAJKjwAGa9CLyuQdQAl9Z+Q2GDu9TyEgibH3NKmNZ37tOaDB6/juamYD/WEWa3/uZCcv1RMDpTSvnUrbFxteLrCFaLi3E9FvJ1UrmcSYtOhFdHDhw+vs4gODg7m8ccfbxrxrCE/fhFL51QPK8gi8/MjZPZRe3Vduw+jym3kuSB6S9WbmfsXVRHPFRStJfqbIDymemGDJZ6BM9gevciktt925MWzXkc8a8k5cob8AfbYAu1cQzHt/G5zxgV6qj2aXObAUl3xXElRzHo2+LszxbsNSBUM/Dfs/MbQaaytJnwBsvj5TAG+9jKgLa4DgWphHNIJQXhpdeeJHXrq0PmO3CbxMZoAc14Y/pCmPUs5sam6eNalmLzcutUqrXiBwYAoNy19Qt8lwqc+Sa/Psn3YVNaYzIIvSJ31BVXubhXxzJC5Y0iLhDn8fWSljuDTcoyrZ66DgzWYOSFtD1erhB5Y84Cfpyb2WMW5HdXEcxXyQdUEhjcaa9r219wnyrNJi/pMv/i++A6/J35H/z7WYOOOSw84aSC1YMPa0rQ4aMOALpsuXjknH7AC7NULqzSXgFZ2r/SmZx1vpi8V3FOY/XxR406ysebp4Rb41rsKCZ0ftmR8PTxHpiIuLo6dO3dy48aNChHt4eGht6yueE5PT+fzzz83uXimIJ4tNcSzhvPJXNKGvti7VKTXAfBw1w5TZpG8+pDh+qP3kaqpw6K9AudGmnt7U0j82uf1x3rvz2pCz54SD60X5vxxVhlZzXfnwRMaQWtBh+4GMrkUJPLlHP0x0gcuGfclDffWxk1fJWFjXDMsmd0UKOkl14TC5CbyzTeNF7nSQSGVYS3NIJ4FBrh2jORd+uN6iy9nGzkwGKduGrdyzjHO/XEnrtYUjIPWiXT+ONmFhksWJaahvm1LsO3kr79Qg9vStGhX6yu5Zrq0b1na556kUtA2KW1h3FPw8WPqP0vSYeWd2MUEtz3mU6MKiBxrx+NO94GTFc85lhJXJY75Pl4bKGV8T83w5c1iEmKLWXOtFW8Nt6GzzAxk1jwxzoLOLbCQSl080dXF8+rVq7l582aT2GP4Mb6Wv3JmqO8g5lCZRyEYZ+1bf0EWF42qJJ06ZA44AMZWVr3jacpgP0N4O2GrebYXZZ8zLlpjssmOgK6A1K4DcFpvsYY50LrRTRMexc0sUptt3NPEDOiAo6Y9VX+mk9DY+uz6s3SqJ04SmlU8//Te0/zU5N9yh9HQvNOO8oprrPjiSX3z0m9/bDsg1ZzD35eNvGUDXLzI3/RR37Zt5cDBmmVuhxze/SvzJpeY8PGYo7MgrkMvIMlg0cbxApwK1vn7FuSmwIeRIge0oGkwg3/4zx/a4V8J7TtUmefNyEetK8VzXiErvrhO2JlyEnJKGb0mn/W/a25/ZhIeHGzNMjuanbi4OLZv305hYWENT/SwYcMICAigVatWnDx5sknFc8NwoLWeRA91waL2IoL6YttGE25QT1rVaVHPeiHRVqkqwzQ5YloAiUVFCKuquMBo0TpRXFb5QiKRYSeWEr/zMK8Mai4puUN7dhtpg+6/Zqa/TZiOu/CBIrEGWROn1hXcu5gBXLpyqyKjg8xGV0Cb8/TDmt5XeoMd35bwRZUJRP/wyf7CyoVUzFrj83DLRO4fOXKEnTt3VhHRY8aM4fHHH8fc3JyTJ0+yZs2aFhTPSlqbcp6XqqRpZtYLGoRKdaOlTbg3KD7CG8sSNS8UMnymvkqYewvbJBDUkbKbt3Eg1gHI0Wyacj0HXQGb01TeZ4Avofto6P4SLNkLBa1A1hXmzlNPXhQITI36fVg376TuaKhjK9pr30rPq3jXwFjbivibjPSQYA9YOpjhw63GD9U2gCNHjgCV4RwDBgzgn3/+uQ3EM0BfHLTe+bxcndAL3bAMFzpI4ZLBe2wo/9KOseXl3N3hGy3F/myy39SEZTh1Rsppw2Ecg5xw0mzmZZs6l945svOo6Be9OsEBk6frawbis8kDpIDUVYErp/Wm66sPRTHrebeLnXrhFElnQhZNhxlLjMarN5bH5m5u4UmEzYiZpEZOY5Py12WKgAeAB1weohUHWyRaq1H8eZEC1IuwPODojt6wDC0dOlQs1pKf04Sd1ASUqAAJWN4PLpgm9MFFmxawuFKgNylXYeXnkCODBY8C7SH0IYgXy7QLTIwZgE97c02e1zL+zNYfjFV43UiQVkE5RuZQNCtHjhxh+/btXLt2jfLyctLS0m4D8QwEP1KxIEhmWtX5zRmZ2tQDLniFGnlXfjIID80sjPzzRw1OpCuteBpZ0qpB8QhQMdDQqh6uCJ1gX1vHcXoKuOA6Pxxls8wkqfzO4Jmfsyf+N36L38Pnb/jVUj6NTO2cnU6evNDJUDlzQgLdNeEeBWQmmDrKrozUbG3IgyNeo9qauP5mougcFafh7MFTJvIWp638lOXxmopbdyZk3ngGN7Cv31OUacNtrZG201fAnbYTgnBpShvKT1CgvXm198ShxspR9aTC6SPBrEmVvy7HyNfOFerkiZPB0UVrpD4KzeS56+ScuL2XXM/R/i6OoG/92YbgolkWnPxmTGEHRP0PtLceS32LDAkEjcQcs1ZMflhz9V+/yY+686CK/6EEsAFsulgw/lAJ6/XoaF9PCZ012yU55S3ifdYlISGBhISWtkIHaSjB//ZSv6SoMkjcXvU2kr8xnkz/YeoUd4Pm0Dt2KMerOyrswwkeo6mDLOI3Gk7dlvlnLrip8yT3mODH0RVGMnvo5Sh/ZYfQ3Qlw9qKvOxyti+PkcBZXAFvAtvsAHNig43FwweG1rxivbOzTsp48v4C5zys1DzA5fi9+wOdn+/HyVkMHZLHhWBYBwS6AC4PfCuLHSfuovgC7XfCzPOWpCV6/dJwNRlYSbCgHdqfwgrI/ToDTkOksOPMBs6L1B+7Y2VvdpqnsTvN94lV8/NsCjgyeN57Tk9ezU2+6Oivs7Ouayq6MvXOW0HFFBCFubcDOmylLr1E07XvimmCU/Njad5gVXc880KY3o/FcyqYAOQ8Azu7jSU1ar7PTHdmTs+ndtcZakSbmINnJz/GgvxNmZk54vvQuRZ++Q5He2ba2IDGeyu7aX9nwoBPgiFNvd3ISmsPLm8LlxIuUD+mAmVkHFM+8SO6XX9ScRN5lBj291CMX5Rfj+LOpVxJsJPHnwc8RsIJeAUBjc0EHgFwjL3LTm1dA33nDGoI7DfNtoQ/Q2RqgjJMHb/KF7t6CUuLOljGyiznIbHgtTMITvxfz42/l/AnI7Mzop7DCp5vmwVJygx+O3MO9tnVX+k6dxtEDR7n0RzygwGbIszzxXAiedgAlnN21iOPVh+LPL+GHeD/ClDYgkTNqyTEUh3byU0yyeiVC/yd5wk9BO40zOP+XjcQZeUbkH0jlir8f7YAuI5cxuUMssXsOkaOTyqcsJ4nCTENe02iS09/kMSd7kLgwfNF+nGOjOfrLWZ246xJuntpHcRWxsouzmSF0dwXs/Zi4YhnbNseSI+2L76hBKDvZACUUq9SLpDQH4wYoqqVOssfFGzAooCFz7W4S+oXhYwcS+VCWbu3Gge1x6tX/rB0JGDWUgB5tNZPjCoj7+vsaAtskxO9gQ7wnrytlqON957N5+G/E7T1C3PliqqxEeP0ggdWX8pbKUHSXUUX2WVfOFJJYu9DLW2df4VWS0quKcKmrI90cqs4uklb8aYHU24VeulVcyOJMNQGcsCyKBE91e2LnzZQN3RiREM8PsSlkXKfKSoRF++qzlPdVVk2OhP/OJERugcQ1gJmRxbyh54WnsVzPOknK3TCV//JvZBf24wEbMPcYTa+REk4fOsYth8foMMQfuYMEylWUlEmwbMJrtOTAZk4+NA1FWzBr24d+b2/g0vFfuJD4CzduUmUlwuIfjee4LkvO4Kq/E22R4BK8EHPnfWQc1dSj5eYZyoqr5TKz8cS8yqQ+R8y1HmwzCRa2npUjcaj459oJbuk4kG4d2cbJvupzsFL9oFsAACAASURBVOw6mscjPEndu4vsP9UrEbYbMBq3HrbqpbnL8zkZvbTui7y0EGuPw/S+YAn0GkijBXSIsjJ1XapIYyO4yzDvbHMflKs4ubeQsTWycP3Du9GFOD93Pz52ZtDakgf7WPJgHz013Szm5x03ePdezrcosad3cDi9g8P17Czh7J5FrFmpzxucReacCLYsi2SMuw2Y2dDdfxzd/auHQZRw6eBSVnxQy8Ih8fPZ/osHYf3sAUucvYcxwXtYlSL58YuINJSzGsj5ZC1xihnqlfJau2jOS7dEIfEf7SO6iuc1nrhN8SjfVGIL2LgFMWGO7vrCJZzaMZtTPRczvOYKvU3ChtNZzO2nqGJDQW1CqCiNWfO+Y9kHT+EuBWRuBExwI6B6uZuXOfDpIhY2gfdZjdrLKv1wMmHebQEL7Dp5M3ySN8OrF83Qc7hyJAve9DaYVcR10BssGqRbx+4aItznpVeZaTDmxoXBH77BYJ1PzmzTI4CL0pg1bxOL547Fyx4wk+GqDCJMWXPtaT0LLtfCVVZFrMV1TeULzzvzs5hoIPe2IJrMmCA6h8ixRIJTn9E49Rldubs8n7Qvv4XR4Sia8iW3PIYLq6WYTZzIgw5gZmGLyyPDcHlkWI2itXryc5fw+2EFAwbYYmYmwanPMJz6VK3n7yOLObKrapxy25CF+HQ1UOf9nvSL8NT54Dppnz3FBV0PcnkMF1Y7YhX+DJ3vBzNbOT3HTqNn9VO9kc3v66dw6Tb3PgOwC+KfBj97sPSAudbwXiOe6SEPazZyYd9Rk1goENw2mJ1L/psPPyswnL+5/BZh6/J4d1ch53JUlNzSKVdeRkleMb/9ks/bq64z9a/mMfp24/jsMFatO8Tx87kU3qw607L0ZiGZiftY88ZQ1nyywUgth0iZOor3I3dxPLOQYt1QGVUhl9IPsXHW2NrFMwBZZM57hsgV+0jJrlZXXSlayw8vvcGamDQuFZRQ59Wb9z9P5Lu7SMkupFT7veUlXDl/iI1vDGX9iujmHVlbuIS1R7MouQXcKiHrwBIiPqvDcSfimPrcHD6OTiEzr+rZqwouc+bwd8x64QMWxjS1T+kqUW+9x9MLvych/TJFN3VtKVXbEv89C2fvM1jDbcGJeN4Y+xYLtyRyJrsAlW6fLC+lKDudhC2fMqvO3mcditKYNW83ZzTD/HbKMNbMVzQsHeE9wK2kKRz++heyclQVq+eVl14n57dd/DR/HBfONtOrR+FWzi0Zx09bj3Hur+sU63Tt8lIVBX9lkLZ1cR1WWLxOcczL/Lgmhoxq9TQ5hes5GRnGT7tS+EunPQFKrmVz7tB6flocyqWLd45naa02zkICg15teD1+06CXZt5tWqzpVjYUCG4X7gOad+WTu4ik19TLL/b6pI7rDwsEAoFAcJuz7ltQ3g+oIPpNiDhZzwqsYftG1KMYl2HW800noMdvVMeZrJ9YbYzQD45NU4eQxC+FCXoGf8evUR87y7t9lc+7d+/eFKYK7jKabc6yQCAQCASC259Zm1GvECmBoClQW+6i6ixYSEUIUPz6lvc+O3RsYQMEdyVCQAsEAoFAIKggazss0cQsW3aByHnUObWh38sQ3E29XfArTGhsJo+GcrwyjZ1cUXf7BYK6IgS0QCAQCASCKqydB1Fn1duyvvD5y7Uf4xcCkaPUWTxKzkLE/CY10TjXIUk7cdMNNs+EkPZGjxAI6oUQ0AKBQCAQCGowawbEaxZXkQ+HBc5GCjvDm89r0tblwpIZUN8VCExNxHLI0Ewqte8DC5bDqW1wbGbL2iW4OxACWiAQCAQCQU2uw4SpEJ8L8ctg1iUjZS9BxH8hNxc+mgRrb4fEI+kw5BWIOgYFt+M6U4I7GvPaiwgEAoFAILgnyYUJz9WtaNou6Lerac2pN1dh1kKY1dJ2CO46hAdaIBAIBAKBQCCoB0JACwQCgUAgEAgE9UCEcJgA7YIqAoFAIBAImo9PNP9rF0UxBeKZLqgLwgMtEAgEAoFAIBDUA7GUdyM4deoUAEOGDCEjI6OFrREIBAKBQCAQNAfCAy0QCAQCgUAgENQDIaAFAoFAIBAIBIJ6IAS0QCAQCAQCgUBQD4SAFggEAoFAIBAI6oEQ0AKBQCAQCAQCQT0QAlogEAgEAoFAIKgHQkALBAKBQCAQCAT1QAhogUAguA1QdFzOt76v4CXuygKBwAQoOi5n22PintJUiKW8BfUiYP58ZiplwDmiApewqt41BLEydihdgaL4Txk157TJbbxTaHxbCu4WFB2Xs+gxORLkzL2eweikmJYzZuBXRLypxBY4u+1B1qysfxXO848xWWkDZLA9cCjHTW3jHcP7TIwNoQuQH7+IyDlrW9oggTF0+n4NCuJZ8eTzXGpumxrKA7OY6ydHep+c9weomPHTF6S1tE13GeK9RHD30knBC2+HsmZzJJvnd2tpa+5wXAiJGM/KrxcSuyKopY25q5A+8C5z/eRIANXFGP6T0oLi+Q7E9sllBK+I462Y3fRuaWPucERb3kX8vYSvUvIBkHQczVzPQUhb2KS7DXPtctSQQVT3IcwyUNClbyjTp43Dr4cLMkvNhyUF5GYmEfPlEt7bKt5tBKbEioCXnuKpAd1wtZMhkVTuUd28QdGVLC6n7GPqMiMe7K69Ge7viRQoanJ773YUPD7Im64A1+t3ZKWnvXbObJtGeAM8nncskhdZNLgPdvcBecf49KelxJW3tFHNhQu2I2fwWPAjeLSzwap15Z7SmyXc/DuLSxmH+G7eIoqN1CIPDEIpB7jWxPbe/dzzbbn/eSL3634QSvDWGdTx9nWbcZ29Ke/jaruQkI4S7LzCWfR3Jq9cONHSht011CGEw4XgecuZO1ZBjT5kKcO+mx/jPlCi7DuLl2dEk9UUVgruKaReAXwwZwTuBm5aktZtsHN1w670NHDvhoAI7nTcefnRYXS1BP7JJ+7wO+y9V8SzfTiBH0/iMWdLvbstWlti4SSne5scbMGogBYIBIY4weeHV+I6dBo+dhK6PjqdV/8K41NVS9t1d2AeMSNCs1lAhp4CLjOXs2CsAkuAggyiv/iItasOkYYCv7BQ3nwxGLnMEvmIuSxIT2LCF0JCCxpBpwAWLxhBV43Hueh8InEJqRz932WN47Mt7spOeHR1w7XkRgsaKqg/BSSvXcXGdMMlCi80nzUtjdT5RYZ3VHf0vKQveO+ecfqF8sSKafjaqf8qzk3jaFwSp+KTKQRAhsPDvegod6fLAyWUtqClAsEdT3kMH/78KOtH9EEq6cBgnxfZGfcFmS1t112AefT30UZ2hxM5RiOebySxMuQZllQ84NI4tCqCQ6fhx0+DcWklQ/nCXEK+eJmoJjdbcLcSMNFfI55LydyxkIkrrlYrkUVSYkoLWCYwBaqcLJISW9qK2wF/3vJxRwJQlMJ3qQdb2qDmI/zJCvGcf2wRkW/XnFiXn7gBI+9ZAoGgHhT9vYjvTm/ghW4SJPJBvPz7F8y+Z17Ymw7jIRwzg+jVRr2ZdXiJjnjW4UAEUclBTPe2BHsPgkZA1PemN1RQB6QyBo8M4nE/N7o62SFtbVG572YB2WeO89263exMLqulIp3443YyJNqppqobFJVbGD2ywhQvT8KeCcLHwxG7CjtKURUY8ye50LeTJm5DdY4fa4jnWhg4nu1veuudKCFVvkpsrL6D9GTA0KnHcExuNxZsfRUfGZCxm8BJ+wwY1fi2ROrI8EkjeeqRbjjJNMeUl1J05TRxW3ewasdl/THe4dOJHd258hyljjz72lhGKDtjp/Hwqwouk3FgI2+vOF+tjspsKTWQDyU2dqieHQUkfDSHWfv17GoMFedhrH5j2V0qfyvtPruAocx7wRd3J80NrryUvMxEvvvPJqLqECKot3+Xl6L6O4vk/ftYtSmNTCOB99L2w/C6X72dmfwZW+sRumHuMw3vYD+83OQ4SC2x0s4PKC+h+O8sUvZv5IfVG6jtKjcPeJ8nnnwMj0722OjWcaOu6ZkUOL80g4EDPOjSzgaLir5dQmG5/tAMAA93uWYrl5St9c9K0fu/Jxkl17dHzqjYk4zSs6dmBgyd2NaMKGZNmq33u+qcTcRrGo89E4ynhwvtdGK5iwtK6nBGoG3LJwb2ooOdJdo7Q3FeRi2/Z+V5aM/RPCCS0S/4oXCyUddTXsKVzHh++E8Y6dX6tmnaspGE72bBaLURhYlL+fAtI5MgOkUStnoYrgCZu3h/YkTV8B6pEteRL+Dt50F3Jxtat65sy9KbheScOcIP6xZxNrmJRsrrlMGmbn2v4X1CH9fZlPwLT3T1x+k+a7x6jEf6y/q6zw3qGMrnX07Hr70l5Kex4e1RvHegzl9+12L0Phnq7qLZKiArKd5guZW/ZzDdWwHYIw9QwveGywqajoA33+B1Q7MdWstw6hHAlMW96Rv5LrNiDFx67koWzx2Ll72efZI2dZjFa47va68xc4gLkhr7LJDIjIlGq8rJgpI2tL3TZ/81ui0Bd1+WffAU7tULm1kgdVIweLKCgMDdzH5zH0lG2kriFcTK+UPp2rra5zJH3Ee+xhqHT3l63r0QT96G4fPnMkXZturHZhbYdVISFulI28lLWHXe0PFWDJ/zGmEDHGv2bzMLJHad8RkThp25scmQ1jzbTeN9Vp0g7tzFetj/PhMWqNOi1cDMEis7Ocoxc/D0dmfppNmakIjq+OH24QImeOvpmGaWWNWlY7rPYNTcUHrr7duW2Bg51LyVdsuS1vqOv6NwweG1rwgb4oKVnr1WMsMvEhVIQwlcOY3HnGqW1f6eyoBA1kx5nrO5xiqypMv8OCYqqzWqmSXtOvkxIXI3WyYPJcVg324hvo4ndZgcDwnY9AzEg5WkGihq+6xSLZ6BzJSoGrHxzm8uJ0ypv/dZtLbBuUcQExc/QnzkKKJjbuNwU5P1CR1ufEtClj/DO4BE3o/nj67n0zoq8PCFGvEMYKtg3FuR7DsQwb2u9EyTBzoth1zAHpDZKuCeb9YWRHWVzPTzpJ05S2r8eS4DOHZi8NBBBLjJABk+U8N49pcVbKwuuKQKFswbi5dmeLXofCIH9h4h7nwxWDvi4+uJbx9PnIw8YBXhr1aK55tXOXHkAHti1HY4unvT/xFPvNza6hHXAKc5fbkUXzsLwIXBS0eQNO174uoqouN3MOutA1TcctyCmBuqycKRuIn3vtN3wyymScJuTdCW6jo04ll1mYRNG1m14zyZRea4+ioJe2koPs5tkLgNZe7bWTz3dpqB9w0XBi/orH45KTrHga0H2XviBnL/oYwb1BkpYNdvJFM6LWZ5xcP1Zz5+K01HCHnz6ocBGs/PAWZ8pi8Oo5Srp/R8fBshefg5pkgsgFKyEw/y/Z4UMqRuPDt2CF5OFiDpzOBJnqx6S1+YkDmD57/NlIqX1Bvk/ZHI97HxnLgMOHYi4BFPvHq4GTfCbCxeWhXw1wmiGjBxsDA7g1MnTnDxVBIZ5wsAGQ79ggkM9MK5NVjJQwh9O5mlH1QPqHPBdX4kE7w1v2xBBvGH9pH4y1mKkeHw8AA8fB+mt7MRCSwNJXheKL21YRjn4/l5byzp5wvAugty30fo28cLZwN9O/PPXHCzB2xQhn7LqcxnanhGjZH8nzfI0DHP85XFBLoCZBH71lL0/XJlOUl1/4J6YBO+qlI838wl5UgM8THqWG4b90A8H3kYTzd7veJajR+9I7VCqZBT0WvZvnElhblg7haO97RQhrvZgL2S8Qsj+filCAMvRSB9eBITJZZACZcSY4ndc4gcaV8eGxtMbydLkMh5YlI4KToe3tuiLYvmE38iBA9PS5Ao8JzgQuo6fffqEHr31LwcqNKIX2tAZ6gKyUxP5dSZDM5q4+odveg9dDiPudkANiinLuPsL6NJvS0dNKbrE1W5yFcZGQzvIIf7OqBobw0X6pZSycW2mpC3dUAoPTD/7dgvZCXvZOX7HxFdTUnkXNdO1ZQh+5eRWr7P4doijYB20DseJGgGEpZ+wKjcYj0iKoukPfEkffAOr/eRgaQzypGw8ZuqpXxeC8HHDqCUMzsW88YK3dCALJIOJ3LaWEoyqS+ThnVWi+O8RJZPXs9O3bfjxCz2flNsODQA2LhyH/0jh9JVAhLXAN7Z5EHyzh0sr2VIHICiAtISCyr/ttV5vS69SlJi83kcGt2WwPDZz2nquMzeiA/4uEJklJEZF8esuBNMWT2T4Z0skPYZygud0nQEsC4WSCSgyjzAQp0XkqTEJWRazWXBgLaAC4pAYLX2mGLOVGkvBRUTt0uLm7UtTYlEYgEUkLx6CW9s0YYIZZF0WMWyzU/hLgFpZwW+pBBX/eCBzxKm/b1UWexd+Akfx+m6cLJI2hMHWGFnzLPaVo7rferN7D9j6jnIspF1Y2dTpsfrlJ+4gfTYSCZGDqOLBNq5B2JLFPm6hZRzGKXx0BVn7GJFRAT5RdXqOPcVckOLSQAOr4WitAMo4eyO2axZUXUezfHDS7lUEfqgx85la4n3nKGuw86LCUuOcSr2G6K/Wkp+HbxpZenRVc6pqHSxZquEosSq+5oU6RyCh8nV4jgvnjWTq3oD8xOjyfzmfdrFGhgxAKymzmGUXC16j/93FNu3Vl5XZekrOTo5mr8+2E5YHxssOgUyMBi2G5i2ZCFRC67jqyPYvuWQ5tNoth8uwWrzOLWHt3NfHFhJTsV33B5tefbQCQo9vbAB3LxfgHXzaxZSBqLQXFfFJw6RoufCubR0ArNy9aXUjSZ2z5ec0rQlEgWeIyH1Gz1FWxhT9onqFP15hmzkOAGu7QbDha11Oi76eAbBXeQVzqmC3w8hlgQCM0uZPfIBoURGbWduQNWd0b9fRBvBpfCPxM9QLR0tqcNAlaCJKdIrnrWUsffAac1+CyxqPNu8ecpHM6x96WeWrzAQV2sE15cG4C4BuEHy1o1VxXNdObGPNxYeIPOm5u/WjniNCWPN1oV8vWI8YQGGfTm3D41vS/BlYE91fG5R4m4d8azLVZbvTdMIWxd8RhlJVpqXyHI93vyEI5Wxz06uTb/YjMTBhV7eBv71kDVDov9SzmzTFc8aiuJI1UZS2DniUeM4c14Y/pDGvlJObKounnUpJs9I33d9QBv+cZ3MnPqEbwCk6RXPFZyIIEVbZRvLGp7PLiFK2gGQS9zSquK5bkzD10ejYi4dYsuKOj65dSlaS/S8tRzXnoeZDd0HhROx6SQRa77lsZHB9a+zBbB6yQ8PCUAJKVtn130ovYJgfPtowiQzY9m7Vd9LaRaZnx/RZEywxMNvmpH6Sji7TVc8ayiaT3pF33agY33NbA6io0jUtJ+Fu5Leem4EzkMf1vTdElIPLdVfj17xrCWLzAOpFS8FVsbijFoMU/eJapRlka1JXiWx74JXHQ+Ln/Mysz7bR9LpNOK3vMeEUCGfAcwPXSjBr6MlyBSMm72cQwemUHH5fbaSQyGfE9Qe6BhM5C5LNqzfQNSWeLJQ4PdcEMGBQfj1ltfMES24sxjkUREfm30qsQFLfpozQuGo3lRlkbSl7tMbqlMU9z0Tk+MZPmkk4/wU2LUGzNrg5OZNyExvQsLS2blqLcsP3KbZYRvdlsCTbsg12Ugu/mEk60hMFtmTPHEFpHaOQIGeQgUkrF3PXn1iaX822W9icETAtMjwCn3D8E27IJGFT66nSeemnN/HGyv1T049nVMAckN3MiW95Jr4/dxEvvmm4f27axvtk7uQq806hByKR2eNqyM7lZSGrKcwqBfdNX37yqnYOg4d6+HEIraP3cXRl2bwxGAlXTTNbuvqReBkLwInTCN+y1KiNzVAoDcLLjyk0AgdVQapWxowItMpkC5O6s0rGYcM57o+n8ylgiBcZWAldTBc3/lY1qw8pHfXpZxCkN+WilFDFMd/n85j/vaAHO9QJceX6QYIhNO3h8b+3Hjibtdu0VhM3SdqcIa8IqANYCnFrs7HZRG9dArRBt5b7lXMXw6awvIDGpHcXkno83DoK+3uQ0x5P4o9S0KQW4KsWxDh84MI1zO6oqUgR182aUFzoT/7RR3oYlfhXcvPbMjwfGectFdj3mUavdZR0WV2Rq5iZ6QVPk8G8e+RysqMCXZuDJ85Hx/lWsI/MBT324I0ui1B6qSNE7fAfcJSYifU4RiHzhhcWOZWg8y4+7jVwHmpAzrgqM1c8mc6CY0woauNtWbrOtcbpMMrs1+42tlUZuGolS600wjV0vyMhg3Pd3GoiIvPyWysiknj0urnWbPaBatBkxgYMghvV002D6kLytDFeDzixYqp8xsu1JuMINpV3O9yuNSQKrrLKsJk2vkvZoH/YqPFAXBwwRn0f9+tm/o+vWPI3xhPpr86w4ar97NYEV8pIJ/0w0Pjlb7y+66KEBS9VGREccBWJwvHHYGp+0QNUsjTNqqVFMeG2CiowBwO8VF8BkFPygEZLr2U8JXOm9+BWQwJjufN2eEM93LBXmdWccmNAnLOphH/Qw7KN4JxAVTXjXZtQROiCJ/O4tGdDUzQqyvFFGY30pDrBZhumkkxCVu/J2Hr90hdFbzw5liGu8kAC5z8Q1mc8x7hq/V5XW8HGt6WPk71H9NRFdUz7V+z00Rp7poDiUXFdaUqbmR/a8zUbWkoT6yegW8js1cUXWtIfJUuhY2/T1SQRXHMbKJjZhNtH4LHtEmMUqon5tm4jyNs3p9EzruNh4yv5zT6ZaTOFBU0X4x3c3N+CfEnhuHqDjg/jK83xGrmKnv4eWnCkbJI3Gj4xc0mfDfTRsuNTNq8zRF94o7CHCArPYcC1GEYerNoXIjmo5ei+chQLdO+5TcASrh48m4dW7nNGTiWd7TiWXWZ5B27WbU9hTO6z0kjeZKr0Kq2ArUf3xQZ6Ioy01g+eQ4/VrwoWNB1QBC9VkeZULCbmAa25Zm8YkAGFJAQOYdZMaY0StCSnMm/Dh2tAWuszaHuyVyVeH40rUI8F6bvY9umjaTHVb1fG87tW4l5Y69xaPx9Qh+5UaTOiSJ10FdERKgnMtr2GYYHaw2mNmtxWrWuvYw+rhRSDFgBZ3cMZM2KO3NirunIIiUxjVHuCiywRzEkhNjEKJDOwVPTn0tPHCLOUBq+gV8RphXPqlyO79jA/u3q7BW6ZSKMTJBtcZq8T3RQ33MAiovUWboEDUad+l7XI1JW18TvlYT31a5WmIah2H5B0xIy+CFNPNMNktcu4o3V1cRzbVQ8xGXYGZoyjjl2VobdZyptHXZO+Bgq5G7V6IliaSv3kax1Ajq5GP6uJsXIwKAJ2jKzSLtMuQynrqbJNnlXI6WRIy+1EJ9NnvarXBUVuWgbQp5KG5Bgo851Xlc6PYvSTTMCeGkfKyZPrSGea0O7jJGN4Y4JdjIMSsKKvm1DO4NVuCCte1yJfmJm87NWKEk64DqgcdU1FMMvGiWUVdzv7HE2VMzdSFvm3EQbdOHQPqhhBt5trIutyK7RThGIA8BzSs1kTUhP/NLgoV0G99II4xKOr32G7auriec7gSbvEwraagc3i/I40wTfcC9hBqDs6VIxCTDr9IZ6VeDy4jpCvdU39dzjURhZQ0jQhLSVauKDucyZrfpdWlI7K8Mi49TlCoHgKvfWW0QR/ioveLbRuw9Ok629Wclc6NVJnwEKFswLwMmQDQ2hIM9wHmdVaWXqtVb1iITTOc7OUV9mCnMGzx+rXoVQH41uS+B/WWhHyF19hqKo3eomRqdPaUYYmv+rZdh11legLWGRQY0StbVSdI5s7UubswdPuTe8quRr+Zr+ZY2rQ4e6H9hVVjG8m5+ZbHCRFKnB8esT5Gg7Zvuu+lOrub/PxAkKw0PgpyrDFf4l1z/73yZ8FWM8TZmX6Rp5/zO8t7Qivt+SVnXumDoC2NYFvdOwBn3FmD6GBtQ3cEnnftdF7/0ulOB5QYbF9eE0LmluNDbuQXRp1otKPw1ry5oonotk+6Fj/HbsF7YvGodL7YdoWMnRPzQ92/5hlANd6K11PxclE683P7QaO6m2z2VxUW/2Coy/HJoCVeWmreM4PQVccJ0fjsHspU3dJ8wfxFXTpVXXsjSZPOqCC+PmrWP7ru2smz/uNnge3R6Y0XE60wdouveNJPYtrOuhLgTPXMfmqUq1+M6PZ8371ZP2C5ofGU7K6p+Z02tiGF9PVBgW0Icr8yxL3AOYUk0gKMaEVoaIGOCHU9qbliO+LyuqiixpJ15fGqrJa9w4FOFBeGnT8f55tma+Xi2HL3JZczOSdu/N4LrejA5XCmC77r2rebjVKy1OMZK/2RRtSeI+ErR3N+f+zHxbYVS0Su0b79k3TjqZWkXv7MkLjRCQ9Ub3haSnb7XzbEtI5HRC5E09Veg03ydqY8wdGTxvPMMNxiHXkgc6+wSZ/6g3ndoPatDvJr2/fc0P7cMJXLeMQIOKbQOnzmlGGFt74T+5WmJS9xmMmhdCF2Md8/BRMjR928o9mL7V+oHNmG8rh9Ebw6D36a8VpbkZnDUSD5b5p1bJutBjgsFkq9XQEcB2XfGqfs/0XUbYVOND/ekV9zsXlC+HVt0pHYfv0mmafNmGWET875rfQ+rFmA/mGI9/tVeYaOUzwzSsLavRbwGRM4NROMmwlNmjGPEmy2fWXUJf2v0/rgBgQxffGbhp3jHz/9jH2TrVcD+2NZ6BLthO3EbERCMvh6bgcJbGdrDtPqDai5l61crxBvKjq2naPiFt31XjwFJx5s+65YAGcJm9nLljlSi6KVCOmcu6taG1H3QPYL4nKhx5G4AS0rZE1PQg9/AjuCK1kwx5717IOyp4uKcce60DrSSDqLcnsLZJlnQT1IWEc5cJkTsCbfF9czqvf7ObA+dB3u8Rnuj3EK52tQmMFL47dhUv/7YgcWH4B9ORfLObAzkyAkYNJaBHWySUciYjj65y/XN3M9ce4cQgzWIUfUJZ+eEeNnyXDg8H8NQQb1ylQN45Ms0746pXfwaxMsYfaeZp/q1REQAAFCpJREFU0pIvk5edTsL5iinDyB/2pK/SE6+Kgy9zYGWckVjreJIyRuLubgEyb15fZ0Ov7XHsPaE72a6YC4lXKwSamuOkZY6gqytgr2Tmihts2JxIhtSNkFGB+HRqA5SiUllULj1u4raEAr7ckohvhDd2WODkH8bmnmnEHTjOz/+7zHXAupMbvbp3wstTgav5b02cAi6LH9OvEuCkOadFb+MaG8P3v6htUVPK1VOXa1/wpr4cTiOzSImdFCTuI1n5oYQN36VT1MmbMSH9cbdXryxo+PcwDQnLokjwDFO/BNp5M2VDN0YkxPNDbAoZ16myEmHRPiNLeZfHkJY1mq4dANc+PG/+Rd2W1N2fRuZrSmwlYOEewuQPLYn+7iiFjl70DhyEt8IeGzPjVZzdEc8Vbz/aAV1GRjLe6hv2H8xF6v8kT/graCeB4owM8uVyA57TlcQdG0dvf3tN396N1TcbScmxx3PUU/j2sMeKEs5mFNJFru8tIpTgTdPociODsyfOciU7g/QTld7Cmqv3lXA8ar7RrAv5B1K54q89p2VM7qBZhU9nkbWynCQKq2XEST+VBW4ugD2Pvbmb0m82knJehnzkkwxUumADFKtKsJLo96YXr91H6qBQPCRg22cakz/sQvR3R+HhJwkcolR7D/MyOGsur0jTV52z66I521P90mLjPo63tiqJPxJPysHKFfTcFHK6e3rQxekKuwKHctxIWzSWhrZlFQb3Ql4l9MUSF/cgqOvSG/FfknjJjyecoV2fIGwlALmk7DZ+fMa5XJDbU/X3BId+gfTvp6RLHZw35m7B2FRRrPY6ArU1tt7BOqnlSrh5ah/FVe53uzibGUJ3V8Dej4krlrFtcyw50r74jhqEspMNUEKxytJg9pym6xPWhLho3kZUGSTXYxJwkFvVFyBZryCms5Ylda/irsRcLgNuFZC2MYJRC/VcFM++SeSThmekFJyOZslbEWz4o+mMFNRO0oodJDysebhLOzN40qsMrlLiBpl74sgLCMLLwBhWwgcriHKdqfbm1aijlMw9n/JGZgCb5Y76vadFcby9rAtrtKLPewSv60Yw5KWwal4UHd+ab0BAo8733MkTp04AQYQYOuGblznw6SIDC4xoKePLlfvwWTRUnZdZ5kbABDeqrhd0jqjAJayq8lkByzfF4/umEjtA6hZA2Bzdo25wZscS0nq+zXADl0aj2xIoilnPu05WLHhWgdQMJPYKAsYoCBijp3Beqe7oYZOQ8EkUcYow9SS21o54BY/Hq8qaF02VZSOF5XvOsXKMeuJojX5VfpWET7+H50PxacpA6KI0Zs3bxOK5Y/GyB8xkuCqDCFPWjFU0Hlt4ka9OnWBwB3ck93XAt3sfPk09VgcDFvHDLj/cRsuxwhJn7xDCvKtdIbnJbEmzZ8wAAx6/+DDWbtNmKlAvYNJ9UOXu4sx9rIrIwHdTOM4G7hM5H8xiu+sy9WppUjmBk+YQWLG3hMw9i1iTGcxsuYElrCWWtLNX0M61loHg8kJSNkZUWYlN/znNZ/svHoT1swcscfYexgTvYVWK5McvInJOVQFWvGwjcf1m4GuHnvOA4vRdrEhzJ2KkgYu8aBEblyk0kx31/B55yaybt4R2b31lUEBzYjZrljkw+VU/dXvL5CgHyVEO0jf8f+X/27v/4KbrPI/jL0rX3uBdZL16x55V1ovrj47OwilDZ9y5unW2O/7o3uL2OGpnC9ciTHfHlTlb4CyglJ9dq4AVuqBEW6eATBVK1LM95Qijd0FgCh4XrLvhRyfsVKmAaYGmCN4fSWhKkzTfNmnS9vmYYeb7/X4+32/epGnzzjufz+d7dQx7zAzwuezlgEvt080K/PjkPm1kNXy7Dh506eG/S5Ou8802abWrv+H+Z9dbZP8H3x0ug/w8JY+Ovf+f6sh6TD8O8dqe9G8vhJ6Aa5qkJ1YHrmLfIXtFk6y9/t7Z9fFWuzJ8ExX/6o5szVwc+PfBo5adi9Ry7wsh3zti9ppInqmfeG8uoO7Ww6q/EumJkmW3Q8VTM3ru9zHOFHzY0yiT5NxXr/LpUzRtefAF2PvweORuc6p5b50qCh7SlMdInhNCp0NlRWu0xX5cZwIzqS632o7sVlXpYhWt+ULdYbOsr7Wx5AW9vjfgGlcuqbPNoV2rFqtozQl1fvNt2ESts7FWxauadNR/uyNJ6vparXu3an6RRfVH3eoMuTq8Q5/aHfpT69fq7rqg7mt/wbsu6EzrYe2u2aiivJVa1RhB2e5ok4r/9RXV24/rTJeBt58Pt6po6Xs62ubuiePKJZ05YdfrpYtVvP7LfhLWwT+XkuSo2ahp+a+o3v6F2tzXxB/4fBRtDT2UJVo6HVr65EpVNTr6xhJjra+uVemrdrWeCXjcKxfUdqRJq/LLVWa9EPrkaDpqV2neQq3aflB/CnxtSL6f7xf6dPsrKutnMkjnqT1y+CpXN947Q3n9VI79Oqof1bqXm3S4raPnjfOKRxfPOGXfvkzP5c3Q4fbwE8E7qudqvcWmY2d6+l1yt+uwdZlWF/1Opzs79G3YF6ZNB0oWactep766+tr2qKPNoV2r8rRxTZ30Tc9kqN4cOvzxIbWcaFdHl0cXr/0d7/aoo80pu7ValflTtL0mkvcll1qfn6HK9d7npc81Q7LoP4qWadeRdnUE/H8vnXFqj6VUy39borP9XatxltauerfXz+NSV4eO7bWosmiGvjhqV1d/93tqnKv1eaXa3HhIrWc8uhT4mIHPR96jCnNLpSgZ6HMZoKFcGxqccvvGU7uP1Kn8GWOTXS9abPq/gJ9J6+H60DcV8eu0yFq0TNvtAa9LeX8efz7SpM2lj2rzGocuxrrS8OEsVS71vSauvnd49NUJm7aUPqra9db+l+WP+mviev1q8k916xhJOqtPm2uNrZL1xkxV7B5uMzJjb4yk7+IdxHDV0tIiSXrkkUfkdHIDGQCRu3VilTY8aNZ1kjo/W6eC5sbEuykQwvqh71+iXWsgpkqxnWCXQE5IoSefD/K6oVbZ8zsk6VwMHjuscaWqzf2pJoyRuv9Yqxn/vc3435pZNdr/774qtNuuiikzIx2UM2KxPhYAxEHryQ366NSLevhm6S/vLdDC4x9r0bnz/Z+ImBgvXb3NfIa8yeTfSrrLd+zBeASFUWlPP+3npH4rzz3J/GQVTPpr3f3lZ9KlP8u2b5vuN/BYfpmTe1Zraz9kHfXJs0QFelCoQAMYlOtma8Pjj+v2FHknY7/zlDbF+ivmUchf3Q1Mkv0V14FWfo1WEtsktQzgcaIlLpXPYcj/4WkwAj94hXKXFN0lXQeoWNIfwrSnZxUrf3aucu5L897v46xdFf/CohESFWgAiJ/u1zT/g1v02i+m6MYUs3J/vlSt7z2nDwYy9nSEC0x+/YIlvz/29ZWMJUOfy5vkBlb37JK6fMc/NxgvhqdIK7JDob/X71/4+gT3Pd1648/1k1tu0FhJF9vs2vWls8+8mw9Cnr9C77fkqtdcx/ZmWRaTPPuRQANAEMHevIIlcX6hVs3tN4k795xU27P7s9A9w/Ine9EU4dTyft2g0M9bKNEcMuFPij6X9KV6J8SJlDABgSKZehkyAR6/SO/kTNEJSd3OdzT/sFNG1kK56rJH7tNO2RvqVP1S/cCuMUIxhGMQGMIBJIZgiW2w6kxKkGMS41sTXbAKsD8ZDhT4IYKqMUa36zXpttVaePNhlX/8GolvDFCBHiGGcjxVJDONMTpMUs/X5eGE/6rRK5IqZbgKcLR0KXjl55Ckb4IcD/X7cM53TjwlyjjLSFENBqLlvA4df0ozjsc7jpGLBHoEeFDSf8U7iGGGN2qvSBLbRBcsgQ02YStYQpsISW4sfS6qsAAQCyTQI8AhSduU2JWmREvU+Mp+YIx++xDJygORfNXOtx4AgERCAj0CnJOUF+8gRqgJ6n85ouEmFpPNAAAYTUiggTDafP8AAAD8WIVjEAq27B70NWqfyIpCJAAAABgqSfEOAAAAABhOGMIRBbVFxqvIBZsHX70GAADA0KMCDQAAABhAAg0AAAAYQAINAAAAGEACDQAAABhAAg0AAAAYQAINAAAAGMAydlGy4kUp9zbvtsctOQ9Iltcl6/n4xgUAAIDoogIdAykmKT1LqlwjFV4f72gAAAAQTUktLS3q+bdfNbNC9JyYocLf79An+z/r6e/4TPttO1T1dI7ShjTsxFP2jHTn49K0Uqmp1XcwVSqaE9ewAAAAEGWRVaCzFmjblhot+Kd0pZpSeo6PTZFpQrqyf1OpHTuXKDNGQQ4nDqf01DzJ1u7dT71TyolvSAAAAIiiJGuDVc2n/Lvd8py9psfEQtWsLNTkVO+u+5hd9S+VqGR+uaob7HK5vcdNd+ersrZw1Fei/ezHfRt/I2XENRIAAABEU1JJg0emCb69o40qb+jdIXdhkTK+791276vQtIdnqmyjVdaGOq2dP1MP5VbI7ku6TVPztSBryGJPaJa2eEcAAACAWEgqnJst81hJapftzXK5ejUXKzfDV3put6miwHJNu6STFs38g13eQnSaMmYVxjrmUSFz0Q7td3jHmX9UTWUfAAAgUSTl3m/ybh3bI8vb17Q+nan0cd5N1wGL6oNeIlNLfpku31VkMmcw5newHqjUkl+nyzRW0tgUpWXNU+Vv4h0UAAAAJCnJW312y/5WmezXNObcdYu8Uwbdch24tlXSPcXaZKtS/t2mnmOpaYz5Hawf3SRTrwMpMlGCBgAASAjeVThO2lT9Rt/G9B/4hm/otFxv9m5Ly6vSR1vmKXNCiiSP2s96fC03Ke3XsQp3eEoxuhb0GzY5Aidzepxqfi+aEQEAAGCgkiSPmneW9Kk+S9LVFevcp+W8ejRNOc/v0I7ns5WWIulyu+zrZuiZfad7Thwby5CHiXbJ/5HC/AujJ1s0c3a56vc55DzYpOpn56jskyjHBwAAgAFJ1imbqjdE2j1dxbWvat5U/5p2DtUtfUrl77qklZ7wp442Vql5mpQxXkr/pVTzrWTZLdm+jvD8I3UqK6iLaYgAAAAwLqm5oUK2SHpOzFdV07arybPnZJPKc6d5k2dJackp4c4elWauluynJH1PysiTNr0qtbwj1XDHGQAAgGEruX5dn4Xpelz297pdRfUZSjVJkkfte6v15JPVcgR0zZ7gn/YW5GYsAAAAwAiRHHxpOi/nGbckkzQuVd66s1uON0s0bXnfmrX5Rl8CffkrORv6NI9KNQu9Qzh0XrLWSPX/I9nPe9sKCuIaGgAAAAYoKVyj5WhAddrjUtPz04Imz9I8mW/2bba5IhsSMtLlSJPHezebt0slH/YkzwAAABi+wibQ2uLoWX3jmE0VW4MP90hblKnJvhuutLc0BV3RY9RJlfyjwp3WAZyfVayqLe/r/S1VmvcYi0ADAAAkivAJ9Mlq2Y76Vte4O0dVpUFmv2Wt0Kbp6d5tj0O7Vg8kW0Rvudq0bJ6y7zPLfF+2ildu0ooH4h0TAAAAJCk5fLNLFS9blbk2V+YUk9JnV+mTDLsam6xqbjPJ/LNc/fM/pis1RZI8cr67VhUnhyLskW6y0lIDdlPMypieIX1CbR8AACDe+kmgJe0u05yXb9Jbv8tUakqKUu/JVP49mcrv1ckj1+61mvMso5+jw6rmP+bI/KOepQFN30+XGBwDAAAQd+GHcPi4XpujB54oV/0+p9yB90vxeOQ+ZlPdszP0ULFFYRbEgyF2lf22Tg7uTQMAAJBw+q9A+/nujFcWw2AQ4GSFHKcKlf733t3Trqb4xgMAAABJEVagYVzO+EFeYOI8mSf4ti87ZN9IfR8AACARRF6BhiHZt/s23OpZCjASEzOU+6t8FeZlyzxOkjxy7lyrciZnAgAAJAQS6ChLN0uFc6XsH3j3PcclS4TnFtbu14KppoAjHrk+qGByJgAAQAIhgY6SFS9Kubddc/CctLbS+LU8F9xy/W+T6tdXy7KPoRsAAACJhAQ6BjxuyXVEqq6WrAZu320pmBJxtRoAAADxQQIdJWXPiBVKAAAARgFW4QAAAAAMIIEGAAAADGAIRxQUbN4d7xAAAAAwRKhAAwAAAAaMkfRdvIMAAAAAhgsq0AAAAIABJNAAAACAASTQAAAAgAEk0AAAAIABJNAAAACAASTQAAAAgAEk0AAAAIABJNAAAACAASTQAAAAgAEk0AAAAIAByS0tLQG7btlXTdHMN0J1T1PO0wtUOD1T6akpkiTn23fqkWdjHSYAAACQGJIj65au/GVLVPjYZKWNi21AAAAAQCJLtjZYlXZ/jibfLEnd8pwNbM5U8SsLVJhllmms79Blt1xnU5Tmq0ADAAAAo0lSSYNHpgm+vaONKm8IbPbIfIc/efbIdbBe5dOnqM7pGfJAAQAAgESQXDg3W+axktQu25vlcvVqtmvtXocys9yqf6lMFe96WwuHPk4AAAAgISTn3m/ybh3bI8vbfTu4lk/TlOVDGxQAAACQqJK81We37G+VyR7vaAAAAIAE510H+qRN1SGXrgMAAADglyR51LyzhOozAAAAEIEknbKpekO8wwAAAACGh6TmhgrZ4h0FAAAAMEwk1a9z9d8LAAAAgCQpqT7eEQAAAADDSFK8AwAAAACGExJoAAAAwAASaAAAAMCA5P46ZMxeotw7TL2OmW5Kubp9g7lSlb8PaGyzq+QlRlYDAABgZBoj6btwHQpr92vBVFO4Lr0dq9edD5cNMiwAAAAgMTGEAwAAADCg3wo0AAAAgB5UoAEAAAADSKABAAAAA0igAQAAAANIoAEAAAADSKABAAAAA0igAQAAAANIoAEAAAADSKABAAAAA0igAQAAAANIoAEAAAADSKABAAAAA0igAQAAAANIoAEAAAADSKABAAAAA0igAQAAAAP+H/0wl1HbZo53AAAAAElFTkSuQmCC;" vertex="1" parent="1">
          <mxGeometry x="260" y="360" width="118.68" height="30" as="geometry" />
        </mxCell>
        <mxCell id="I4Zyjwfel7fduKmOHLP3-23" value="input&lt;br&gt;id=&quot;name&quot;" style="rounded=0;whiteSpace=wrap;html=1;" vertex="1" parent="1">
          <mxGeometry x="620" y="250" width="80" height="60" as="geometry" />
        </mxCell>
        <mxCell id="I4Zyjwfel7fduKmOHLP3-26" style="edgeStyle=orthogonalEdgeStyle;rounded=0;orthogonalLoop=1;jettySize=auto;html=1;exitX=0.75;exitY=0;exitDx=0;exitDy=0;entryX=0.5;entryY=1;entryDx=0;entryDy=0;" edge="1" parent="1" source="I4Zyjwfel7fduKmOHLP3-33" target="I4Zyjwfel7fduKmOHLP3-23">
          <mxGeometry relative="1" as="geometry" />
        </mxCell>
        <mxCell id="I4Zyjwfel7fduKmOHLP3-29" style="edgeStyle=orthogonalEdgeStyle;rounded=0;orthogonalLoop=1;jettySize=auto;html=1;exitX=1;exitY=0.5;exitDx=0;exitDy=0;" edge="1" parent="1" source="I4Zyjwfel7fduKmOHLP3-25">
          <mxGeometry relative="1" as="geometry">
            <mxPoint x="260" y="370" as="targetPoint" />
          </mxGeometry>
        </mxCell>
        <mxCell id="I4Zyjwfel7fduKmOHLP3-25" value="addStudent" style="rounded=0;whiteSpace=wrap;html=1;" vertex="1" parent="1">
          <mxGeometry x="40" y="370" width="110" height="20" as="geometry" />
        </mxCell>
        <mxCell id="I4Zyjwfel7fduKmOHLP3-31" value="" style="shape=image;verticalLabelPosition=bottom;labelBackgroundColor=default;verticalAlign=top;aspect=fixed;imageAspect=0;image=data:image/png,iVBORw0KGgoAAAANSUhEUgAAAtAAAAC2CAYAAADwZbryAAAgAElEQVR4nOyde1hU1frHPyEMIsMUCMJBxMsoxqCBoTglSpCgqXiLLPOkhRWSeekXWeYly8xSOnnJPGZaWmoaXhI1EdM0SkQ5QAUqihckQ0FIQJEB6ffHzMAAM8NtAC/r8zw+bmavvebda9be+7vf9a533Xfq1Kl/uFVA2sYIRr1/CEOEb/yN6d6WAGTtmsDjr8cbLHsv0uapQTyvtIOyDHbPSuBCWf3r6PjKkwyVSyAvia8WnOSG6c2sE7JgX0Y91gFrY4UKf2PTvFTyq39u74z/VD/cjR188zKHNx7gj1Q9+x735ZUhHYBrHF21h8R0fRW4MOjj/siB/OO72bSpoMpe27FDGNv7fmPWA7fISTnAzvW5lOjb3cjzqJsNlWTs2UTMjzU/t/T1ZvQIN2zNaqng2m98814qBQYLWNHj7ZEMaKvz0aVfWfXxBW4ZqdYk59HYPmHvwsDX+uPWurZvv0V+5m8c3HCS7FzDpSquVVSc2L6Vg3G11Qsgocu0YAa7Sgx+d05KHKcd/XjUSX+/NF6Higs/7WV3lhsT/v0g1lxk7+txnK1ezFyG99tD6av3J8kjefNBjjo+Qthjznqu0crrplaM/R7V7XlzMH3tWhkoYOA6dvPgqbCHcNB7TDHpe2O4oBhJoCuQ+TOfLc2qUcrycV/+PaQDlnpqKLl0lO+WFtDj3UC8WjfR9eXmwdiwh7DFcP0gw3veUPraGD6PChralvWyx/B393g9kAHtDPVvuJ59nJ2fnCa/Xs824/fq2mg1xI+wx52p37WqoUYfM3BNCQQNxDzjaBQbFs1iwx9GSvWLJEQjnrmRRJQQz9WwxaunHQAFqacbJJ65vyM95Oqb14Wk0y0mngEKouNYd9wW98CH6NHdHtvWEswBuEXJzWtknzrN0dizNcUzQO4lDr63heSBD/God0fa21lVHluYz4XU3/h112VuFDeh/SdP87tjJ1wcrGkjscJS5+FYVnKN3LMn+TXmAtkXjUjH2+A8AEriEtmUeJIuIx/Cq7sj9jZaO6CspJj8qxc4fSSD3xMKjAphKOaPDb/iMKEv7ve3ouxaOjHrjItnk9HotrzJjRu3oHUr4BbXb6oq9li2rmwPaIWtay9G/58tuz86woVr+mu7se8kF5SP0hEJ7gO6cTSuLtebirNLo9kyvCcDestxslaLnLKSYvIvnyZx90nOnrlFl2m11LFiD9+P8ubRXs44WLaCchX5uec5vjWZ02dugZsKFRh+eS0rIHHxTgrGPUrfbvbIzIGyYnIuneTXLSf58y/gcUO/6lX+OJ7OLWd79W9Q49qo1p/qch8rKyDxo2guDFEw4OEOVfqnUdJT+W5ZEf2f8cDN/n61HeUqcrJSK86ji8J4FSU/xrHp+oP0f9yDjnYSzDX9KT3+V37de51byCgpBYy8eJnu+jIBDW1LE333Hx/tINP/QR55tBsdtddouYrrf18m5WAiv/9a3Dz3Cy3m9vRVOqu381I5Wh/xDJCeyu44Z573tTe5aQIBwH3APy1txB2Prw8TR8mxJI9fl8SQfLH+VZjCgy0Q3H3oes7zOLo2hkQ9XtFWHezpOcaPR53VL6HZcTvYtt3w202lZ11Fxt5oYmJVBssKBHcEjfFANxkN90C3GRWoEb8qTmzdysFfG/D1Om1icNRUIGggtQ1cCWqlFd36ytXDiJdO8nsDxLNJPNgCwd2IWxd6asJOCpKO6BXPALcu5pIcfbLi4WjZ2sJotfnfJZB8HUCC3N+HLsJJJRDcPrh5MFTjOS45d4TDDRHPgGV3e7V4BnJSDYyaCgQNRAjoxtKhG17OACpOHG3gkLhvN018aB5/HBSXuEBQwb9kFQ/A2tB9WBYUXTdeuCyXXzf/Rg6AZQcGv+KBbbONlwsEAoOYy/B+RhO7XHKe/V9fqvdztZWdLV3GB/DMY5oQkGu/sd/IiJRA0BDEI6OxXDzJd6+fbFwdcQmsiUswjT0Cwd1E8iUuDO9ER0DWy4+BxQkk/5xL7hXtI7UVls4y2g/sRX9PR/VHJRkk/1CHR25qKjv32Konot3/EKMnX+ObpVn6J5UKBIKmx9wa92mBmkmyeRzdYHgug35qTpQtyzvJzlWp9Zz8KBDUjhDQAoHg9uXaBfbvceaZIZ2wRorbowG4PWq4eFlhOjGrEvmzjg/Lkh/j2NZuEGN722Hp+ij9/bey/2CzTpUSCEyOfMhYXhmi+0ktGTxMgk7GkQZi+4wf/s4SoJj0PQcNhmzVSlkx+XkXSf4xjfTjzTz5UXDPIAS0QCC4rSn58QjrjqXSZagHXt0dsbXWnz3ij0MnG/SwzN+0ny2tAhhQdlSIZ4GgBcn/9iCxD/jT8cR+9v/YkIm9WcS8vsnkdgkE+hBZOAQCgUAgEAgEgnogJhEKBAKBQCAQCAT1QAhogUAgEAgEAoGgHggBLRAIBAKBQCAQ1AMhoAUCgUAgEAgEgnogsnA0gqTXxPJlAoFAIBC0FJ/02dLoOmZ5t6/y943/9mt0nYK7H+GBFggEAoFAIBAI6oHwQJuAXp/ktrQJAoFAIBDcc4zfqP5//cSA+h+75oDez8UzXVAXhAdaIBAIBAKBQCCoB0JACwQCgUAgEAgE9UAIaIFAIBAIBAKBoB4IAS0QCAQCgUAgENQDIaAFAoFAIBAIBIJ6IAS0QCAQCAQC/VjDuq9h3bDai7oEwS9fQ7hYIkFwDyDS2JmA3v89ySg5UBDPiief51JLGyQQaAj771JC5Pr3ndk2jfCV9azQXck7/xeEj10ZGQc28vaK8xQ12sraCGJl7FC6AkXxnzJqzukm/8Y7C1usHplB977u2LWVYKlxi5SXqii5cZHU1VPIyW9ZC+8IHF/B7Sl/nM3zOLN3CVknT7S0RS2PNaxbDUpbYBIs+B/MMvSAc4bPp4J9K5i+DEpegrXXm9NYA7SFBS9DUA+QWak/KjgGfRa2rFmCOx/hgb4LsX1yGcEr4ngrZje9G1RDCG4RXzH+62PMW/G+ia0T3LmY80J4CL6d2iKROeI+cjxTvFvapnscs0F0nL6Bx4Z58i+HSvEMYGYhwep+J9q0aTnzmgNLt2l0fG4t/ectp22Da+mDy9hhyP9ljZVDB3o+/SIPmNDGO5UFizTiGUj6yoh4BrgEH+2EEgBbmL4I/JrBRqO4wZ5lENKnUjwLBKbCvHI56hvs+OQG7xoo+OADrXjxUSt8OllgY9lK82k5JTdLyT19ky0/l7K+pBksFtSKPDAIpRzgWgNr8KL/ICVdAG4HD4KgwayaNI1Vuh+ETyd2dOcG1tYGqbWFzt8WSKwbbpugsVjzwNPhKBzUf5XnZ5C6dxfZf2YD0Lp9P6ycrSm/0YImNgPSfoNQdAXIaEQtTli01vnTXEIrg2XvDULnQUgX9XbGdngmqvZjDn0OS5zhzb5g2QUi58GoeZDVtKYaZG4oyDXCOfcYfLIeov5sIWMEdx11CuEY/6iUV/q2xrLGHjMsW1vSvqclr3moeGJvIWNP/WNyIwUCwe1AAV9u+RmvSf1xlZaS90cM3x1uaZvuYczG0l4hUW/nH+Pwf96huLxyd1F+CkV/tIxpdx7RXNzzGE6j3Xmg1XX+OrSLqy1tUgviEgThfdXbJafhvc/rfuzaeSBfoRbfsr6wIAgm7GsaO2tD6abZSIenF7ackBfcnZi/vSZPs/kP5/QUcO5mVSmeb5Zw8vdifvytnD8BmV0rAryt8HGVgJmEBx9vzWuni/mkXE9FAoHgjqcoJoqJMXVwRQmann91QKYJ2chJ3lZFPAvqT9lvr3Pkt5a24vZg7rMgA1BB9McQX8/jZy0H5UfgIgHl8xC6D9Y2gZ1G8QPN4AxpiUI8C0yP2Q8F5aj//cPJGrvv49WH26jFc3kxP64vZGxcGV9ojtl8vpSwrQV8kapSF7e0xMfAhCVTEhAQQLdu3W67ugQCgaDZcLariNMtvpbSoqYI7h6UL4Ofo3o76wDMutCASk7Cyl8127YQ8rKprGsYBVda9vsFdye1hHDcR1vpferNojJ+MxAPu+KvMl70kADmWLbWX8ZUjBkzhkcffZSCggI2b95Mampqg+saMWIE/v7+JqmrCvbj6DsrHH83e2w0I6yF2Wkc/HI2Rw+kGT/WNZS+rzyL0sOFdtq2LC+h8EoWiTFfcvCbKMqqHVKRBaQGckbFnmSUnj358YuInKP1CbzPxNgQuuitIoQFsSF6dhQS/1EfovfrfDTwKyLeVGILnN32IGv0ZngIJXjrDJQyICOKWZNmV90dvpsFo+VABtsDh3JcGozHa5MYqJTTTtOWpQW5pB1YyZYVG/R9gQkxx3XQIKaM8Ubh0haJdoKWqoDs82n8sG4HGxOK9R5Zkf0iYzeBk/Yh9VLy+uQgfFw19ZSXUnTlNAdWrWF5XPVfVA9SR4ZPGsqIPgpc7SrjkFU3r5KdHMd3qw+zN7MO9dSbygwYNTlHVOCSqjHWtSD18iTsmSB8PByxa605j/JSVH9nkbx/H6s2pZHZgLQeivDpLB7dGQmA6hw7Z33K8uSmaI87nD7LeWKkHLhO2mdPcUFvPOiLeCwYjSvw95HFHNl1sMreti/swacrcGYbP3z5Bdg+g8vIYNy62KonMZarKLicQfp3c8m5XIdJFLbBOPsNw6VHB2ytNDPby1UUX73MucPbyEqO4ZaOd73i+2sgx2fBHr1foe88aP8uj7zSR/9kwfxj/BT5Dvqv7upY06rDBDoN7UcHJ1ustN1adZ2rZ5M5s+cz/r6qPw2KydvSBIT212xch6ilDa8n6lMY9ygoJCDvDyGfgxi7EtxN1CKg/6HwBuqxHKtWdLZEM8W2KiPv1063UJHTxG96V65cobS0FDs7O55++ukGC1+teG7VqhV5eXnk5eXVflAdMB/0FdP+T0m7avlNbJwUDJ+5jnYWo4iO0T+YZDNhG5P/rcCm+g4zS2yc5Dw24X36DgpkfXhYg0TGnUYrr0jGzx9G92ovZRYyezxHzsHVwZLIeU01MNiWF5ZF8Ky7nhQGEhlObkpeWODNEwfXEv5BmtFUbr0mT+f9kRpxp8XMAqmTguHvvIPdR3N4d7+ho8EueCxLX1bipOflVNK6La7KEbzuYM7eSS0UaFgnrBg+5zXCBjhWbQcAMwskdp3xGROGnXn9U+spJkxmwV0vnm1pZevKfboftalsSYs2npjb6jnsVh5lBRebyCYJ5j7L8Q2WY6V7vzOTIPuXO71f/Zy0/44zINIBbJEGfUzv/k5Vj9fUYeXQAcWT05C2iiH1WNOcQeNx54Gx79G3h3WNlFZmEmscHuyHw4N9yD64kqT9MUbqaWxbmogA6KXJK5D7P6hvlssqXId9qaDoBdhDyDCI2mUCGwWC24RaBfSWlBv4OrXB0qINI58tp2DrTT4pqCzxRNfW/J+3enphSeYNvr7chNYCP/30E2VlZYwYMaLBIlpXPGdkZLB582b++uuvxhvXuhfjIyyxAopz04iL2krKeRnyp8Yx2NseK2xQTl3G2V9Gk1pNcVm9tJtpY+RYAZQXcjYhhtgdRylEhkO/YAIDvXBuDVZOfoyPfJ+lk2ZTqDk2+T9vkKGjuj1fWUygK0AWsW8tRd/gbllOks5fG9ny1lGdzhDImA+DcAXI3EfkZ7F6aijh5qn6NlB9cCFwgRwrCVCUwU9bd3H8RAEO/s8yepAcG8C237P4dlpL3HlTf7eMsBUzCXHTuJIKzpGw9yBR/7sK1o74DhnEYG9HJFjg5B/K4vyFhK80MOWoQxDvyy2QAEXpP/Pd7nhOFDkS8HQIg93aADJ8xw7Fdf9uMvUcLh00npVTvbHT/K3KTSNudzx7T1wF2uLu70l/T3cDHmJT8DMfv5VW5aUu4JU3GOxanzrMGTz/baYoZZq/b5D3RyLfx8Zz4jLg2ImARzzx6uFmrBK9KMaE8s6/3ZDCXSyeAZ7kwQi1V1gf/wpayL+C9Oyolye1nrQPYkBXCZZAwcmDpB7eR5GqK+0GPkPPB60xM7PlwSGvkLX6M27VONgaq2Gf0u8R2wqPc84fv3Amfh9FBYDMnXY9++Hco+bQ2tWomcTqPLnahSzEsxPARVIiP0OvD+fmmZqf/fUFxyK36XzgTseXxuN2f10boANtn1uIz4PqF5ny/IucPLCNP89lQ+uu2PYdioe3E1ZmEpz8w/G4lknqMQO5pRvVlqYjdIAm9hk4U9/AZz2s3A+hvdR1ynsDQkAL7iLM41+UculkMat/vcUPeiahJKTd4LO2rXittyU8IGX8C1aMyrrBnsRbuD9qzUOOapFRcrmAz7aXEdcMRsfFqb+lISI6ODi4QjyfPn2a9evX8/fff5vGMIlaPF+JX8qKOSsrQi2OJ0Zz5YPthPWxAYkC31Alqct07k7SaQweohHPqgx2zgrjaHKllzo/cQPpa0MJXjMDpR1YyYMZGDyb7dHq/WXp0egOEBaVLtZslVCUWHWfftIoTNQNLelbGSZSWkB+YnQ9GsFUWGIlgeLMfayaNpUczQtHfuIG1ljFMX2APeBCl0CIW23ab5Y+GcJgjXhWZexmdsQ+kipeeLJIOpzIl4PGsybCGzss6Bo0guEr17JTX2USCySUkrnnU6Z9ol10JIukw5eRbnoDX3vAtRtPgJ5QiG7MfFkrnqvXoaknMYWNgJ19UyU5LeZMYtURE5/SelYx8FnCtOJZlcXehZ/wcZWwlSyS9sQBVtjVYwUz6aDxvPOSp7p9VFnsXdh04tna5UG6OtTMQ2SYIjKTMupw7d3BWEmwRMVfexeT/PMvmg9TuPR1JmbT36WnA5i5uvMA1Mxo0X4GXlrxXHyRpNX/R7ZuiEJ+CpcufMulXbbUGLIoTKkSxlZS8YeKkvyUGiFuBim/SFm+rnfejrL6TMTs+goKjXguObOLw+s+0zk+hZwdW/kp8V0eebkPD5hJcH18PBeOzdQ/WtWYtjQhvTpoNooh6YAJKjwAGa9CLyuQdQAl9Z+Q2GDu9TyEgibH3NKmNZ37tOaDB6/juamYD/WEWa3/uZCcv1RMDpTSvnUrbFxteLrCFaLi3E9FvJ1UrmcSYtOhFdHDhw+vs4gODg7m8ccfbxrxrCE/fhFL51QPK8gi8/MjZPZRe3Vduw+jym3kuSB6S9WbmfsXVRHPFRStJfqbIDymemGDJZ6BM9gevciktt925MWzXkc8a8k5cob8AfbYAu1cQzHt/G5zxgV6qj2aXObAUl3xXElRzHo2+LszxbsNSBUM/Dfs/MbQaaytJnwBsvj5TAG+9jKgLa4DgWphHNIJQXhpdeeJHXrq0PmO3CbxMZoAc14Y/pCmPUs5sam6eNalmLzcutUqrXiBwYAoNy19Qt8lwqc+Sa/Psn3YVNaYzIIvSJ31BVXubhXxzJC5Y0iLhDn8fWSljuDTcoyrZ66DgzWYOSFtD1erhB5Y84Cfpyb2WMW5HdXEcxXyQdUEhjcaa9r219wnyrNJi/pMv/i++A6/J35H/z7WYOOOSw84aSC1YMPa0rQ4aMOALpsuXjknH7AC7NULqzSXgFZ2r/SmZx1vpi8V3FOY/XxR406ysebp4Rb41rsKCZ0ftmR8PTxHpiIuLo6dO3dy48aNChHt4eGht6yueE5PT+fzzz83uXimIJ4tNcSzhvPJXNKGvti7VKTXAfBw1w5TZpG8+pDh+qP3kaqpw6K9AudGmnt7U0j82uf1x3rvz2pCz54SD60X5vxxVhlZzXfnwRMaQWtBh+4GMrkUJPLlHP0x0gcuGfclDffWxk1fJWFjXDMsmd0UKOkl14TC5CbyzTeNF7nSQSGVYS3NIJ4FBrh2jORd+uN6iy9nGzkwGKduGrdyzjHO/XEnrtYUjIPWiXT+ONmFhksWJaahvm1LsO3kr79Qg9vStGhX6yu5Zrq0b1na556kUtA2KW1h3FPw8WPqP0vSYeWd2MUEtz3mU6MKiBxrx+NO94GTFc85lhJXJY75Pl4bKGV8T83w5c1iEmKLWXOtFW8Nt6GzzAxk1jwxzoLOLbCQSl080dXF8+rVq7l582aT2GP4Mb6Wv3JmqO8g5lCZRyEYZ+1bf0EWF42qJJ06ZA44AMZWVr3jacpgP0N4O2GrebYXZZ8zLlpjssmOgK6A1K4DcFpvsYY50LrRTRMexc0sUptt3NPEDOiAo6Y9VX+mk9DY+uz6s3SqJ04SmlU8//Te0/zU5N9yh9HQvNOO8oprrPjiSX3z0m9/bDsg1ZzD35eNvGUDXLzI3/RR37Zt5cDBmmVuhxze/SvzJpeY8PGYo7MgrkMvIMlg0cbxApwK1vn7FuSmwIeRIge0oGkwg3/4zx/a4V8J7TtUmefNyEetK8VzXiErvrhO2JlyEnJKGb0mn/W/a25/ZhIeHGzNMjuanbi4OLZv305hYWENT/SwYcMICAigVatWnDx5sknFc8NwoLWeRA91waL2IoL6YttGE25QT1rVaVHPeiHRVqkqwzQ5YloAiUVFCKuquMBo0TpRXFb5QiKRYSeWEr/zMK8Mai4puUN7dhtpg+6/Zqa/TZiOu/CBIrEGWROn1hXcu5gBXLpyqyKjg8xGV0Cb8/TDmt5XeoMd35bwRZUJRP/wyf7CyoVUzFrj83DLRO4fOXKEnTt3VhHRY8aM4fHHH8fc3JyTJ0+yZs2aFhTPSlqbcp6XqqRpZtYLGoRKdaOlTbg3KD7CG8sSNS8UMnymvkqYewvbJBDUkbKbt3Eg1gHI0Wyacj0HXQGb01TeZ4Avofto6P4SLNkLBa1A1hXmzlNPXhQITI36fVg376TuaKhjK9pr30rPq3jXwFjbivibjPSQYA9YOpjhw63GD9U2gCNHjgCV4RwDBgzgn3/+uQ3EM0BfHLTe+bxcndAL3bAMFzpI4ZLBe2wo/9KOseXl3N3hGy3F/myy39SEZTh1Rsppw2Ecg5xw0mzmZZs6l945svOo6Be9OsEBk6frawbis8kDpIDUVYErp/Wm66sPRTHrebeLnXrhFElnQhZNhxlLjMarN5bH5m5u4UmEzYiZpEZOY5Py12WKgAeAB1weohUHWyRaq1H8eZEC1IuwPODojt6wDC0dOlQs1pKf04Sd1ASUqAAJWN4PLpgm9MFFmxawuFKgNylXYeXnkCODBY8C7SH0IYgXy7QLTIwZgE97c02e1zL+zNYfjFV43UiQVkE5RuZQNCtHjhxh+/btXLt2jfLyctLS0m4D8QwEP1KxIEhmWtX5zRmZ2tQDLniFGnlXfjIID80sjPzzRw1OpCuteBpZ0qpB8QhQMdDQqh6uCJ1gX1vHcXoKuOA6Pxxls8wkqfzO4Jmfsyf+N36L38Pnb/jVUj6NTO2cnU6evNDJUDlzQgLdNeEeBWQmmDrKrozUbG3IgyNeo9qauP5mougcFafh7MFTJvIWp638lOXxmopbdyZk3ngGN7Cv31OUacNtrZG201fAnbYTgnBpShvKT1CgvXm198ShxspR9aTC6SPBrEmVvy7HyNfOFerkiZPB0UVrpD4KzeS56+ScuL2XXM/R/i6OoG/92YbgolkWnPxmTGEHRP0PtLceS32LDAkEjcQcs1ZMflhz9V+/yY+686CK/6EEsAFsulgw/lAJ6/XoaF9PCZ012yU55S3ifdYlISGBhISWtkIHaSjB//ZSv6SoMkjcXvU2kr8xnkz/YeoUd4Pm0Dt2KMerOyrswwkeo6mDLOI3Gk7dlvlnLrip8yT3mODH0RVGMnvo5Sh/ZYfQ3Qlw9qKvOxyti+PkcBZXAFvAtvsAHNig43FwweG1rxivbOzTsp48v4C5zys1DzA5fi9+wOdn+/HyVkMHZLHhWBYBwS6AC4PfCuLHSfuovgC7XfCzPOWpCV6/dJwNRlYSbCgHdqfwgrI/ToDTkOksOPMBs6L1B+7Y2VvdpqnsTvN94lV8/NsCjgyeN57Tk9ezU2+6Oivs7Ouayq6MvXOW0HFFBCFubcDOmylLr1E07XvimmCU/Njad5gVXc880KY3o/FcyqYAOQ8Azu7jSU1ar7PTHdmTs+ndtcZakSbmINnJz/GgvxNmZk54vvQuRZ++Q5He2ba2IDGeyu7aX9nwoBPgiFNvd3ISmsPLm8LlxIuUD+mAmVkHFM+8SO6XX9ScRN5lBj291CMX5Rfj+LOpVxJsJPHnwc8RsIJeAUBjc0EHgFwjL3LTm1dA33nDGoI7DfNtoQ/Q2RqgjJMHb/KF7t6CUuLOljGyiznIbHgtTMITvxfz42/l/AnI7Mzop7DCp5vmwVJygx+O3MO9tnVX+k6dxtEDR7n0RzygwGbIszzxXAiedgAlnN21iOPVh+LPL+GHeD/ClDYgkTNqyTEUh3byU0yyeiVC/yd5wk9BO40zOP+XjcQZeUbkH0jlir8f7YAuI5cxuUMssXsOkaOTyqcsJ4nCTENe02iS09/kMSd7kLgwfNF+nGOjOfrLWZ246xJuntpHcRWxsouzmSF0dwXs/Zi4YhnbNseSI+2L76hBKDvZACUUq9SLpDQH4wYoqqVOssfFGzAooCFz7W4S+oXhYwcS+VCWbu3Gge1x6tX/rB0JGDWUgB5tNZPjCoj7+vsaAtskxO9gQ7wnrytlqON957N5+G/E7T1C3PliqqxEeP0ggdWX8pbKUHSXUUX2WVfOFJJYu9DLW2df4VWS0quKcKmrI90cqs4uklb8aYHU24VeulVcyOJMNQGcsCyKBE91e2LnzZQN3RiREM8PsSlkXKfKSoRF++qzlPdVVk2OhP/OJERugcQ1gJmRxbyh54WnsVzPOknK3TCV//JvZBf24wEbMPcYTa+REk4fOsYth8foMMQfuYMEylWUlEmwbMJrtOTAZk4+NA1FWzBr24d+b2/g0vFfuJD4CzduUmUlwuIfjee4LkvO4Kq/E22R4BK8EHPnfWQc1dSj5eYZyoqr5TKz8cS8yqQ+R8y1HmwzCRa2npUjcaj459oJbuk4kG4d2cbJvupzsFL9oFsAACAASURBVOw6mscjPEndu4vsP9UrEbYbMBq3HrbqpbnL8zkZvbTui7y0EGuPw/S+YAn0GkijBXSIsjJ1XapIYyO4yzDvbHMflKs4ubeQsTWycP3Du9GFOD93Pz52ZtDakgf7WPJgHz013Szm5x03ePdezrcosad3cDi9g8P17Czh7J5FrFmpzxucReacCLYsi2SMuw2Y2dDdfxzd/auHQZRw6eBSVnxQy8Ih8fPZ/osHYf3sAUucvYcxwXtYlSL58YuINJSzGsj5ZC1xihnqlfJau2jOS7dEIfEf7SO6iuc1nrhN8SjfVGIL2LgFMWGO7vrCJZzaMZtTPRczvOYKvU3ChtNZzO2nqGJDQW1CqCiNWfO+Y9kHT+EuBWRuBExwI6B6uZuXOfDpIhY2gfdZjdrLKv1wMmHebQEL7Dp5M3ySN8OrF83Qc7hyJAve9DaYVcR10BssGqRbx+4aItznpVeZaTDmxoXBH77BYJ1PzmzTI4CL0pg1bxOL547Fyx4wk+GqDCJMWXPtaT0LLtfCVVZFrMV1TeULzzvzs5hoIPe2IJrMmCA6h8ixRIJTn9E49Rldubs8n7Qvv4XR4Sia8iW3PIYLq6WYTZzIgw5gZmGLyyPDcHlkWI2itXryc5fw+2EFAwbYYmYmwanPMJz6VK3n7yOLObKrapxy25CF+HQ1UOf9nvSL8NT54Dppnz3FBV0PcnkMF1Y7YhX+DJ3vBzNbOT3HTqNn9VO9kc3v66dw6Tb3PgOwC+KfBj97sPSAudbwXiOe6SEPazZyYd9Rk1goENw2mJ1L/psPPyswnL+5/BZh6/J4d1ch53JUlNzSKVdeRkleMb/9ks/bq64z9a/mMfp24/jsMFatO8Tx87kU3qw607L0ZiGZiftY88ZQ1nyywUgth0iZOor3I3dxPLOQYt1QGVUhl9IPsXHW2NrFMwBZZM57hsgV+0jJrlZXXSlayw8vvcGamDQuFZRQ59Wb9z9P5Lu7SMkupFT7veUlXDl/iI1vDGX9iujmHVlbuIS1R7MouQXcKiHrwBIiPqvDcSfimPrcHD6OTiEzr+rZqwouc+bwd8x64QMWxjS1T+kqUW+9x9MLvych/TJFN3VtKVXbEv89C2fvM1jDbcGJeN4Y+xYLtyRyJrsAlW6fLC+lKDudhC2fMqvO3mcditKYNW83ZzTD/HbKMNbMVzQsHeE9wK2kKRz++heyclQVq+eVl14n57dd/DR/HBfONtOrR+FWzi0Zx09bj3Hur+sU63Tt8lIVBX9lkLZ1cR1WWLxOcczL/Lgmhoxq9TQ5hes5GRnGT7tS+EunPQFKrmVz7tB6flocyqWLd45naa02zkICg15teD1+06CXZt5tWqzpVjYUCG4X7gOad+WTu4ik19TLL/b6pI7rDwsEAoFAcJuz7ltQ3g+oIPpNiDhZzwqsYftG1KMYl2HW800noMdvVMeZrJ9YbYzQD45NU4eQxC+FCXoGf8evUR87y7t9lc+7d+/eFKYK7jKabc6yQCAQCASC259Zm1GvECmBoClQW+6i6ixYSEUIUPz6lvc+O3RsYQMEdyVCQAsEAoFAIKggazss0cQsW3aByHnUObWh38sQ3E29XfArTGhsJo+GcrwyjZ1cUXf7BYK6IgS0QCAQCASCKqydB1Fn1duyvvD5y7Uf4xcCkaPUWTxKzkLE/CY10TjXIUk7cdMNNs+EkPZGjxAI6oUQ0AKBQCAQCGowawbEaxZXkQ+HBc5GCjvDm89r0tblwpIZUN8VCExNxHLI0Ewqte8DC5bDqW1wbGbL2iW4OxACWiAQCAQCQU2uw4SpEJ8L8ctg1iUjZS9BxH8hNxc+mgRrb4fEI+kw5BWIOgYFt+M6U4I7GvPaiwgEAoFAILgnyYUJz9WtaNou6Lerac2pN1dh1kKY1dJ2CO46hAdaIBAIBAKBQCCoB0JACwQCgUAgEAgE9UCEcJgA7YIqAoFAIBAImo9PNP9rF0UxBeKZLqgLwgMtEAgEAoFAIBDUA7GUdyM4deoUAEOGDCEjI6OFrREIBAKBQCAQNAfCAy0QCAQCgUAgENQDIaAFAoFAIBAIBIJ6IAS0QCAQCAQCgUBQD4SAFggEAoFAIBAI6oEQ0AKBQCAQCAQCQT0QAlogEAgEAoFAIKgHQkALBAKBQCAQCAT1QAhogUAguA1QdFzOt76v4CXuygKBwAQoOi5n22PintJUiKW8BfUiYP58ZiplwDmiApewqt41BLEydihdgaL4Txk157TJbbxTaHxbCu4WFB2Xs+gxORLkzL2eweikmJYzZuBXRLypxBY4u+1B1qysfxXO848xWWkDZLA9cCjHTW3jHcP7TIwNoQuQH7+IyDlrW9oggTF0+n4NCuJZ8eTzXGpumxrKA7OY6ydHep+c9weomPHTF6S1tE13GeK9RHD30knBC2+HsmZzJJvnd2tpa+5wXAiJGM/KrxcSuyKopY25q5A+8C5z/eRIANXFGP6T0oLi+Q7E9sllBK+I462Y3fRuaWPucERb3kX8vYSvUvIBkHQczVzPQUhb2KS7DXPtctSQQVT3IcwyUNClbyjTp43Dr4cLMkvNhyUF5GYmEfPlEt7bKt5tBKbEioCXnuKpAd1wtZMhkVTuUd28QdGVLC6n7GPqMiMe7K69Ge7viRQoanJ773YUPD7Im64A1+t3ZKWnvXbObJtGeAM8nncskhdZNLgPdvcBecf49KelxJW3tFHNhQu2I2fwWPAjeLSzwap15Z7SmyXc/DuLSxmH+G7eIoqN1CIPDEIpB7jWxPbe/dzzbbn/eSL3634QSvDWGdTx9nWbcZ29Ke/jaruQkI4S7LzCWfR3Jq9cONHSht011CGEw4XgecuZO1ZBjT5kKcO+mx/jPlCi7DuLl2dEk9UUVgruKaReAXwwZwTuBm5aktZtsHN1w670NHDvhoAI7nTcefnRYXS1BP7JJ+7wO+y9V8SzfTiBH0/iMWdLvbstWlti4SSne5scbMGogBYIBIY4weeHV+I6dBo+dhK6PjqdV/8K41NVS9t1d2AeMSNCs1lAhp4CLjOXs2CsAkuAggyiv/iItasOkYYCv7BQ3nwxGLnMEvmIuSxIT2LCF0JCCxpBpwAWLxhBV43Hueh8InEJqRz932WN47Mt7spOeHR1w7XkRgsaKqg/BSSvXcXGdMMlCi80nzUtjdT5RYZ3VHf0vKQveO+ecfqF8sSKafjaqf8qzk3jaFwSp+KTKQRAhsPDvegod6fLAyWUtqClAsEdT3kMH/78KOtH9EEq6cBgnxfZGfcFmS1t112AefT30UZ2hxM5RiOebySxMuQZllQ84NI4tCqCQ6fhx0+DcWklQ/nCXEK+eJmoJjdbcLcSMNFfI55LydyxkIkrrlYrkUVSYkoLWCYwBaqcLJISW9qK2wF/3vJxRwJQlMJ3qQdb2qDmI/zJCvGcf2wRkW/XnFiXn7gBI+9ZAoGgHhT9vYjvTm/ghW4SJPJBvPz7F8y+Z17Ymw7jIRwzg+jVRr2ZdXiJjnjW4UAEUclBTPe2BHsPgkZA1PemN1RQB6QyBo8M4nE/N7o62SFtbVG572YB2WeO89263exMLqulIp3443YyJNqppqobFJVbGD2ywhQvT8KeCcLHwxG7CjtKURUY8ye50LeTJm5DdY4fa4jnWhg4nu1veuudKCFVvkpsrL6D9GTA0KnHcExuNxZsfRUfGZCxm8BJ+wwY1fi2ROrI8EkjeeqRbjjJNMeUl1J05TRxW3ewasdl/THe4dOJHd258hyljjz72lhGKDtjp/Hwqwouk3FgI2+vOF+tjspsKTWQDyU2dqieHQUkfDSHWfv17GoMFedhrH5j2V0qfyvtPruAocx7wRd3J80NrryUvMxEvvvPJqLqECKot3+Xl6L6O4vk/ftYtSmNTCOB99L2w/C6X72dmfwZW+sRumHuMw3vYD+83OQ4SC2x0s4PKC+h+O8sUvZv5IfVG6jtKjcPeJ8nnnwMj0722OjWcaOu6ZkUOL80g4EDPOjSzgaLir5dQmG5/tAMAA93uWYrl5St9c9K0fu/Jxkl17dHzqjYk4zSs6dmBgyd2NaMKGZNmq33u+qcTcRrGo89E4ynhwvtdGK5iwtK6nBGoG3LJwb2ooOdJdo7Q3FeRi2/Z+V5aM/RPCCS0S/4oXCyUddTXsKVzHh++E8Y6dX6tmnaspGE72bBaLURhYlL+fAtI5MgOkUStnoYrgCZu3h/YkTV8B6pEteRL+Dt50F3Jxtat65sy9KbheScOcIP6xZxNrmJRsrrlMGmbn2v4X1CH9fZlPwLT3T1x+k+a7x6jEf6y/q6zw3qGMrnX07Hr70l5Kex4e1RvHegzl9+12L0Phnq7qLZKiArKd5guZW/ZzDdWwHYIw9QwveGywqajoA33+B1Q7MdWstw6hHAlMW96Rv5LrNiDFx67koWzx2Ll72efZI2dZjFa47va68xc4gLkhr7LJDIjIlGq8rJgpI2tL3TZ/81ui0Bd1+WffAU7tULm1kgdVIweLKCgMDdzH5zH0lG2kriFcTK+UPp2rra5zJH3Ee+xhqHT3l63r0QT96G4fPnMkXZturHZhbYdVISFulI28lLWHXe0PFWDJ/zGmEDHGv2bzMLJHad8RkThp25scmQ1jzbTeN9Vp0g7tzFetj/PhMWqNOi1cDMEis7Ocoxc/D0dmfppNmakIjq+OH24QImeOvpmGaWWNWlY7rPYNTcUHrr7duW2Bg51LyVdsuS1vqOv6NwweG1rwgb4oKVnr1WMsMvEhVIQwlcOY3HnGqW1f6eyoBA1kx5nrO5xiqypMv8OCYqqzWqmSXtOvkxIXI3WyYPJcVg324hvo4ndZgcDwnY9AzEg5WkGihq+6xSLZ6BzJSoGrHxzm8uJ0ypv/dZtLbBuUcQExc/QnzkKKJjbuNwU5P1CR1ufEtClj/DO4BE3o/nj67n0zoq8PCFGvEMYKtg3FuR7DsQwb2u9EyTBzoth1zAHpDZKuCeb9YWRHWVzPTzpJ05S2r8eS4DOHZi8NBBBLjJABk+U8N49pcVbKwuuKQKFswbi5dmeLXofCIH9h4h7nwxWDvi4+uJbx9PnIw8YBXhr1aK55tXOXHkAHti1HY4unvT/xFPvNza6hHXAKc5fbkUXzsLwIXBS0eQNO174uoqouN3MOutA1TcctyCmBuqycKRuIn3vtN3wyymScJuTdCW6jo04ll1mYRNG1m14zyZRea4+ioJe2koPs5tkLgNZe7bWTz3dpqB9w0XBi/orH45KTrHga0H2XviBnL/oYwb1BkpYNdvJFM6LWZ5xcP1Zz5+K01HCHnz6ocBGs/PAWZ8pi8Oo5Srp/R8fBshefg5pkgsgFKyEw/y/Z4UMqRuPDt2CF5OFiDpzOBJnqx6S1+YkDmD57/NlIqX1Bvk/ZHI97HxnLgMOHYi4BFPvHq4GTfCbCxeWhXw1wmiGjBxsDA7g1MnTnDxVBIZ5wsAGQ79ggkM9MK5NVjJQwh9O5mlH1QPqHPBdX4kE7w1v2xBBvGH9pH4y1mKkeHw8AA8fB+mt7MRCSwNJXheKL21YRjn4/l5byzp5wvAugty30fo28cLZwN9O/PPXHCzB2xQhn7LqcxnanhGjZH8nzfI0DHP85XFBLoCZBH71lL0/XJlOUl1/4J6YBO+qlI838wl5UgM8THqWG4b90A8H3kYTzd7veJajR+9I7VCqZBT0WvZvnElhblg7haO97RQhrvZgL2S8Qsj+filCAMvRSB9eBITJZZACZcSY4ndc4gcaV8eGxtMbydLkMh5YlI4KToe3tuiLYvmE38iBA9PS5Ao8JzgQuo6fffqEHr31LwcqNKIX2tAZ6gKyUxP5dSZDM5q4+odveg9dDiPudkANiinLuPsL6NJvS0dNKbrE1W5yFcZGQzvIIf7OqBobw0X6pZSycW2mpC3dUAoPTD/7dgvZCXvZOX7HxFdTUnkXNdO1ZQh+5eRWr7P4doijYB20DseJGgGEpZ+wKjcYj0iKoukPfEkffAOr/eRgaQzypGw8ZuqpXxeC8HHDqCUMzsW88YK3dCALJIOJ3LaWEoyqS+ThnVWi+O8RJZPXs9O3bfjxCz2flNsODQA2LhyH/0jh9JVAhLXAN7Z5EHyzh0sr2VIHICiAtISCyr/ttV5vS69SlJi83kcGt2WwPDZz2nquMzeiA/4uEJklJEZF8esuBNMWT2T4Z0skPYZygud0nQEsC4WSCSgyjzAQp0XkqTEJWRazWXBgLaAC4pAYLX2mGLOVGkvBRUTt0uLm7UtTYlEYgEUkLx6CW9s0YYIZZF0WMWyzU/hLgFpZwW+pBBX/eCBzxKm/b1UWexd+Akfx+m6cLJI2hMHWGFnzLPaVo7rferN7D9j6jnIspF1Y2dTpsfrlJ+4gfTYSCZGDqOLBNq5B2JLFPm6hZRzGKXx0BVn7GJFRAT5RdXqOPcVckOLSQAOr4WitAMo4eyO2axZUXUezfHDS7lUEfqgx85la4n3nKGuw86LCUuOcSr2G6K/Wkp+HbxpZenRVc6pqHSxZquEosSq+5oU6RyCh8nV4jgvnjWTq3oD8xOjyfzmfdrFGhgxAKymzmGUXC16j/93FNu3Vl5XZekrOTo5mr8+2E5YHxssOgUyMBi2G5i2ZCFRC67jqyPYvuWQ5tNoth8uwWrzOLWHt3NfHFhJTsV33B5tefbQCQo9vbAB3LxfgHXzaxZSBqLQXFfFJw6RoufCubR0ArNy9aXUjSZ2z5ec0rQlEgWeIyH1Gz1FWxhT9onqFP15hmzkOAGu7QbDha11Oi76eAbBXeQVzqmC3w8hlgQCM0uZPfIBoURGbWduQNWd0b9fRBvBpfCPxM9QLR0tqcNAlaCJKdIrnrWUsffAac1+CyxqPNu8ecpHM6x96WeWrzAQV2sE15cG4C4BuEHy1o1VxXNdObGPNxYeIPOm5u/WjniNCWPN1oV8vWI8YQGGfTm3D41vS/BlYE91fG5R4m4d8azLVZbvTdMIWxd8RhlJVpqXyHI93vyEI5Wxz06uTb/YjMTBhV7eBv71kDVDov9SzmzTFc8aiuJI1UZS2DniUeM4c14Y/pDGvlJObKounnUpJs9I33d9QBv+cZ3MnPqEbwCk6RXPFZyIIEVbZRvLGp7PLiFK2gGQS9zSquK5bkzD10ejYi4dYsuKOj65dSlaS/S8tRzXnoeZDd0HhROx6SQRa77lsZHB9a+zBbB6yQ8PCUAJKVtn130ovYJgfPtowiQzY9m7Vd9LaRaZnx/RZEywxMNvmpH6Sji7TVc8ayiaT3pF33agY33NbA6io0jUtJ+Fu5Leem4EzkMf1vTdElIPLdVfj17xrCWLzAOpFS8FVsbijFoMU/eJapRlka1JXiWx74JXHQ+Ln/Mysz7bR9LpNOK3vMeEUCGfAcwPXSjBr6MlyBSMm72cQwemUHH5fbaSQyGfE9Qe6BhM5C5LNqzfQNSWeLJQ4PdcEMGBQfj1ltfMES24sxjkUREfm30qsQFLfpozQuGo3lRlkbSl7tMbqlMU9z0Tk+MZPmkk4/wU2LUGzNrg5OZNyExvQsLS2blqLcsP3KbZYRvdlsCTbsg12Ugu/mEk60hMFtmTPHEFpHaOQIGeQgUkrF3PXn1iaX822W9icETAtMjwCn3D8E27IJGFT66nSeemnN/HGyv1T049nVMAckN3MiW95Jr4/dxEvvmm4f27axvtk7uQq806hByKR2eNqyM7lZSGrKcwqBfdNX37yqnYOg4d6+HEIraP3cXRl2bwxGAlXTTNbuvqReBkLwInTCN+y1KiNzVAoDcLLjyk0AgdVQapWxowItMpkC5O6s0rGYcM57o+n8ylgiBcZWAldTBc3/lY1qw8pHfXpZxCkN+WilFDFMd/n85j/vaAHO9QJceX6QYIhNO3h8b+3Hjibtdu0VhM3SdqcIa8IqANYCnFrs7HZRG9dArRBt5b7lXMXw6awvIDGpHcXkno83DoK+3uQ0x5P4o9S0KQW4KsWxDh84MI1zO6oqUgR182aUFzoT/7RR3oYlfhXcvPbMjwfGectFdj3mUavdZR0WV2Rq5iZ6QVPk8G8e+RysqMCXZuDJ85Hx/lWsI/MBT324I0ui1B6qSNE7fAfcJSYifU4RiHzhhcWOZWg8y4+7jVwHmpAzrgqM1c8mc6CY0woauNtWbrOtcbpMMrs1+42tlUZuGolS600wjV0vyMhg3Pd3GoiIvPyWysiknj0urnWbPaBatBkxgYMghvV002D6kLytDFeDzixYqp8xsu1JuMINpV3O9yuNSQKrrLKsJk2vkvZoH/YqPFAXBwwRn0f9+tm/o+vWPI3xhPpr86w4ar97NYEV8pIJ/0w0Pjlb7y+66KEBS9VGREccBWJwvHHYGp+0QNUsjTNqqVFMeG2CiowBwO8VF8BkFPygEZLr2U8JXOm9+BWQwJjufN2eEM93LBXmdWccmNAnLOphH/Qw7KN4JxAVTXjXZtQROiCJ/O4tGdDUzQqyvFFGY30pDrBZhumkkxCVu/J2Hr90hdFbzw5liGu8kAC5z8Q1mc8x7hq/V5XW8HGt6WPk71H9NRFdUz7V+z00Rp7poDiUXFdaUqbmR/a8zUbWkoT6yegW8js1cUXWtIfJUuhY2/T1SQRXHMbKJjZhNtH4LHtEmMUqon5tm4jyNs3p9EzruNh4yv5zT6ZaTOFBU0X4x3c3N+CfEnhuHqDjg/jK83xGrmKnv4eWnCkbJI3Gj4xc0mfDfTRsuNTNq8zRF94o7CHCArPYcC1GEYerNoXIjmo5ei+chQLdO+5TcASrh48m4dW7nNGTiWd7TiWXWZ5B27WbU9hTO6z0kjeZKr0Kq2ArUf3xQZ6Ioy01g+eQ4/VrwoWNB1QBC9VkeZULCbmAa25Zm8YkAGFJAQOYdZMaY0StCSnMm/Dh2tAWuszaHuyVyVeH40rUI8F6bvY9umjaTHVb1fG87tW4l5Y69xaPx9Qh+5UaTOiSJ10FdERKgnMtr2GYYHaw2mNmtxWrWuvYw+rhRSDFgBZ3cMZM2KO3NirunIIiUxjVHuCiywRzEkhNjEKJDOwVPTn0tPHCLOUBq+gV8RphXPqlyO79jA/u3q7BW6ZSKMTJBtcZq8T3RQ33MAiovUWboEDUad+l7XI1JW18TvlYT31a5WmIah2H5B0xIy+CFNPNMNktcu4o3V1cRzbVQ8xGXYGZoyjjl2VobdZyptHXZO+Bgq5G7V6IliaSv3kax1Ajq5GP6uJsXIwKAJ2jKzSLtMuQynrqbJNnlXI6WRIy+1EJ9NnvarXBUVuWgbQp5KG5Bgo851Xlc6PYvSTTMCeGkfKyZPrSGea0O7jJGN4Y4JdjIMSsKKvm1DO4NVuCCte1yJfmJm87NWKEk64DqgcdU1FMMvGiWUVdzv7HE2VMzdSFvm3EQbdOHQPqhhBt5trIutyK7RThGIA8BzSs1kTUhP/NLgoV0G99II4xKOr32G7auriec7gSbvEwraagc3i/I40wTfcC9hBqDs6VIxCTDr9IZ6VeDy4jpCvdU39dzjURhZQ0jQhLSVauKDucyZrfpdWlI7K8Mi49TlCoHgKvfWW0QR/ioveLbRuw9Ok629Wclc6NVJnwEKFswLwMmQDQ2hIM9wHmdVaWXqtVb1iITTOc7OUV9mCnMGzx+rXoVQH41uS+B/WWhHyF19hqKo3eomRqdPaUYYmv+rZdh11legLWGRQY0StbVSdI5s7UubswdPuTe8quRr+Zr+ZY2rQ4e6H9hVVjG8m5+ZbHCRFKnB8esT5Gg7Zvuu+lOrub/PxAkKw0PgpyrDFf4l1z/73yZ8FWM8TZmX6Rp5/zO8t7Qivt+SVnXumDoC2NYFvdOwBn3FmD6GBtQ3cEnnftdF7/0ulOB5QYbF9eE0LmluNDbuQXRp1otKPw1ry5oonotk+6Fj/HbsF7YvGodL7YdoWMnRPzQ92/5hlANd6K11PxclE683P7QaO6m2z2VxUW/2Coy/HJoCVeWmreM4PQVccJ0fjsHspU3dJ8wfxFXTpVXXsjSZPOqCC+PmrWP7ru2smz/uNnge3R6Y0XE60wdouveNJPYtrOuhLgTPXMfmqUq1+M6PZ8371ZP2C5ofGU7K6p+Z02tiGF9PVBgW0Icr8yxL3AOYUk0gKMaEVoaIGOCHU9qbliO+LyuqiixpJ15fGqrJa9w4FOFBeGnT8f55tma+Xi2HL3JZczOSdu/N4LrejA5XCmC77r2rebjVKy1OMZK/2RRtSeI+ErR3N+f+zHxbYVS0Su0b79k3TjqZWkXv7MkLjRCQ9Ub3haSnb7XzbEtI5HRC5E09Veg03ydqY8wdGTxvPMMNxiHXkgc6+wSZ/6g3ndoPatDvJr2/fc0P7cMJXLeMQIOKbQOnzmlGGFt74T+5WmJS9xmMmhdCF2Md8/BRMjR928o9mL7V+oHNmG8rh9Ebw6D36a8VpbkZnDUSD5b5p1bJutBjgsFkq9XQEcB2XfGqfs/0XUbYVOND/ekV9zsXlC+HVt0pHYfv0mmafNmGWET875rfQ+rFmA/mGI9/tVeYaOUzwzSsLavRbwGRM4NROMmwlNmjGPEmy2fWXUJf2v0/rgBgQxffGbhp3jHz/9jH2TrVcD+2NZ6BLthO3EbERCMvh6bgcJbGdrDtPqDai5l61crxBvKjq2naPiFt31XjwFJx5s+65YAGcJm9nLljlSi6KVCOmcu6taG1H3QPYL4nKhx5G4AS0rZE1PQg9/AjuCK1kwx5717IOyp4uKcce60DrSSDqLcnsLZJlnQT1IWEc5cJkTsCbfF9czqvf7ObA+dB3u8Rnuj3EK52tQmMFL47dhUv/7YgcWH4B9ORfLObAzkyAkYNJaBHWySUciYjj65y/XN3M9ce4cQgzWIUfUJZ+eEeNnyXDg8H8NQQb1ylQN45Ms0746pXfwaxMsYfaeZp/q1REQAAFCpJREFU0pIvk5edTsL5iinDyB/2pK/SE6+Kgy9zYGWckVjreJIyRuLubgEyb15fZ0Ov7XHsPaE72a6YC4lXKwSamuOkZY6gqytgr2Tmihts2JxIhtSNkFGB+HRqA5SiUllULj1u4raEAr7ckohvhDd2WODkH8bmnmnEHTjOz/+7zHXAupMbvbp3wstTgav5b02cAi6LH9OvEuCkOadFb+MaG8P3v6htUVPK1VOXa1/wpr4cTiOzSImdFCTuI1n5oYQN36VT1MmbMSH9cbdXryxo+PcwDQnLokjwDFO/BNp5M2VDN0YkxPNDbAoZ16myEmHRPiNLeZfHkJY1mq4dANc+PG/+Rd2W1N2fRuZrSmwlYOEewuQPLYn+7iiFjl70DhyEt8IeGzPjVZzdEc8Vbz/aAV1GRjLe6hv2H8xF6v8kT/graCeB4owM8uVyA57TlcQdG0dvf3tN396N1TcbScmxx3PUU/j2sMeKEs5mFNJFru8tIpTgTdPociODsyfOciU7g/QTld7Cmqv3lXA8ar7RrAv5B1K54q89p2VM7qBZhU9nkbWynCQKq2XEST+VBW4ugD2Pvbmb0m82knJehnzkkwxUumADFKtKsJLo96YXr91H6qBQPCRg22cakz/sQvR3R+HhJwkcolR7D/MyOGsur0jTV52z66I521P90mLjPo63tiqJPxJPysHKFfTcFHK6e3rQxekKuwKHctxIWzSWhrZlFQb3Ql4l9MUSF/cgqOvSG/FfknjJjyecoV2fIGwlALmk7DZ+fMa5XJDbU/X3BId+gfTvp6RLHZw35m7B2FRRrPY6ArU1tt7BOqnlSrh5ah/FVe53uzibGUJ3V8Dej4krlrFtcyw50r74jhqEspMNUEKxytJg9pym6xPWhLho3kZUGSTXYxJwkFvVFyBZryCms5Ylda/irsRcLgNuFZC2MYJRC/VcFM++SeSThmekFJyOZslbEWz4o+mMFNRO0oodJDysebhLOzN40qsMrlLiBpl74sgLCMLLwBhWwgcriHKdqfbm1aijlMw9n/JGZgCb5Y76vadFcby9rAtrtKLPewSv60Yw5KWwal4UHd+ab0BAo8733MkTp04AQYQYOuGblznw6SIDC4xoKePLlfvwWTRUnZdZ5kbABDeqrhd0jqjAJayq8lkByzfF4/umEjtA6hZA2Bzdo25wZscS0nq+zXADl0aj2xIoilnPu05WLHhWgdQMJPYKAsYoCBijp3Beqe7oYZOQ8EkUcYow9SS21o54BY/Hq8qaF02VZSOF5XvOsXKMeuJojX5VfpWET7+H50PxacpA6KI0Zs3bxOK5Y/GyB8xkuCqDCFPWjFU0Hlt4ka9OnWBwB3ck93XAt3sfPk09VgcDFvHDLj/cRsuxwhJn7xDCvKtdIbnJbEmzZ8wAAx6/+DDWbtNmKlAvYNJ9UOXu4sx9rIrIwHdTOM4G7hM5H8xiu+sy9WppUjmBk+YQWLG3hMw9i1iTGcxsuYElrCWWtLNX0M61loHg8kJSNkZUWYlN/znNZ/svHoT1swcscfYexgTvYVWK5McvInJOVQFWvGwjcf1m4GuHnvOA4vRdrEhzJ2KkgYu8aBEblyk0kx31/B55yaybt4R2b31lUEBzYjZrljkw+VU/dXvL5CgHyVEO0jf8f+X/27v/4KbrPI/jL0rX3uBdZL16x55V1ovrj47OwilDZ9y5unW2O/7o3uL2OGpnC9ciTHfHlTlb4CyglJ9dq4AVuqBEW6eATBVK1LM95Qijd0FgCh4XrLvhRyfsVKmAaYGmCN4fSWhKkzTfNmnS9vmYYeb7/X4+32/epGnzzjufz+d7dQx7zAzwuezlgEvt080K/PjkPm1kNXy7Dh506eG/S5Ou8802abWrv+H+Z9dbZP8H3x0ug/w8JY+Ovf+f6sh6TD8O8dqe9G8vhJ6Aa5qkJ1YHrmLfIXtFk6y9/t7Z9fFWuzJ8ExX/6o5szVwc+PfBo5adi9Ry7wsh3zti9ppInqmfeG8uoO7Ww6q/EumJkmW3Q8VTM3ru9zHOFHzY0yiT5NxXr/LpUzRtefAF2PvweORuc6p5b50qCh7SlMdInhNCp0NlRWu0xX5cZwIzqS632o7sVlXpYhWt+ULdYbOsr7Wx5AW9vjfgGlcuqbPNoV2rFqtozQl1fvNt2ESts7FWxauadNR/uyNJ6vparXu3an6RRfVH3eoMuTq8Q5/aHfpT69fq7rqg7mt/wbsu6EzrYe2u2aiivJVa1RhB2e5ok4r/9RXV24/rTJeBt58Pt6po6Xs62ubuiePKJZ05YdfrpYtVvP7LfhLWwT+XkuSo2ahp+a+o3v6F2tzXxB/4fBRtDT2UJVo6HVr65EpVNTr6xhJjra+uVemrdrWeCXjcKxfUdqRJq/LLVWa9EPrkaDpqV2neQq3aflB/CnxtSL6f7xf6dPsrKutnMkjnqT1y+CpXN947Q3n9VI79Oqof1bqXm3S4raPnjfOKRxfPOGXfvkzP5c3Q4fbwE8E7qudqvcWmY2d6+l1yt+uwdZlWF/1Opzs79G3YF6ZNB0oWactep766+tr2qKPNoV2r8rRxTZ30Tc9kqN4cOvzxIbWcaFdHl0cXr/0d7/aoo80pu7ValflTtL0mkvcll1qfn6HK9d7npc81Q7LoP4qWadeRdnUE/H8vnXFqj6VUy39borP9XatxltauerfXz+NSV4eO7bWosmiGvjhqV1d/93tqnKv1eaXa3HhIrWc8uhT4mIHPR96jCnNLpSgZ6HMZoKFcGxqccvvGU7uP1Kn8GWOTXS9abPq/gJ9J6+H60DcV8eu0yFq0TNvtAa9LeX8efz7SpM2lj2rzGocuxrrS8OEsVS71vSauvnd49NUJm7aUPqra9db+l+WP+mviev1q8k916xhJOqtPm2uNrZL1xkxV7B5uMzJjb4yk7+IdxHDV0tIiSXrkkUfkdHIDGQCRu3VilTY8aNZ1kjo/W6eC5sbEuykQwvqh71+iXWsgpkqxnWCXQE5IoSefD/K6oVbZ8zsk6VwMHjuscaWqzf2pJoyRuv9Yqxn/vc3435pZNdr/774qtNuuiikzIx2UM2KxPhYAxEHryQ366NSLevhm6S/vLdDC4x9r0bnz/Z+ImBgvXb3NfIa8yeTfSrrLd+zBeASFUWlPP+3npH4rzz3J/GQVTPpr3f3lZ9KlP8u2b5vuN/BYfpmTe1Zraz9kHfXJs0QFelCoQAMYlOtma8Pjj+v2FHknY7/zlDbF+ivmUchf3Q1Mkv0V14FWfo1WEtsktQzgcaIlLpXPYcj/4WkwAj94hXKXFN0lXQeoWNIfwrSnZxUrf3aucu5L897v46xdFf/CohESFWgAiJ/u1zT/g1v02i+m6MYUs3J/vlSt7z2nDwYy9nSEC0x+/YIlvz/29ZWMJUOfy5vkBlb37JK6fMc/NxgvhqdIK7JDob/X71/4+gT3Pd1648/1k1tu0FhJF9vs2vWls8+8mw9Cnr9C77fkqtdcx/ZmWRaTPPuRQANAEMHevIIlcX6hVs3tN4k795xU27P7s9A9w/Ine9EU4dTyft2g0M9bKNEcMuFPij6X9KV6J8SJlDABgSKZehkyAR6/SO/kTNEJSd3OdzT/sFNG1kK56rJH7tNO2RvqVP1S/cCuMUIxhGMQGMIBJIZgiW2w6kxKkGMS41sTXbAKsD8ZDhT4IYKqMUa36zXpttVaePNhlX/8GolvDFCBHiGGcjxVJDONMTpMUs/X5eGE/6rRK5IqZbgKcLR0KXjl55Ckb4IcD/X7cM53TjwlyjjLSFENBqLlvA4df0ozjsc7jpGLBHoEeFDSf8U7iGGGN2qvSBLbRBcsgQ02YStYQpsISW4sfS6qsAAQCyTQI8AhSduU2JWmREvU+Mp+YIx++xDJygORfNXOtx4AgERCAj0CnJOUF+8gRqgJ6n85ouEmFpPNAAAYTUiggTDafP8AAAD8WIVjEAq27B70NWqfyIpCJAAAABgqSfEOAAAAABhOGMIRBbVFxqvIBZsHX70GAADA0KMCDQAAABhAAg0AAAAYQAINAAAAGEACDQAAABhAAg0AAAAYQAINAAAAGMAydlGy4kUp9zbvtsctOQ9Iltcl6/n4xgUAAIDoogIdAykmKT1LqlwjFV4f72gAAAAQTUktLS3q+bdfNbNC9JyYocLf79An+z/r6e/4TPttO1T1dI7ShjTsxFP2jHTn49K0Uqmp1XcwVSqaE9ewAAAAEGWRVaCzFmjblhot+Kd0pZpSeo6PTZFpQrqyf1OpHTuXKDNGQQ4nDqf01DzJ1u7dT71TyolvSAAAAIiiJGuDVc2n/Lvd8py9psfEQtWsLNTkVO+u+5hd9S+VqGR+uaob7HK5vcdNd+ersrZw1Fei/ezHfRt/I2XENRIAAABEU1JJg0emCb69o40qb+jdIXdhkTK+791276vQtIdnqmyjVdaGOq2dP1MP5VbI7ku6TVPztSBryGJPaJa2eEcAAACAWEgqnJst81hJapftzXK5ejUXKzfDV3put6miwHJNu6STFs38g13eQnSaMmYVxjrmUSFz0Q7td3jHmX9UTWUfAAAgUSTl3m/ybh3bI8vb17Q+nan0cd5N1wGL6oNeIlNLfpku31VkMmcw5newHqjUkl+nyzRW0tgUpWXNU+Vv4h0UAAAAJCnJW312y/5WmezXNObcdYu8Uwbdch24tlXSPcXaZKtS/t2mnmOpaYz5Hawf3SRTrwMpMlGCBgAASAjeVThO2lT9Rt/G9B/4hm/otFxv9m5Ly6vSR1vmKXNCiiSP2s96fC03Ke3XsQp3eEoxuhb0GzY5Aidzepxqfi+aEQEAAGCgkiSPmneW9Kk+S9LVFevcp+W8ejRNOc/v0I7ns5WWIulyu+zrZuiZfad7Thwby5CHiXbJ/5HC/AujJ1s0c3a56vc55DzYpOpn56jskyjHBwAAgAFJ1imbqjdE2j1dxbWvat5U/5p2DtUtfUrl77qklZ7wp442Vql5mpQxXkr/pVTzrWTZLdm+jvD8I3UqK6iLaYgAAAAwLqm5oUK2SHpOzFdV07arybPnZJPKc6d5k2dJackp4c4elWauluynJH1PysiTNr0qtbwj1XDHGQAAgGEruX5dn4Xpelz297pdRfUZSjVJkkfte6v15JPVcgR0zZ7gn/YW5GYsAAAAwAiRHHxpOi/nGbckkzQuVd66s1uON0s0bXnfmrX5Rl8CffkrORv6NI9KNQu9Qzh0XrLWSPX/I9nPe9sKCuIaGgAAAAYoKVyj5WhAddrjUtPz04Imz9I8mW/2bba5IhsSMtLlSJPHezebt0slH/YkzwAAABi+wibQ2uLoWX3jmE0VW4MP90hblKnJvhuutLc0BV3RY9RJlfyjwp3WAZyfVayqLe/r/S1VmvcYi0ADAAAkivAJ9Mlq2Y76Vte4O0dVpUFmv2Wt0Kbp6d5tj0O7Vg8kW0Rvudq0bJ6y7zPLfF+2ildu0ooH4h0TAAAAJCk5fLNLFS9blbk2V+YUk9JnV+mTDLsam6xqbjPJ/LNc/fM/pis1RZI8cr67VhUnhyLskW6y0lIDdlPMypieIX1CbR8AACDe+kmgJe0u05yXb9Jbv8tUakqKUu/JVP49mcrv1ckj1+61mvMso5+jw6rmP+bI/KOepQFN30+XGBwDAAAQd+GHcPi4XpujB54oV/0+p9yB90vxeOQ+ZlPdszP0ULFFYRbEgyF2lf22Tg7uTQMAAJBw+q9A+/nujFcWw2AQ4GSFHKcKlf733t3Trqb4xgMAAABJEVagYVzO+EFeYOI8mSf4ti87ZN9IfR8AACARRF6BhiHZt/s23OpZCjASEzOU+6t8FeZlyzxOkjxy7lyrciZnAgAAJAQS6ChLN0uFc6XsH3j3PcclS4TnFtbu14KppoAjHrk+qGByJgAAQAIhgY6SFS9Kubddc/CctLbS+LU8F9xy/W+T6tdXy7KPoRsAAACJhAQ6BjxuyXVEqq6WrAZu320pmBJxtRoAAADxQQIdJWXPiBVKAAAARgFW4QAAAAAMIIEGAAAADGAIRxQUbN4d7xAAAAAwRKhAAwAAAAaMkfRdvIMAAAAAhgsq0AAAAIABJNAAAACAASTQAAAAgAEk0AAAAIABJNAAAACAASTQAAAAgAEk0AAAAIABJNAAAACAASTQAAAAgAEk0AAAAIAByS0tLQG7btlXTdHMN0J1T1PO0wtUOD1T6akpkiTn23fqkWdjHSYAAACQGJIj65au/GVLVPjYZKWNi21AAAAAQCJLtjZYlXZ/jibfLEnd8pwNbM5U8SsLVJhllmms79Blt1xnU5Tmq0ADAAAAo0lSSYNHpgm+vaONKm8IbPbIfIc/efbIdbBe5dOnqM7pGfJAAQAAgESQXDg3W+axktQu25vlcvVqtmvtXocys9yqf6lMFe96WwuHPk4AAAAgISTn3m/ybh3bI8vbfTu4lk/TlOVDGxQAAACQqJK81We37G+VyR7vaAAAAIAE510H+qRN1SGXrgMAAADglyR51LyzhOozAAAAEIEknbKpekO8wwAAAACGh6TmhgrZ4h0FAAAAMEwk1a9z9d8LAAAAgCQpqT7eEQAAAADDSFK8AwAAAACGExJoAAAAwAASaAAAAMCA5P46ZMxeotw7TL2OmW5Kubp9g7lSlb8PaGyzq+QlRlYDAABgZBoj6btwHQpr92vBVFO4Lr0dq9edD5cNMiwAAAAgMTGEAwAAADCg3wo0AAAAgB5UoAEAAAADSKABAAAAA0igAQAAAANIoAEAAAADSKABAAAAA0igAQAAAANIoAEAAAADSKABAAAAA0igAQAAAANIoAEAAAADSKABAAAAA0igAQAAAANIoAEAAAADSKABAAAAA0igAQAAAAP+H/0wl1HbZo53AAAAAElFTkSuQmCC;" vertex="1" parent="1">
          <mxGeometry x="510" y="480" width="118.68" height="30" as="geometry" />
        </mxCell>
        <mxCell id="I4Zyjwfel7fduKmOHLP3-34" value="" style="edgeStyle=orthogonalEdgeStyle;rounded=0;orthogonalLoop=1;jettySize=auto;html=1;exitX=0.75;exitY=0;exitDx=0;exitDy=0;entryX=0.5;entryY=1;entryDx=0;entryDy=0;" edge="1" parent="1" source="I4Zyjwfel7fduKmOHLP3-25" target="I4Zyjwfel7fduKmOHLP3-33">
          <mxGeometry relative="1" as="geometry">
            <mxPoint x="123" y="370" as="sourcePoint" />
            <mxPoint x="660" y="310" as="targetPoint" />
          </mxGeometry>
        </mxCell>
        <mxCell id="I4Zyjwfel7fduKmOHLP3-33" value="button onclick&lt;br&gt;" style="rounded=0;whiteSpace=wrap;html=1;" vertex="1" parent="1">
          <mxGeometry x="40" y="290" width="200" height="70" as="geometry" />
        </mxCell>
        <mxCell id="I4Zyjwfel7fduKmOHLP3-36" value="addStudentFunc" style="rounded=0;whiteSpace=wrap;html=1;" vertex="1" parent="1">
          <mxGeometry x="40" y="220" width="200" height="70" as="geometry" />
        </mxCell>
        <mxCell id="I4Zyjwfel7fduKmOHLP3-37" value="tempElem" style="rounded=0;whiteSpace=wrap;html=1;" vertex="1" parent="1">
          <mxGeometry x="40" y="270" width="110" height="20" as="geometry" />
        </mxCell>
        <mxCell id="I4Zyjwfel7fduKmOHLP3-38" value="li" style="rounded=0;whiteSpace=wrap;html=1;" vertex="1" parent="1">
          <mxGeometry x="540" y="310" width="80" height="60" as="geometry" />
        </mxCell>
        <mxCell id="I4Zyjwfel7fduKmOHLP3-40" value="onclick" style="rounded=0;whiteSpace=wrap;html=1;" vertex="1" parent="1">
          <mxGeometry x="540" y="350" width="70" height="20" as="geometry" />
        </mxCell>
        <mxCell id="I4Zyjwfel7fduKmOHLP3-41" value="li onclick" style="rounded=0;whiteSpace=wrap;html=1;" vertex="1" parent="1">
          <mxGeometry x="630" y="480" width="70" height="20" as="geometry" />
        </mxCell>
        <mxCell id="I4Zyjwfel7fduKmOHLP3-42" value="button onclick" style="rounded=0;whiteSpace=wrap;html=1;" vertex="1" parent="1">
          <mxGeometry x="130" y="220" width="110" height="20" as="geometry" />
        </mxCell>
        <mxCell id="I4Zyjwfel7fduKmOHLP3-43" value="anonymous" style="rounded=0;whiteSpace=wrap;html=1;" vertex="1" parent="1">
          <mxGeometry x="130" y="290" width="110" height="20" as="geometry" />
        </mxCell>
      </root>
    </mxGraphModel>
  </diagram>
</mxfile>
